<?xml version="1.0" encoding="UTF-8" standalone="no"?>
<!-- Created with Inkscape (http://www.inkscape.org/) -->
<svg
   xmlns:dc="http://purl.org/dc/elements/1.1/"
   xmlns:cc="http://web.resource.org/cc/"
   xmlns:rdf="http://www.w3.org/1999/02/22-rdf-syntax-ns#"
   xmlns:svg="http://www.w3.org/2000/svg"
   xmlns="http://www.w3.org/2000/svg"
   xmlns:sodipodi="http://sodipodi.sourceforge.net/DTD/sodipodi-0.dtd"
   xmlns:inkscape="http://www.inkscape.org/namespaces/inkscape"
   width="744.09448819"
   height="1052.3622047"
   id="svg2"
   sodipodi:version="0.32"
   sodipodi:docbase="/home/bcrowell/Documents/teaching/lab/figs"
   sodipodi:docname="em-ear-period-amplitude.svg"
   inkscape:output_extension="org.inkscape.output.svg.inkscape">
  <defs
     id="defs4" />
  <sodipodi:namedview
     id="base"
     pagecolor="#ffffff"
     bordercolor="#666666"
     borderopacity="1.0"
     gridtolerance="10000"
     guidetolerance="10"
     objecttolerance="10"
     inkscape:pageopacity="0.0"
     inkscape:pageshadow="2"
     inkscape:zoom="2.482303"
     inkscape:cx="152.89494"
     inkscape:cy="695.29856"
     inkscape:document-units="px"
     inkscape:current-layer="svg2"
     inkscape:window-width="1278"
     inkscape:window-height="996"
     inkscape:window-x="0"
     inkscape:window-y="0" />
  <metadata
     id="metadata7">
    <rdf:RDF>
      <cc:Work
         rdf:about="">
        <dc:format>image/svg+xml</dc:format>
        <dc:type
           rdf:resource="http://purl.org/dc/dcmitype/StillImage" />
      </cc:Work>
    </rdf:RDF>
  </metadata>
  <g
     inkscape:label="Layer 1"
     inkscape:groupmode="layer"
     id="layer1" />
  <g
     style="fill:none; color:white; stroke:currentColor; stroke-width:1.00; stroke-linecap:butt; stroke-linejoin:miter"
     id="g8" />
  <path
     style="color:#000000;fill:none;stroke:currentColor;stroke-width:1;stroke-linecap:butt;stroke-linejoin:miter"
     id="path12"
     d="M 103.3,426 L 112.3,426 M 272.7,426 L 263.7,426" />
  <g
     id="g14"
     style="font-size:12px;text-anchor:end;color:#000000;fill:#000000;stroke:none;stroke-width:1;stroke-linecap:butt;stroke-linejoin:miter;font-family:Arial"
     transform="translate(95,430.5)">
    <text
       id="text16">0.0001</text>
  </g>
  <path
     style="color:#000000;fill:none;stroke:currentColor;stroke-width:1;stroke-linecap:butt;stroke-linejoin:miter"
     id="path18"
     d="M 103.3,417.5 L 107.8,417.5 M 272.7,417.5 L 268.2,417.5 M 103.3,406.3 L 107.8,406.3 M 272.7,406.3 L 268.2,406.3 M 103.3,400.5 L 107.8,400.5 M 272.7,400.5 L 268.2,400.5 M 103.3,397.8 L 112.3,397.8 M 272.7,397.8 L 263.7,397.8" />
  <g
     id="g20"
     style="font-size:12px;text-anchor:end;color:#000000;fill:#000000;stroke:none;stroke-width:1;stroke-linecap:butt;stroke-linejoin:miter;font-family:Arial"
     transform="translate(95,402.3)">
    <text
       id="text22">0.001</text>
  </g>
  <path
     style="color:#000000;fill:none;stroke:currentColor;stroke-width:1;stroke-linecap:butt;stroke-linejoin:miter"
     id="path24"
     d="M 103.3,389.3 L 107.8,389.3 M 272.7,389.3 L 268.2,389.3 M 103.3,378 L 107.8,378 M 272.7,378 L 268.2,378 M 103.3,372.3 L 107.8,372.3 M 272.7,372.3 L 268.2,372.3 M 103.3,369.5 L 112.3,369.5 M 272.7,369.5 L 263.7,369.5" />
  <g
     id="g26"
     style="font-size:12px;text-anchor:end;color:#000000;fill:#000000;stroke:none;stroke-width:1;stroke-linecap:butt;stroke-linejoin:miter;font-family:Arial"
     transform="translate(95,374)">
    <text
       id="text28">0.01</text>
  </g>
  <path
     style="color:#000000;fill:none;stroke:currentColor;stroke-width:1;stroke-linecap:butt;stroke-linejoin:miter"
     id="path30"
     d="M 103.3,361 L 107.8,361 M 272.7,361 L 268.2,361 M 103.3,349.8 L 107.8,349.8 M 272.7,349.8 L 268.2,349.8 M 103.3,344 L 107.8,344 M 272.7,344 L 268.2,344 M 103.3,341.3 L 112.3,341.3 M 272.7,341.3 L 263.7,341.3" />
  <g
     id="g32"
     style="font-size:12px;text-anchor:end;color:#000000;fill:#000000;stroke:none;stroke-width:1;stroke-linecap:butt;stroke-linejoin:miter;font-family:Arial"
     transform="translate(95,345.8)">
    <text
       id="text34">0.1</text>
  </g>
  <path
     style="color:#000000;fill:none;stroke:currentColor;stroke-width:1;stroke-linecap:butt;stroke-linejoin:miter"
     id="path36"
     d="M 103.3,332.8 L 107.8,332.8 M 272.7,332.8 L 268.2,332.8 M 103.3,321.6 L 107.8,321.6 M 272.7,321.6 L 268.2,321.6 M 103.3,315.8 L 107.8,315.8 M 272.7,315.8 L 268.2,315.8 M 103.3,313.1 L 112.3,313.1 M 272.7,313.1 L 263.7,313.1" />
  <g
     id="g38"
     style="font-size:12px;text-anchor:end;color:#000000;fill:#000000;stroke:none;stroke-width:1;stroke-linecap:butt;stroke-linejoin:miter;font-family:Arial"
     transform="translate(95,317.6)">
    <text
       id="text40">1</text>
  </g>
  <path
     style="color:#000000;fill:none;stroke:currentColor;stroke-width:1;stroke-linecap:butt;stroke-linejoin:miter"
     id="path42"
     d="M 103.3,304.6 L 107.8,304.6 M 272.7,304.6 L 268.2,304.6 M 103.3,293.3 L 107.8,293.3 M 272.7,293.3 L 268.2,293.3 M 103.3,287.6 L 107.8,287.6 M 272.7,287.6 L 268.2,287.6 M 103.3,284.8 L 112.3,284.8 M 272.7,284.8 L 263.7,284.8" />
  <g
     id="g44"
     style="font-size:12px;text-anchor:end;color:#000000;fill:#000000;stroke:none;stroke-width:1;stroke-linecap:butt;stroke-linejoin:miter;font-family:Arial"
     transform="translate(95,289.3)">
    <text
       id="text46">10</text>
  </g>
  <path
     style="color:#000000;fill:none;stroke:currentColor;stroke-width:1;stroke-linecap:butt;stroke-linejoin:miter"
     id="path48"
     d="M 103.3,276.3 L 107.8,276.3 M 272.7,276.3 L 268.2,276.3 M 103.3,265.1 L 107.8,265.1 M 272.7,265.1 L 268.2,265.1 M 103.3,259.3 L 107.8,259.3 M 272.7,259.3 L 268.2,259.3 M 103.3,256.6 L 112.3,256.6 M 272.7,256.6 L 263.7,256.6" />
  <g
     id="g50"
     style="font-size:12px;text-anchor:end;color:#000000;fill:#000000;stroke:none;stroke-width:1;stroke-linecap:butt;stroke-linejoin:miter;font-family:Arial"
     transform="translate(95,261.1)">
    <text
       id="text52">100</text>
  </g>
  <path
     style="color:#000000;fill:none;stroke:currentColor;stroke-width:1;stroke-linecap:butt;stroke-linejoin:miter"
     id="path54"
     d="M 103.3,426 L 103.3,417 M 103.3,256.6 L 103.3,265.6" />
  <g
     id="g56"
     style="font-size:12px;text-anchor:middle;color:#000000;fill:#000000;stroke:none;stroke-width:1;stroke-linecap:butt;stroke-linejoin:miter;font-family:Arial"
     transform="translate(103.3,442.5)">
    <text
       id="text58">0</text>
  </g>
  <path
     style="color:#000000;fill:none;stroke:currentColor;stroke-width:1;stroke-linecap:butt;stroke-linejoin:miter"
     id="path60"
     d="M 122.1,426 L 122.1,417 M 122.1,256.6 L 122.1,265.6" />
  <path
     style="color:#000000;fill:none;stroke:currentColor;stroke-width:1;stroke-linecap:butt;stroke-linejoin:miter"
     id="path66"
     d="M 140.9,426 L 140.9,417 M 140.9,256.6 L 140.9,265.6" />
  <g
     id="g68"
     style="font-size:12px;text-anchor:middle;color:#000000;fill:#000000;stroke:none;stroke-width:1;stroke-linecap:butt;stroke-linejoin:miter;font-family:Arial"
     transform="translate(140.9,442.5)">
    <text
       id="text70">40</text>
  </g>
  <path
     style="color:#000000;fill:none;stroke:currentColor;stroke-width:1;stroke-linecap:butt;stroke-linejoin:miter"
     id="path72"
     d="M 159.8,426 L 159.8,417 M 159.8,256.6 L 159.8,265.6" />
  <path
     style="color:#000000;fill:none;stroke:currentColor;stroke-width:1;stroke-linecap:butt;stroke-linejoin:miter"
     id="path78"
     d="M 178.6,426 L 178.6,417 M 178.6,256.6 L 178.6,265.6" />
  <g
     id="g80"
     style="font-size:12px;text-anchor:middle;color:#000000;fill:#000000;stroke:none;stroke-width:1;stroke-linecap:butt;stroke-linejoin:miter;font-family:Arial"
     transform="translate(178.6,442.5)">
    <text
       id="text82">80</text>
  </g>
  <path
     style="color:#000000;fill:none;stroke:currentColor;stroke-width:1;stroke-linecap:butt;stroke-linejoin:miter"
     id="path84"
     d="M 197.4,426 L 197.4,417 M 197.4,256.6 L 197.4,265.6" />
  <path
     style="color:#000000;fill:none;stroke:currentColor;stroke-width:1;stroke-linecap:butt;stroke-linejoin:miter"
     id="path90"
     d="M 216.2,426 L 216.2,417 M 216.2,256.6 L 216.2,265.6" />
  <g
     id="g92"
     style="font-size:12px;text-anchor:middle;color:#000000;fill:#000000;stroke:none;stroke-width:1;stroke-linecap:butt;stroke-linejoin:miter;font-family:Arial"
     transform="translate(216.2,442.5)">
    <text
       id="text94">120</text>
  </g>
  <path
     style="color:#000000;fill:none;stroke:currentColor;stroke-width:1;stroke-linecap:butt;stroke-linejoin:miter"
     id="path96"
     d="M 235.1,426 L 235.1,417 M 235.1,256.6 L 235.1,265.6" />
  <path
     style="color:#000000;fill:none;stroke:currentColor;stroke-width:1;stroke-linecap:butt;stroke-linejoin:miter"
     id="path102"
     d="M 253.9,426 L 253.9,417 M 253.9,256.6 L 253.9,265.6" />
  <g
     id="g104"
     style="font-size:12px;text-anchor:middle;color:#000000;fill:#000000;stroke:none;stroke-width:1;stroke-linecap:butt;stroke-linejoin:miter;font-family:Arial"
     transform="translate(253.9,442.5)">
    <text
       id="text106">160</text>
  </g>
  <path
     style="color:#000000;fill:none;stroke:currentColor;stroke-width:1;stroke-linecap:butt;stroke-linejoin:miter"
     id="path108"
     d="M 272.7,426 L 272.7,417 M 272.7,256.6 L 272.7,265.6" />
  <path
     style="color:#000000;fill:none;stroke:currentColor;stroke-width:1;stroke-linecap:butt;stroke-linejoin:miter"
     id="path114"
     d="M 103.3,256.6 L 103.3,426 L 272.7,426 L 272.7,256.6 L 103.3,256.6 z " />
  <g
     id="g116"
     style="font-size:12px;text-anchor:middle;color:#000000;fill:#000000;stroke:none;stroke-width:1;stroke-linecap:butt;stroke-linejoin:miter;font-family:Arial"
     transform="matrix(0,-1,1,0,24.1,341.3)">
    <text
       y="20.545437"
       x="0.4028517"
       id="text118">correction to period</text>
  </g>
  <g
     id="g120"
     style="font-size:12px;text-anchor:middle;color:#000000;fill:#000000;stroke:none;stroke-width:1;stroke-linecap:butt;stroke-linejoin:miter;font-family:Arial"
     transform="translate(188,461.5)">
    <text
       id="text122">amplitude (degrees)</text>
  </g>
  <g
     style="fill:none;color:blue;stroke:#000000;stroke-width:2.5;stroke-linecap:butt;stroke-linejoin:miter;stroke-opacity:1;stroke-miterlimit:4;stroke-dasharray:none"
     id="g124">
    <path
       d="M105.5,425.0 L105.7,423.6 L105.8,422.2 L105.9,421.0 L106.1,419.8 L106.2,418.6 L106.3,417.5 L106.5,416.5 L106.7,414.5 L107.0,412.7    L107.3,411.0 L107.5,409.4 L107.8,408.0 L108.1,406.6 L108.3,405.2 L108.6,404.0 L108.9,402.8 L109.1,401.6 L109.4,400.5 L109.7,399.5    L109.9,398.5 L110.2,397.5 L110.4,396.6 L110.7,395.7 L111.0,394.9 L111.2,394.0 L111.5,393.2 L111.8,392.4 L112.3,390.9 L112.8,389.5    L113.4,388.2 L113.9,387.0 L114.4,385.8 L114.9,384.6 L115.5,383.5 L116.0,382.5 L116.5,381.5 L117.1,380.5 L117.6,379.6 L118.1,378.7    L118.7,377.8 L119.2,377.0 L119.7,376.2 L120.2,375.4 L120.8,374.6 L121.3,373.9 L121.8,373.2 L122.4,372.5 L122.9,371.8 L123.4,371.1    L123.9,370.5 L124.5,369.9 L125.0,369.3 L125.5,368.7 L126.1,368.1 L126.6,367.5 L127.1,367.0 L127.7,366.4 L128.2,365.9 L128.7,365.4    L129.8,364.3 L130.8,363.4 L131.9,362.4 L132.9,361.5 L134.0,360.6 L135.1,359.8 L136.1,359.0 L137.2,358.2 L138.2,357.4 L139.3,356.7    L140.4,355.9 L141.4,355.2 L142.5,354.5 L143.5,353.8 L144.6,353.2 L145.7,352.5 L146.7,351.9 L147.8,351.3 L148.8,350.7 L149.9,350.1    L150.9,349.5 L152.0,349.0 L153.1,348.4 L154.1,347.9 L155.2,347.3 L156.2,346.8 L157.3,346.3 L158.4,345.8 L159.4,345.3 L160.5,344.8    L161.5,344.3 L162.6,343.8 L163.6,343.4 L164.7,342.9 L165.8,342.5 L166.8,342.0 L167.9,341.6 L168.9,341.1 L170.0,340.7 L171.1,340.3    L172.1,339.9 L173.2,339.4 L174.2,339.0 L175.3,338.6 L176.4,338.2 L177.4,337.8 L178.5,337.4 L179.5,337.1 L180.6,336.7 L181.6,336.3    L182.7,335.9 L183.8,335.5 L184.8,335.2 L185.9,334.8 L186.9,334.4 L188.0,334.1 L190.1,333.4 L192.2,332.7 L194.4,332.0 L196.5,331.3    L198.6,330.6 L200.7,329.9 L202.8,329.3 L204.9,328.6 L207.1,327.9 L209.2,327.3 L211.3,326.7 L213.4,326.0 L214.5,325.7 L215.5,325.4    L216.6,325.1 L217.6,324.7 L218.7,324.4 L219.8,324.1 L220.8,323.8 L221.9,323.5 L222.9,323.1 L224.0,322.8 L225.1,322.5 L226.1,322.2    L227.2,321.9 L228.2,321.5 L229.3,321.2 L230.4,320.9 L231.4,320.6 L232.5,320.2 L233.5,319.9 L234.6,319.6 L235.6,319.3 L236.7,318.9    L237.8,318.6 L238.8,318.3 L239.9,317.9 L240.9,317.6 L242.0,317.2 L243.1,316.9 L244.1,316.5 L245.2,316.2 L246.2,315.8 L247.3,315.4    L248.3,315.0 L249.4,314.7 L250.5,314.3 L251.5,313.9 L252.1,313.7 L252.6,313.5 L253.1,313.3 L253.6,313.1 L254.2,312.9 L254.7,312.6    L255.2,312.4 L255.8,312.2 L256.3,312.0 L256.8,311.8 L257.3,311.5 L257.9,311.3 L258.4,311.1 L258.9,310.8 L259.5,310.6 L260.0,310.3    L260.5,310.1 L261.1,309.8 L261.6,309.5 L262.1,309.2 L262.6,309.0 L263.2,308.7 L263.7,308.4 L264.2,308.0 L264.5,307.9 L264.8,307.7    L265.0,307.6 L265.3,307.4 L265.6,307.2 L265.8,307.0 L266.1,306.8 L266.3,306.7 L266.6,306.5 L266.9,306.3 L267.1,306.1 L267.4,305.8    L267.7,305.6 L267.9,305.4 L268.2,305.2 L268.5,304.9 L268.7,304.7 L269.0,304.4 L269.3,304.1 L269.5,303.8 L269.7,303.7 L269.8,303.5    L269.9,303.3 L270.1,303.2 L270.2,303.0 L270.3,302.8 L270.5,302.6 L270.6,302.4 L270.7,302.2 L270.8,302.0 L271.0,301.7 L271.1,301.5    L271.2,301.4 L271.2,301.2 L271.3,301.1 L271.4,301.0 L271.4,300.8 L271.5,300.7 L271.6,300.5 L271.6,300.3 L271.7,300.2 L271.8,300.0    L271.8,299.8 L271.9,299.6 L272.0,299.3 L272.0,299.1 L272.1,298.8 L272.2,298.6 L272.2,298.4 L272.2,298.2 L272.3,298.1 L272.3,297.9    L272.3,297.7 L272.4,297.5 L272.4,297.3 L272.4,297.0 L272.5,296.9 L272.5,296.7 L272.5,296.6 L272.5,296.4 L272.5,296.2 L272.5,296.1    L272.6,295.9 L272.6,295.6 L272.6,295.4 L272.6,295.1 L272.6,294.8 L272.6,294.4 L272.6,294.2 L272.7,293.9 L272.7,293.6 L272.7,293.3    L272.7,293.1 L272.7,292.9 L272.7,292.6 L272.7,292.3 L272.7,291.9 L272.7,291.4 L272.7,290.6 L272.7,288.7 "
       id="path126"
       style="stroke:#000000;stroke-opacity:1;stroke-width:2.5;stroke-miterlimit:4;stroke-dasharray:none" />
  </g>
  <g
     style="fill:none; color:black; stroke:currentColor; stroke-width:1.00; stroke-linecap:butt; stroke-linejoin:miter"
     id="g128">
    <path
       d="M103.3,256.6 L103.3,426.0 L272.7,426.0 L272.7,256.6 L103.3,256.6 Z "
       id="path130" />
  </g>
</svg>
