<?xml version="1.0" encoding="UTF-8"?>
<svg xmlns="http://www.w3.org/2000/svg" xmlns:xlink="http://www.w3.org/1999/xlink" width="205pt" height="157pt" viewBox="0 0 205 157" version="1.1">
<g id="surface1">
<path style=" stroke:none;fill-rule:nonzero;fill:rgb(75%,75%,75%);fill-opacity:1;" d="M 1.5 154.902344 L 112.644531 154.902344 L 112.644531 43.753906 L 1.5 43.753906 Z "/>
<path style="fill:none;stroke-width:10;stroke-linecap:butt;stroke-linejoin:miter;stroke:rgb(0%,0%,0%);stroke-opacity:1;stroke-miterlimit:4;" d="M 15 25 L 1125 25 L 1125 1135 L 15 1135 Z " transform="matrix(0.1,0,0,-0.1,0,157)"/>
<path style=" stroke:none;fill-rule:nonzero;fill:rgb(75%,75%,75%);fill-opacity:1;" d="M 1.644531 43.410156 L 112.921875 43.410156 L 139.441406 3.371094 L 26.605469 3.371094 L 1.644531 43.410156 "/>
<path style="fill:none;stroke-width:10;stroke-linecap:butt;stroke-linejoin:miter;stroke:rgb(0%,0%,0%);stroke-opacity:1;stroke-miterlimit:4;" d="M 15 1135 L 1125 1135 L 1395 1535 L 265 1535 L 16.445312 1135.898438 Z " transform="matrix(0.1,0,0,-0.1,0,157)"/>
<path style=" stroke:none;fill-rule:nonzero;fill:rgb(75%,75%,75%);fill-opacity:1;" d="M 112.953125 43.65625 L 112.953125 154.414062 L 138.953125 107.613281 L 138.953125 4.65625 L 112.953125 43.65625 "/>
<path style="fill:none;stroke-width:10;stroke-linecap:butt;stroke-linejoin:miter;stroke:rgb(0%,0%,0%);stroke-opacity:1;stroke-miterlimit:4;" d="M 1125 1135 L 1125 25 L 1385 495 L 1385 1525 L 1129.53125 1133.4375 Z " transform="matrix(0.1,0,0,-0.1,0,157)"/>
<path style=" stroke:none;fill-rule:nonzero;fill:rgb(100%,100%,100%);fill-opacity:1;" d="M 126.054688 120.75 C 121.992188 120.75 118.699219 101.488281 118.699219 77.730469 C 118.699219 53.972656 121.992188 34.710938 126.054688 34.710938 C 130.113281 34.710938 133.40625 53.972656 133.40625 77.730469 C 133.40625 101.488281 130.113281 120.75 126.054688 120.75 "/>
<path style="fill:none;stroke-width:10;stroke-linecap:butt;stroke-linejoin:miter;stroke:rgb(0%,0%,0%);stroke-opacity:1;stroke-miterlimit:4;" d="M 1260.546875 362.5 C 1219.921875 362.5 1186.992188 555.117188 1186.992188 792.695312 C 1186.992188 1030.273438 1219.921875 1222.890625 1260.546875 1222.890625 C 1301.132812 1222.890625 1334.0625 1030.273438 1334.0625 792.695312 C 1334.0625 555.117188 1301.132812 362.5 1260.546875 362.5 Z " transform="matrix(0.1,0,0,-0.1,0,157)"/>
<path style="fill:none;stroke-width:10;stroke-linecap:butt;stroke-linejoin:miter;stroke:rgb(0%,0%,0%);stroke-opacity:1;stroke-miterlimit:4;" d="M 1355.46875 792.617188 C 1355.46875 961.132812 1325.820312 1097.773438 1289.257812 1097.773438 C 1252.734375 1097.773438 1223.085938 961.132812 1223.085938 792.617188 C 1223.085938 624.0625 1252.734375 487.421875 1285 485 L 1305 485 " transform="matrix(0.1,0,0,-0.1,0,157)"/>
<path style="fill:none;stroke-width:10;stroke-linecap:butt;stroke-linejoin:miter;stroke:rgb(0%,0%,0%);stroke-opacity:1;stroke-miterlimit:4;" d="M 1311.40625 487.421875 C 1347.929688 487.421875 1377.578125 624.0625 1377.578125 792.617188 C 1377.578125 961.132812 1347.929688 1097.773438 1311.40625 1097.773438 C 1274.84375 1097.773438 1245.195312 961.132812 1245.195312 792.617188 C 1245.195312 624.0625 1274.84375 487.421875 1311.40625 487.421875 Z " transform="matrix(0.1,0,0,-0.1,0,157)"/>
<path style="fill:none;stroke-width:10;stroke-linecap:butt;stroke-linejoin:miter;stroke:rgb(0%,0%,0%);stroke-opacity:1;stroke-miterlimit:4;" d="M 1333.515625 487.421875 C 1370.039062 487.421875 1399.6875 624.0625 1399.6875 792.617188 C 1399.6875 961.132812 1370.039062 1097.773438 1333.515625 1097.773438 C 1296.953125 1097.773438 1267.304688 961.132812 1267.304688 792.617188 C 1267.304688 624.0625 1296.953125 487.421875 1333.515625 487.421875 Z " transform="matrix(0.1,0,0,-0.1,0,157)"/>
<path style="fill:none;stroke-width:10;stroke-linecap:butt;stroke-linejoin:miter;stroke:rgb(0%,0%,0%);stroke-opacity:1;stroke-miterlimit:4;" d="M 1355.625 487.421875 C 1392.148438 487.421875 1421.796875 624.0625 1421.796875 792.617188 C 1421.796875 961.132812 1392.148438 1097.773438 1355.625 1097.773438 C 1319.0625 1097.773438 1289.414062 961.132812 1289.414062 792.617188 C 1289.414062 624.0625 1319.0625 487.421875 1355.625 487.421875 Z " transform="matrix(0.1,0,0,-0.1,0,157)"/>
<path style="fill:none;stroke-width:10;stroke-linecap:butt;stroke-linejoin:miter;stroke:rgb(0%,0%,0%);stroke-opacity:1;stroke-miterlimit:4;" d="M 1365.273438 1092.421875 C 1334.6875 1065.585938 1311.523438 941.5625 1311.523438 792.617188 C 1311.523438 624.0625 1341.171875 487.421875 1377.695312 487.421875 C 1414.257812 487.421875 1441.992188 624.0625 1443.90625 792.617188 C 1443.984375 799.101562 1545.351562 849.804688 1545.351562 849.804688 " transform="matrix(0.1,0,0,-0.1,0,157)"/>
<path style="fill:none;stroke-width:10;stroke-linecap:butt;stroke-linejoin:miter;stroke:rgb(0%,0%,0%);stroke-opacity:1;stroke-miterlimit:4;" d="M 1355.625 792.617188 C 1354.257812 762.070312 1443.984375 812.773438 1479.0625 830.3125 C 1514.179688 847.851562 1543.4375 873.203125 1543.4375 873.203125 " transform="matrix(0.1,0,0,-0.1,0,157)"/>
<path style="fill:none;stroke-width:10;stroke-linecap:butt;stroke-linejoin:miter;stroke:rgb(0%,0%,0%);stroke-opacity:1;stroke-miterlimit:4;" d="M 1350.585938 1259.648438 C 1350.585938 1428.164062 1320.9375 1564.804688 1284.414062 1564.804688 C 1247.851562 1564.804688 1218.203125 1428.164062 1218.203125 1259.648438 C 1218.203125 1091.09375 1247.851562 954.453125 1285 955 L 1305 955 " transform="matrix(0.1,0,0,-0.1,0,157)"/>
<path style="fill:none;stroke-width:10;stroke-linecap:butt;stroke-linejoin:miter;stroke:rgb(0%,0%,0%);stroke-opacity:1;stroke-miterlimit:4;" d="M 1306.523438 954.453125 C 1343.046875 954.453125 1372.695312 1091.09375 1372.695312 1259.648438 C 1372.695312 1428.164062 1343.046875 1564.804688 1306.523438 1564.804688 C 1269.960938 1564.804688 1240.3125 1428.164062 1240.3125 1259.648438 C 1240.3125 1091.09375 1269.960938 954.453125 1306.523438 954.453125 Z " transform="matrix(0.1,0,0,-0.1,0,157)"/>
<path style="fill:none;stroke-width:10;stroke-linecap:butt;stroke-linejoin:miter;stroke:rgb(0%,0%,0%);stroke-opacity:1;stroke-miterlimit:4;" d="M 1328.632812 954.453125 C 1365.15625 954.453125 1394.804688 1091.09375 1394.804688 1259.648438 C 1394.804688 1428.164062 1365.15625 1564.804688 1328.632812 1564.804688 C 1292.070312 1564.804688 1262.421875 1428.164062 1262.421875 1259.648438 C 1262.421875 1091.09375 1292.070312 954.453125 1328.632812 954.453125 Z " transform="matrix(0.1,0,0,-0.1,0,157)"/>
<path style="fill:none;stroke-width:10;stroke-linecap:butt;stroke-linejoin:miter;stroke:rgb(0%,0%,0%);stroke-opacity:1;stroke-miterlimit:4;" d="M 1350.742188 954.453125 C 1387.265625 954.453125 1416.914062 1091.09375 1416.914062 1259.648438 C 1416.914062 1428.164062 1387.265625 1564.804688 1350.742188 1564.804688 C 1314.179688 1564.804688 1284.53125 1428.164062 1284.53125 1259.648438 C 1284.53125 1091.09375 1314.179688 954.453125 1350.742188 954.453125 Z " transform="matrix(0.1,0,0,-0.1,0,157)"/>
<path style="fill:none;stroke-width:10;stroke-linecap:butt;stroke-linejoin:miter;stroke:rgb(0%,0%,0%);stroke-opacity:1;stroke-miterlimit:4;" d="M 1360.390625 1559.414062 C 1329.804688 1532.578125 1306.640625 1408.554688 1306.640625 1259.648438 C 1306.640625 1091.09375 1336.289062 954.453125 1372.851562 954.453125 C 1409.375 954.453125 1437.109375 1091.09375 1439.023438 1259.648438 C 1439.101562 1266.132812 1540.507812 1316.835938 1540.507812 1316.835938 " transform="matrix(0.1,0,0,-0.1,0,157)"/>
<path style="fill:none;stroke-width:10;stroke-linecap:butt;stroke-linejoin:miter;stroke:rgb(0%,0%,0%);stroke-opacity:1;stroke-miterlimit:4;" d="M 1350.742188 1259.648438 C 1349.414062 1229.0625 1439.101562 1279.765625 1474.21875 1297.34375 C 1509.296875 1314.882812 1538.554688 1340.234375 1538.554688 1340.234375 " transform="matrix(0.1,0,0,-0.1,0,157)"/>
<path style="fill:none;stroke-width:10;stroke-linecap:butt;stroke-linejoin:miter;stroke:rgb(0%,0%,0%);stroke-opacity:1;stroke-dasharray:20;stroke-miterlimit:4;" d="M 718.554688 696.71875 C 718.554688 865.273438 688.945312 1001.914062 652.382812 1001.914062 C 615.820312 1001.914062 586.210938 865.273438 586.210938 696.71875 C 586.210938 528.203125 615.820312 391.5625 655 395 L 675 395 " transform="matrix(0.1,0,0,-0.1,0,157)"/>
<path style="fill:none;stroke-width:10;stroke-linecap:butt;stroke-linejoin:miter;stroke:rgb(0%,0%,0%);stroke-opacity:1;stroke-dasharray:20;stroke-miterlimit:4;" d="M 674.492188 391.5625 C 711.054688 391.5625 740.703125 528.203125 740.703125 696.71875 C 740.703125 865.273438 711.054688 1001.914062 674.492188 1001.914062 C 637.929688 1001.914062 608.320312 865.273438 608.320312 696.71875 C 608.320312 528.203125 637.929688 391.5625 674.492188 391.5625 Z " transform="matrix(0.1,0,0,-0.1,0,157)"/>
<path style="fill:none;stroke-width:10;stroke-linecap:butt;stroke-linejoin:miter;stroke:rgb(0%,0%,0%);stroke-opacity:1;stroke-dasharray:20;stroke-miterlimit:4;" d="M 696.601562 391.5625 C 733.164062 391.5625 762.8125 528.203125 762.8125 696.71875 C 762.8125 865.273438 733.164062 1001.914062 696.601562 1001.914062 C 660.039062 1001.914062 630.429688 865.273438 630.429688 696.71875 C 630.429688 528.203125 660.039062 391.5625 696.601562 391.5625 Z " transform="matrix(0.1,0,0,-0.1,0,157)"/>
<path style="fill:none;stroke-width:10;stroke-linecap:butt;stroke-linejoin:miter;stroke:rgb(0%,0%,0%);stroke-opacity:1;stroke-dasharray:20;stroke-miterlimit:4;" d="M 718.710938 391.5625 C 755.273438 391.5625 784.882812 528.203125 784.882812 696.71875 C 784.882812 865.273438 755.273438 1001.914062 718.710938 1001.914062 C 682.1875 1001.914062 652.539062 865.273438 652.539062 696.71875 C 652.539062 528.203125 682.1875 391.5625 718.710938 391.5625 Z " transform="matrix(0.1,0,0,-0.1,0,157)"/>
<path style="fill:none;stroke-width:10;stroke-linecap:butt;stroke-linejoin:miter;stroke:rgb(0%,0%,0%);stroke-opacity:1;stroke-dasharray:20;stroke-miterlimit:4;" d="M 728.398438 996.523438 C 697.773438 969.6875 674.648438 845.664062 674.648438 696.71875 C 674.648438 528.203125 704.257812 391.5625 740.820312 391.5625 C 777.382812 391.5625 805.078125 528.203125 807.03125 696.71875 C 807.070312 703.242188 908.476562 753.945312 908.476562 753.945312 " transform="matrix(0.1,0,0,-0.1,0,157)"/>
<path style="fill:none;stroke-width:10;stroke-linecap:butt;stroke-linejoin:miter;stroke:rgb(0%,0%,0%);stroke-opacity:1;stroke-dasharray:20;stroke-miterlimit:4;" d="M 718.710938 696.71875 C 717.382812 666.171875 807.070312 716.875 842.1875 734.453125 C 877.265625 751.992188 906.523438 777.34375 906.523438 777.34375 " transform="matrix(0.1,0,0,-0.1,0,157)"/>
<path style="fill:none;stroke-width:10;stroke-linecap:butt;stroke-linejoin:miter;stroke:rgb(0%,0%,0%);stroke-opacity:1;stroke-miterlimit:4;" d="M 1853.632812 785.46875 C 1853.632812 954.023438 1824.023438 1090.664062 1787.460938 1090.664062 C 1750.898438 1090.664062 1721.289062 954.023438 1721.289062 785.46875 C 1721.289062 616.914062 1750.898438 480.273438 1785 485 L 1805 485 " transform="matrix(0.1,0,0,-0.1,0,157)"/>
<path style="fill:none;stroke-width:10;stroke-linecap:butt;stroke-linejoin:miter;stroke:rgb(0%,0%,0%);stroke-opacity:1;stroke-miterlimit:4;" d="M 1809.570312 480.273438 C 1846.132812 480.273438 1875.742188 616.914062 1875.742188 785.46875 C 1875.742188 954.023438 1846.132812 1090.664062 1809.570312 1090.664062 C 1773.007812 1090.664062 1743.398438 954.023438 1743.398438 785.46875 C 1743.398438 616.914062 1773.007812 480.273438 1809.570312 480.273438 Z " transform="matrix(0.1,0,0,-0.1,0,157)"/>
<path style="fill:none;stroke-width:10;stroke-linecap:butt;stroke-linejoin:miter;stroke:rgb(0%,0%,0%);stroke-opacity:1;stroke-miterlimit:4;" d="M 1831.679688 480.273438 C 1868.242188 480.273438 1897.851562 616.914062 1897.851562 785.46875 C 1897.851562 954.023438 1868.242188 1090.664062 1831.679688 1090.664062 C 1795.117188 1090.664062 1765.507812 954.023438 1765.507812 785.46875 C 1765.507812 616.914062 1795.117188 480.273438 1831.679688 480.273438 Z " transform="matrix(0.1,0,0,-0.1,0,157)"/>
<path style="fill:none;stroke-width:10;stroke-linecap:butt;stroke-linejoin:miter;stroke:rgb(0%,0%,0%);stroke-opacity:1;stroke-miterlimit:4;" d="M 1853.789062 480.273438 C 1890.351562 480.273438 1919.960938 616.914062 1919.960938 785.46875 C 1919.960938 954.023438 1890.351562 1090.664062 1853.789062 1090.664062 C 1817.226562 1090.664062 1787.617188 954.023438 1787.617188 785.46875 C 1787.617188 616.914062 1817.226562 480.273438 1853.789062 480.273438 Z " transform="matrix(0.1,0,0,-0.1,0,157)"/>
<path style="fill:none;stroke-width:10;stroke-linecap:butt;stroke-linejoin:miter;stroke:rgb(0%,0%,0%);stroke-opacity:1;stroke-miterlimit:4;" d="M 1863.4375 1085.273438 C 1832.851562 1058.4375 1809.726562 934.414062 1809.726562 785.46875 C 1809.726562 616.914062 1839.335938 480.273438 1875.898438 480.273438 C 1912.460938 480.273438 1940.15625 616.953125 1942.070312 785.46875 C 1942.148438 791.953125 2043.554688 842.65625 2043.554688 842.65625 " transform="matrix(0.1,0,0,-0.1,0,157)"/>
<path style="fill:none;stroke-width:10;stroke-linecap:butt;stroke-linejoin:miter;stroke:rgb(0%,0%,0%);stroke-opacity:1;stroke-miterlimit:4;" d="M 1853.789062 785.46875 C 1852.460938 754.921875 1942.148438 805.625 1977.265625 823.164062 C 2012.34375 840.703125 2041.601562 866.054688 2041.601562 866.054688 " transform="matrix(0.1,0,0,-0.1,0,157)"/>
</g>
</svg>
