<?xml version="1.0" encoding="UTF-8" standalone="no"?>
<!-- Generator: Adobe Illustrator 11 Build 196, SVG Export Plug-In . SVG Version: 6.0.0 Build 78)  -->

<svg
   xmlns:dc="http://purl.org/dc/elements/1.1/"
   xmlns:cc="http://creativecommons.org/ns#"
   xmlns:rdf="http://www.w3.org/1999/02/22-rdf-syntax-ns#"
   xmlns:svg="http://www.w3.org/2000/svg"
   xmlns="http://www.w3.org/2000/svg"
   xmlns:sodipodi="http://sodipodi.sourceforge.net/DTD/sodipodi-0.dtd"
   xmlns:inkscape="http://www.inkscape.org/namespaces/inkscape"
   width="94.786"
   height="72.33"
   viewBox="0 0 94.786 72.33"
   style="overflow:visible;enable-background:new 0 0 94.786 72.33"
   xml:space="preserve"
   id="svg2"
   version="1.1"
   sodipodi:docname="two-conductors.svg"
   inkscape:version="0.92.4 (5da689c313, 2019-01-14)"><metadata
   id="metadata103"><rdf:RDF><cc:Work
       rdf:about=""><dc:format>image/svg+xml</dc:format><dc:type
         rdf:resource="http://purl.org/dc/dcmitype/StillImage" /><dc:title /></cc:Work></rdf:RDF></metadata><defs
   id="defs101"><marker
   inkscape:stockid="Arrow2Mend"
   orient="auto"
   refY="0.0"
   refX="0.0"
   id="Arrow2Mend"
   style="overflow:visible;"><path
     id="path7089"
     style="fill-rule:evenodd;stroke-width:0.62500000;stroke-linejoin:round;"
     d="M 8.7185878,4.0337352 L -2.2072895,0.016013256 L 8.7185884,-4.0017078 C 6.9730900,-1.6296469 6.9831476,1.6157441 8.7185878,4.0337352 z "
     transform="scale(0.6) rotate(180) translate(0,0)" /></marker>
		
	
			
			 
		
				
				
				
				
				
				
				
				
				
				
				
				
				
				
				
			</defs><sodipodi:namedview
   pagecolor="#ffffff"
   bordercolor="#666666"
   borderopacity="1"
   objecttolerance="10"
   gridtolerance="10"
   guidetolerance="10"
   inkscape:pageopacity="0"
   inkscape:pageshadow="2"
   inkscape:window-width="1280"
   inkscape:window-height="998"
   id="namedview99"
   showgrid="false"
   inkscape:zoom="3.8075176"
   inkscape:cx="-212.15788"
   inkscape:cy="99.856434"
   inkscape:window-x="0"
   inkscape:window-y="0"
   inkscape:window-maximized="1"
   inkscape:current-layer="svg2"
   inkscape:snap-global="false" />
	<style
   type="text/css"
   id="style4">
	
	</style>
	






<path
   style="color:#000000;display:inline;overflow:visible;visibility:visible;fill:#ffffff;fill-opacity:1;stroke:#6f6f6f;stroke-width:1.18266667;stroke-miterlimit:4;stroke-dasharray:none;stroke-opacity:1;marker:none;enable-background:accumulate"
   d="M -268.7793 -65.789062 C -270.05306 -65.760405 -271.40331 -65.571681 -272.88867 -65.173828 C -280.08079 -63.244439 -287.02712 -47.503759 -282.5918 -30.929688 C -282.5908 -30.925187 -282.58889 -30.920246 -282.58789 -30.916016 C -281.68549 -27.552464 -280.38923 -24.45853 -278.84375 -21.669922 L -278.84375 52.955078 L -277.76367 52.955078 L -275.62891 52.955078 L -244.68945 52.955078 L -244.68945 49.279297 L -275.62891 49.279297 L -275.62891 -16.771484 C -269.65695 -8.9496983 -261.86647 -4.8113458 -257.05859 -6.0996094 C -249.13263 -8.2233694 -247.57657 -13.573681 -240.30469 -20.208984 C -231.11646 -28.592856 -226.06111 -30.821137 -224.27539 -32.486328 C -220.80995 -35.717847 -219.54979 -38.435248 -219.01172 -40.306641 C -218.49094 -42.11789 -218.70788 -44.337839 -218.97656 -45.664062 C -219.24529 -46.990287 -219.48438 -47.933594 -219.48438 -47.933594 L -219.49805 -47.929688 C -219.56985 -48.189096 -219.76907 -48.890224 -220.125 -49.951172 C -220.55538 -51.234082 -221.47735 -53.266026 -222.83398 -54.574219 C -224.23566 -55.925867 -226.68581 -57.648983 -231.30273 -58.714844 C -233.68181 -59.264084 -239.1731 -58.665507 -251.32227 -61.332031 C -259.13469 -63.046717 -263.25728 -65.913297 -268.7793 -65.789062 z "
   id="path3507-3" /><path
   style="fill:#ffffff;fill-opacity:1;stroke:#6f6f6f;stroke-width:1.18266667;stroke-miterlimit:4;stroke-dasharray:none;stroke-dashoffset:0;stroke-opacity:1"
   d="M -179.29297 -85.851562 A 17.237047 5.4845147 0 0 0 -196.51758 -80.484375 L -196.65234 -80.480469 L -196.3418 -78.484375 L -196.79102 -79.923828 C -194.98197 -70.043658 -195.53751 -59.190146 -190.94531 -44.996094 C -190.03589 -40.838763 -178.60548 -19.001719 -177.03906 -16.019531 L -176.61133 -15.076172 C -176.61133 -15.076172 -176.54702 -15.074319 -176.54492 -15.074219 C -176.54292 -15.070719 -176.47461 -14.9375 -176.47461 -14.9375 L -176.51562 -15.072266 C -176.51263 -15.0721 -176.45091 -15.068659 -176.44531 -15.068359 L -176.47461 -14.9375 L -176.25391 -15.021484 A 5.4845147 17.237047 70.4774 0 0 -176.21289 -14.798828 A 5.4845147 17.237047 70.4774 0 0 -158.13281 -15.388672 A 5.4845147 17.237047 70.4774 0 0 -158.02734 -15.427734 L -158.02734 51.246094 L -195.48633 51.246094 L -195.48633 54.921875 L -158.02734 54.921875 L -154.60156 54.921875 L -154.35156 54.921875 L -154.35156 -16.902344 A 5.4845147 17.237047 70.4774 0 0 -143.7207 -26.320312 A 5.4845147 17.237047 70.4774 0 0 -144.41992 -27.220703 C -144.93371 -28.198999 -161.59089 -60.062702 -162.00195 -80.341797 L -162.48242 -78.167969 L -162.50781 -79.150391 A 17.237047 5.4845147 0 0 0 -162.05664 -80.367188 A 17.237047 5.4845147 0 0 0 -179.29297 -85.851562 z "
   id="path892" /><path
   style="fill:none;fill-opacity:1;stroke:#000000;stroke-width:1.18266666;stroke-miterlimit:4;stroke-dasharray:none;stroke-dashoffset:0;stroke-opacity:1"
   d="m -255.41606,-14.033701 c 26.18474,25.265977 79.93237,0.918763 79.93237,0.918763"
   id="path930"
   inkscape:connector-curvature="0" /><path
   style="fill:none;fill-opacity:1;stroke:#000000;stroke-width:1.18266666;stroke-miterlimit:4;stroke-dasharray:none;stroke-dashoffset:0;stroke-opacity:1"
   d="m -267.35997,-14.493082 c -2.75629,16.9971117 22.0503,29.400409 41.8037,26.644121 19.7534,-2.7562884 56.9633,-24.806595 56.9633,-24.806595"
   id="path932"
   inkscape:connector-curvature="0" /><path
   style="fill:none;fill-opacity:1;stroke:#000000;stroke-width:1.18266666;stroke-miterlimit:4;stroke-dasharray:none;stroke-dashoffset:0;stroke-opacity:1"
   d="m -257.25358,-33.327719 c 13.32206,-36.750512 62.01649,-47.775665 62.01649,-47.775665"
   id="path934"
   inkscape:connector-curvature="0" /><path
   style="fill:none;fill-opacity:1;stroke:#000000;stroke-width:1.18266666;stroke-miterlimit:4;stroke-dasharray:none;stroke-dashoffset:0;stroke-opacity:1"
   d="m -270.11626,-59.053077 c 9.64701,-34.912986 80.39174,-26.18474 80.39174,-26.18474"
   id="path936"
   inkscape:connector-curvature="0" /><path
   style="fill:none;fill-opacity:1;stroke:#000000;stroke-width:1.18266666;stroke-miterlimit:4;stroke-dasharray:none;stroke-dashoffset:0;stroke-opacity:1"
   d="m -219.58431,-43.43411 c 15.15959,4.134433 28.48165,-0.459381 28.48165,-0.459381"
   id="path938"
   inkscape:connector-curvature="0" /><path
   style="fill:none;fill-opacity:1;stroke:#000000;stroke-width:1.183;stroke-miterlimit:4;stroke-dasharray:none;stroke-dashoffset:0;stroke-opacity:1"
   d="m -284.81647,-44.812254 c -17.91587,-17.915874 9.64701,-62.475866 34.45361,-66.610306 24.80659,-4.13443 72.58226,1.37815 78.09484,11.02516 5.51257,9.647006 5.51257,15.618965 5.51257,15.618965"
   id="path940"
   inkscape:connector-curvature="0" /><path
   style="fill:#000000;fill-opacity:1;stroke:none;stroke-width:1.18266666;stroke-miterlimit:4;stroke-dasharray:none;stroke-dashoffset:0;stroke-opacity:1"
   d="m -231.46232,-115.16351 8.72824,2.29691 -7.80948,3.21567 z"
   id="path942"
   inkscape:connector-curvature="0" /><path
   style="overflow:visible;fill:#000000;fill-opacity:1;stroke:none;stroke-width:1.18266666;stroke-miterlimit:4;stroke-dasharray:none;stroke-dashoffset:0;stroke-opacity:1"
   d="m -229.06658,-88.124955 8.72824,2.29691 -7.80948,3.21567 z"
   id="path942-7"
   inkscape:connector-curvature="0" /><path
   style="overflow:visible;fill:#000000;fill-opacity:1;stroke:none;stroke-width:1.18266666;stroke-miterlimit:4;stroke-dasharray:none;stroke-dashoffset:0;stroke-opacity:1"
   d="m -225.15396,-72.182856 8.90315,-1.480468 -5.80665,6.132811 z"
   id="path942-5"
   inkscape:connector-curvature="0" /><path
   style="overflow:visible;fill:#000000;fill-opacity:1;stroke:none;stroke-width:1.18266666;stroke-miterlimit:4;stroke-dasharray:none;stroke-dashoffset:0;stroke-opacity:1"
   d="m -208.76679,-44.300613 8.71853,2.333483 -7.82289,3.182901 z"
   id="path942-3"
   inkscape:connector-curvature="0" /><path
   style="overflow:visible;fill:#000000;fill-opacity:1;stroke:none;stroke-width:1.18266666;stroke-miterlimit:4;stroke-dasharray:none;stroke-dashoffset:0;stroke-opacity:1"
   d="m -224.94606,-7.392743 8.43679,3.2060245 -8.10546,2.372764 z"
   id="path942-56"
   inkscape:connector-curvature="0" /><path
   style="overflow:visible;fill:#000000;fill-opacity:1;stroke:none;stroke-width:1.18266666;stroke-miterlimit:4;stroke-dasharray:none;stroke-dashoffset:0;stroke-opacity:1"
   d="m -225.31222,9.1442427 8.96467,1.0453643 -7.27904,4.282988 z"
   id="path942-2"
   inkscape:connector-curvature="0" /><path
   style="fill:#000000;fill-opacity:1;stroke:none;stroke-width:1.21392977;stroke-miterlimit:4;stroke-dasharray:none;stroke-dashoffset:0;stroke-opacity:1"
   d="m -237.02628,63.529297 c -2.32356,0 -4.19575,-1.77503 -4.19575,-3.98047 v -1.99023 h -0.88277 c -2.32357,0 -4.19369,-1.77504 -4.19369,-3.98047 v -3.35352 c 0,-2.20543 1.87012,-3.98047 4.19369,-3.98047 h 0.88277 v -1.99023 c 0,-2.20544 1.87219,-3.98047 4.19575,-3.98047 h 38.18772 c 2.32359,0 4.19575,1.77503 4.19575,3.98047 v 15.29492 c 0,2.20544 -1.87216,3.98047 -4.19575,3.98047 z"
   id="rect994"
   inkscape:connector-curvature="0" /><path
   style="fill:none;fill-opacity:1;stroke:#000000;stroke-width:1.18266666;stroke-miterlimit:4;stroke-dasharray:none;stroke-dashoffset:0;stroke-opacity:1"
   d="M -270.82724,48.032591 C -272.01248,23.73518 -158.8221,16.623742 -158.8221,16.623742"
   id="path999"
   inkscape:connector-curvature="0" /><path
   style="overflow:visible;fill:#000000;fill-opacity:1;stroke:none;stroke-width:1.18266666;stroke-miterlimit:4;stroke-dasharray:none;stroke-dashoffset:0;stroke-opacity:1"
   d="m -213.4947,19.898302 8.92941,1.312868 -7.40382,4.063491 z"
   id="path942-9"
   inkscape:connector-curvature="0" /></svg>