<?xml version="1.0" encoding="UTF-8" standalone="no"?>
<!-- Created with Inkscape (http://www.inkscape.org/) -->
<svg
   xmlns:dc="http://purl.org/dc/elements/1.1/"
   xmlns:cc="http://web.resource.org/cc/"
   xmlns:rdf="http://www.w3.org/1999/02/22-rdf-syntax-ns#"
   xmlns:svg="http://www.w3.org/2000/svg"
   xmlns="http://www.w3.org/2000/svg"
   xmlns:sodipodi="http://sodipodi.sourceforge.net/DTD/sodipodi-0.dtd"
   xmlns:inkscape="http://www.inkscape.org/namespaces/inkscape"
   width="744.09448819"
   height="1052.3622047"
   id="svg2"
   sodipodi:version="0.32"
   sodipodi:modified="true">
  <defs
     id="defs4" />
  <sodipodi:namedview
     id="base"
     pagecolor="#ffffff"
     bordercolor="#666666"
     borderopacity="1.0"
     gridtolerance="10000"
     guidetolerance="10"
     objecttolerance="10"
     inkscape:pageopacity="0.0"
     inkscape:pageshadow="2"
     inkscape:zoom="0.51843437"
     inkscape:cx="333.53285"
     inkscape:cy="697.27121"
     inkscape:document-units="px"
     inkscape:current-layer="layer1"
     inkscape:window-width="822"
     inkscape:window-height="590"
     inkscape:window-x="150"
     inkscape:window-y="260" />
  <metadata
     id="metadata7">
    <rdf:RDF>
      <cc:Work
         rdf:about="">
        <dc:format>image/svg+xml</dc:format>
        <dc:type
           rdf:resource="http://purl.org/dc/dcmitype/StillImage" />
      </cc:Work>
    </rdf:RDF>
  </metadata>
  <g
     inkscape:label="Layer 1"
     inkscape:groupmode="layer"
     id="layer1">
    <rect
       style="fill:#a6a6a6;fill-opacity:1;fill-rule:evenodd;stroke:#000000;stroke-width:0.55378485pt;stroke-linecap:butt;stroke-linejoin:miter;stroke-opacity:1"
       id="rect2160"
       width="164.55322"
       height="123.41492"
       x="216.86397"
       y="260.65475" />
    <g
       id="g3137"
       transform="translate(11.206333,0)">
      <rect
         y="298.33069"
         x="263.78406"
         height="48.063034"
         width="6.264092"
         id="rect3133"
         style="fill:#000000;fill-opacity:1;fill-rule:evenodd;stroke:#000000;stroke-width:0.7657485pt;stroke-linecap:butt;stroke-linejoin:miter;stroke-opacity:1" />
      <rect
         y="298.33069"
         x="305.82034"
         height="48.063034"
         width="6.264092"
         id="rect3135"
         style="fill:#000000;fill-opacity:1;fill-rule:evenodd;stroke:#000000;stroke-width:0.7657485pt;stroke-linecap:butt;stroke-linejoin:miter;stroke-opacity:1" />
    </g>
    <path
       style="fill:none;fill-opacity:0.75;fill-rule:evenodd;stroke:#000000;stroke-width:1.25;stroke-linecap:butt;stroke-linejoin:miter;stroke-miterlimit:4;stroke-dasharray:none;stroke-opacity:1"
       d="M 291.39834,175.77866 L 291.39834,213.99484"
       id="path3141" />
    <path
       style="fill:none;fill-opacity:0.75;fill-rule:evenodd;stroke:#000000;stroke-width:1.25;stroke-linecap:butt;stroke-linejoin:miter;stroke-opacity:1;stroke-miterlimit:4;stroke-dasharray:none"
       d="M 302.14664,185.3327 L 302.14664,204.44079"
       id="path3145" />
    <path
       style="fill:none;fill-opacity:0.75;fill-rule:evenodd;stroke:#000000;stroke-width:1pt;stroke-linecap:butt;stroke-linejoin:miter;stroke-opacity:1"
       d="M 289.00983,194.88675 C 282.75821,196.79859 257.95447,200.61965 243.62812,202.05228 C 227.47972,203.66712 225.38555,211.31782 210.18896,216.38335 C 203.7454,218.5312 187.51742,240.19121 186.30385,245.04548 C 183.62124,255.77593 180.33258,264.49276 180.33258,277.29038 C 180.33258,285.50791 182.886,295.026 187.49811,301.17549 C 192.86712,308.33417 199.03816,312.91679 206.6062,316.70081 C 213.96392,320.37967 216.56903,321.47783 225.71429,321.47783 C 233.06547,321.47783 238.95525,320.28357 246.01663,320.28357 C 251.49565,320.28357 258.00186,319.08932 263.93046,319.08932 C 267.51323,319.08932 271.09599,319.08932 274.67876,319.08932"
       id="path3149" />
    <path
       style="fill:none;fill-opacity:0.75;fill-rule:evenodd;stroke:#000000;stroke-width:1pt;stroke-linecap:butt;stroke-linejoin:miter;stroke-opacity:1"
       d="M 303.34089,192.49824 C 307.4973,192.49824 318.30319,193.69249 326.03175,193.69249 C 334.45063,193.69249 343.48724,194.88675 352.30537,194.88675 C 357.75386,194.88675 365.05492,198.3727 370.2192,199.66377 C 376.85532,201.3228 382.54526,205.8268 389.32729,209.21781 C 397.12254,213.11544 404.19344,220.28148 408.43537,225.93739 C 414.75578,234.36459 415.60091,245.1581 415.60091,255.79378 C 415.60091,269.05246 416.09095,280.44482 419.18367,292.8157 C 420.86645,299.5468 420.77058,307.96468 419.18367,314.3123 C 417.1444,322.46939 408.62564,324.96546 403.65835,327.44911 C 397.81925,330.36866 388.95626,327.65491 383.35601,326.25485 C 376.89777,324.64029 368.60808,323.86634 361.85941,323.86634 C 355.09196,323.86634 348.32451,323.86634 341.55707,323.86634 C 335.58579,323.86634 329.61451,323.86634 323.64324,323.86634 C 323.08026,323.86634 322.84706,324.66251 322.44898,325.0606"
       id="path3151" />
    <text
       xml:space="preserve"
       style="font-size:12px;font-style:normal;font-variant:normal;font-weight:normal;font-stretch:normal;text-align:start;line-height:125%;writing-mode:lr-tb;text-anchor:start;fill:#000000;fill-opacity:1;stroke:none;stroke-width:1pt;stroke-linecap:butt;stroke-linejoin:miter;stroke-opacity:1;font-family:Bitstream Vera Sans"
       x="283.03854"
       y="227.13165"
       id="text3153"
       sodipodi:linespacing="125%"><tspan
         sodipodi:role="line"
         id="tspan3155"
         x="283.03854"
         y="227.13165">8 V</tspan></text>
    <path
       sodipodi:type="arc"
       style="fill:none;fill-opacity:0.75;fill-rule:evenodd;stroke:#000000;stroke-width:1pt;stroke-linecap:butt;stroke-linejoin:miter;stroke-opacity:1"
       id="path3157"
       sodipodi:cx="164.21013"
       sodipodi:cy="436.72348"
       sodipodi:rx="18.51096"
       sodipodi:ry="18.51096"
       d="M 182.72109 436.72348 A 18.51096 18.51096 0 1 1  145.69917,436.72348 A 18.51096 18.51096 0 1 1  182.72109 436.72348 z" />
    <path
       style="fill:none;fill-opacity:0.75;fill-rule:evenodd;stroke:#000000;stroke-width:1pt;stroke-linecap:butt;stroke-linejoin:miter;stroke-opacity:1"
       d="M 198.24641,311.92379 C 198.32666,318.1694 187.98647,326.4724 183.91534,334.61464 C 179.42656,343.59221 171.69009,349.72073 166.00151,357.30549 C 160.94786,364.04369 160.20369,373.67815 156.44747,381.1906 C 152.88535,388.31483 150.03121,393.71882 148.08768,401.49295 C 146.56853,407.56952 148.8814,413.82869 150.47619,417.01827 C 151.79647,419.65883 151.2174,417.38887 152.8647,418.21252"
       id="path3159" />
    <path
       style="fill:none;fill-opacity:0.75;fill-rule:evenodd;stroke:#000000;stroke-width:1pt;stroke-linecap:butt;stroke-linejoin:miter;stroke-opacity:1"
       d="M 182.25085,449.14841 C 185.62479,456.25639 196.96225,461.25229 207.03165,463.98978 C 217.77144,466.90954 234.39133,467.24932 245.23983,464.77196 C 256.25714,462.25605 265.23931,458.42803 275.30993,454.63698 C 282.72176,451.84684 284.65391,444.90049 287.56775,439.35935 C 290.72162,433.36171 293.00854,427.66193 295.07398,422.78993 C 297.20972,417.75216 297.71019,410.71508 297.82864,404.92874 C 297.90481,401.20755 302.68135,395.70049 304.0431,393.11091 C 306.24954,388.91496 306.63295,383.30006 306.74886,377.63771 C 306.83686,373.33903 303.4877,368.56105 302.26616,363.21188 C 301.56203,360.12847 301.19257,357.30499 301.26769,353.63539"
       id="path3161" />
    <text
       xml:space="preserve"
       style="font-size:14px;font-style:normal;font-variant:normal;font-weight:normal;font-stretch:normal;text-align:start;line-height:100%;writing-mode:lr-tb;text-anchor:start;fill:#000000;fill-opacity:1;stroke:none;stroke-width:1pt;stroke-linecap:butt;stroke-linejoin:miter;stroke-opacity:1;font-family:Bitstream Vera Sans"
       x="160.03024"
       y="444.48618"
       id="text3163"
       sodipodi:linespacing="100%"><tspan
         sodipodi:role="line"
         id="tspan3165"
         x="160.03024"
         y="444.48618">V</tspan></text>
  </g>
</svg>
