<?xml version="1.0" encoding="UTF-8"?>
<svg xmlns="http://www.w3.org/2000/svg" xmlns:xlink="http://www.w3.org/1999/xlink" width="171pt" height="33pt" viewBox="0 0 171 33" version="1.1">
<g id="surface1">
<path style="fill:none;stroke-width:10;stroke-linecap:butt;stroke-linejoin:miter;stroke:rgb(0%,0%,0%);stroke-opacity:1;stroke-miterlimit:4;" d="M 346.40625 318.984375 L 325 245 L 325 215 L 45 215 L 115 215 " transform="matrix(0.1,0,0,-0.1,0,33)"/>
<path style="fill:none;stroke-width:10;stroke-linecap:butt;stroke-linejoin:miter;stroke:rgb(0%,0%,0%);stroke-opacity:1;stroke-miterlimit:4;" d="M 1455 235 L 1635 235 L 1635 115 " transform="matrix(0.1,0,0,-0.1,0,33)"/>
<path style="fill:none;stroke-width:10;stroke-linecap:butt;stroke-linejoin:miter;stroke:rgb(0%,0%,0%);stroke-opacity:1;stroke-miterlimit:4;" d="M 1635 225 L 1635 35 " transform="matrix(0.1,0,0,-0.1,0,33)"/>
<path style="fill:none;stroke-width:10;stroke-linecap:butt;stroke-linejoin:miter;stroke:rgb(0%,0%,0%);stroke-opacity:1;stroke-miterlimit:4;" d="M 95 35 L 55 35 L 1635 35 " transform="matrix(0.1,0,0,-0.1,0,33)"/>
<path style="fill:none;stroke-width:10;stroke-linecap:butt;stroke-linejoin:miter;stroke:rgb(0%,0%,0%);stroke-opacity:1;stroke-miterlimit:4;" d="M 391.40625 163.125 L 346.40625 318.984375 " transform="matrix(0.1,0,0,-0.1,0,33)"/>
<path style="fill:none;stroke-width:10;stroke-linecap:butt;stroke-linejoin:miter;stroke:rgb(0%,0%,0%);stroke-opacity:1;stroke-miterlimit:4;" d="M 436.875 318.984375 L 391.875 163.125 " transform="matrix(0.1,0,0,-0.1,0,33)"/>
<path style="fill:none;stroke-width:10;stroke-linecap:butt;stroke-linejoin:miter;stroke:rgb(0%,0%,0%);stroke-opacity:1;stroke-miterlimit:4;" d="M 482.578125 163.125 L 437.578125 318.984375 " transform="matrix(0.1,0,0,-0.1,0,33)"/>
<path style="fill:none;stroke-width:10;stroke-linecap:butt;stroke-linejoin:miter;stroke:rgb(0%,0%,0%);stroke-opacity:1;stroke-miterlimit:4;" d="M 528.046875 318.984375 L 483.046875 163.125 " transform="matrix(0.1,0,0,-0.1,0,33)"/>
<path style="fill:none;stroke-width:10;stroke-linecap:butt;stroke-linejoin:miter;stroke:rgb(0%,0%,0%);stroke-opacity:1;stroke-miterlimit:4;" d="M 573.75 163.125 L 528.75 318.984375 " transform="matrix(0.1,0,0,-0.1,0,33)"/>
<path style="fill:none;stroke-width:10;stroke-linecap:butt;stroke-linejoin:miter;stroke:rgb(0%,0%,0%);stroke-opacity:1;stroke-miterlimit:4;" d="M 574.6875 163.125 L 595 245 L 785 245 " transform="matrix(0.1,0,0,-0.1,0,33)"/>
<path style="fill:none;stroke-width:10;stroke-linecap:butt;stroke-linejoin:miter;stroke:rgb(0%,0%,0%);stroke-opacity:1;stroke-miterlimit:4;" d="M 1405 315 L 1405 165 " transform="matrix(0.1,0,0,-0.1,0,33)"/>
<path style="fill:none;stroke-width:10;stroke-linecap:butt;stroke-linejoin:miter;stroke:rgb(0%,0%,0%);stroke-opacity:1;stroke-miterlimit:4;" d="M 1455 315 L 1455 165 " transform="matrix(0.1,0,0,-0.1,0,33)"/>
<path style="fill:none;stroke-width:10;stroke-linecap:butt;stroke-linejoin:miter;stroke:rgb(0%,0%,0%);stroke-opacity:1;stroke-miterlimit:1;" d="M 816.914062 303.359375 C 939.765625 303.359375 909.570312 178.75 844.765625 178.75 C 779.960938 178.75 758.59375 303.359375 878.085938 303.359375 " transform="matrix(0.1,0,0,-0.1,0,33)"/>
<path style="fill:none;stroke-width:10;stroke-linecap:butt;stroke-linejoin:miter;stroke:rgb(0%,0%,0%);stroke-opacity:1;stroke-miterlimit:1;" d="M 878.125 303.359375 C 1000.976562 303.359375 970.78125 178.75 905.976562 178.75 C 841.171875 178.75 819.804688 303.359375 939.296875 303.359375 " transform="matrix(0.1,0,0,-0.1,0,33)"/>
<path style="fill:none;stroke-width:10;stroke-linecap:butt;stroke-linejoin:miter;stroke:rgb(0%,0%,0%);stroke-opacity:1;stroke-miterlimit:1;" d="M 939.335938 303.359375 C 1062.226562 303.359375 1032.03125 178.75 967.226562 178.75 C 902.421875 178.75 881.054688 303.359375 1000.546875 303.359375 " transform="matrix(0.1,0,0,-0.1,0,33)"/>
<path style="fill:none;stroke-width:10;stroke-linecap:butt;stroke-linejoin:miter;stroke:rgb(0%,0%,0%);stroke-opacity:1;stroke-miterlimit:1;" d="M 1000.585938 303.359375 C 1123.4375 303.359375 1093.242188 178.75 1028.4375 178.75 C 963.632812 178.75 942.265625 303.359375 1061.757812 303.359375 " transform="matrix(0.1,0,0,-0.1,0,33)"/>
<path style="fill:none;stroke-width:10;stroke-linecap:butt;stroke-linejoin:miter;stroke:rgb(0%,0%,0%);stroke-opacity:1;stroke-miterlimit:1;" d="M 1061.796875 303.359375 C 1184.6875 303.359375 1154.453125 178.75 1089.6875 178.75 C 1024.84375 178.75 1003.515625 303.359375 1123.007812 303.359375 " transform="matrix(0.1,0,0,-0.1,0,33)"/>
<path style="fill:none;stroke-width:10;stroke-linecap:butt;stroke-linejoin:miter;stroke:rgb(0%,0%,0%);stroke-opacity:1;stroke-miterlimit:4;" d="M 1155 235 L 1405 235 " transform="matrix(0.1,0,0,-0.1,0,33)"/>
<path style=" stroke:none;fill-rule:nonzero;fill:rgb(100%,100%,100%);fill-opacity:1;" d="M 12.019531 31.710938 C 18.269531 31.710938 23.335938 26.648438 23.335938 20.398438 C 23.335938 14.152344 18.269531 9.085938 12.019531 9.085938 C 5.773438 9.085938 0.707031 14.152344 0.707031 20.398438 C 0.707031 26.648438 5.773438 31.710938 12.019531 31.710938 "/>
<path style="fill:none;stroke-width:10;stroke-linecap:butt;stroke-linejoin:miter;stroke:rgb(0%,0%,0%);stroke-opacity:1;stroke-miterlimit:4;" d="M 120.195312 12.890625 C 182.695312 12.890625 233.359375 63.515625 233.359375 126.015625 C 233.359375 188.476562 182.695312 239.140625 120.195312 239.140625 C 57.734375 239.140625 7.070312 188.476562 7.070312 126.015625 C 7.070312 63.515625 57.734375 12.890625 120.195312 12.890625 Z " transform="matrix(0.1,0,0,-0.1,0,33)"/>
<path style="fill-rule:nonzero;fill:rgb(100%,100%,100%);fill-opacity:1;stroke-width:10;stroke-linecap:butt;stroke-linejoin:miter;stroke:rgb(0%,0%,0%);stroke-opacity:1;stroke-miterlimit:4;" d="M 70.820312 120.390625 C 125.820312 290.390625 125.820312 -9.609375 180.820312 110.390625 " transform="matrix(0.1,0,0,-0.1,0,33)"/>
</g>
</svg>
