<?xml version="1.0" encoding="UTF-8" standalone="no"?>
<!-- Generator: Adobe Illustrator 11 Build 196, SVG Export Plug-In . SVG Version: 6.0.0 Build 78)  -->

<svg
   xmlns:dc="http://purl.org/dc/elements/1.1/"
   xmlns:cc="http://creativecommons.org/ns#"
   xmlns:rdf="http://www.w3.org/1999/02/22-rdf-syntax-ns#"
   xmlns:svg="http://www.w3.org/2000/svg"
   xmlns="http://www.w3.org/2000/svg"
   xmlns:sodipodi="http://sodipodi.sourceforge.net/DTD/sodipodi-0.dtd"
   xmlns:inkscape="http://www.inkscape.org/namespaces/inkscape"
   width="147.402"
   height="390.47"
   viewBox="0 0 147.402 390.47"
   style="overflow:visible;enable-background:new 0 0 147.402 390.47"
   xml:space="preserve"
   id="svg2"
   sodipodi:version="0.32"
   sodipodi:docname="em-mea-covid-basic-circuit-open-and-short.svg"
   version="1.1"
   inkscape:version="0.92.4 (5da689c313, 2019-01-14)"><metadata
   id="metadata79"><rdf:RDF><cc:Work
       rdf:about=""><dc:format>image/svg+xml</dc:format><dc:type
         rdf:resource="http://purl.org/dc/dcmitype/StillImage" /></cc:Work></rdf:RDF></metadata><defs
   id="defs198">
			
			
			 
			
			
				
			 
			
			
			
			
			
			
				
			 
			
			
			
			
			
			
			 
		
				
					 
				
				
				
					
				
				
				
				
				
				
				
				
				
				
				
				
			
				
					
				
				
				
				
				
					 
				
				
				
				
				
				
					
				
			




</defs><sodipodi:namedview
   inkscape:cy="125.49734"
   inkscape:cx="33.077419"
   inkscape:zoom="2.3346112"
   inkscape:window-height="996"
   inkscape:window-width="1278"
   inkscape:pageshadow="2"
   inkscape:pageopacity="0.0"
   borderopacity="1.0"
   bordercolor="#666666"
   pagecolor="#ffffff"
   id="base"
   inkscape:window-x="0"
   inkscape:window-y="0"
   inkscape:current-layer="svg2"
   showgrid="false"
   inkscape:window-maximized="0"
   inkscape:snap-global="false" />

	






























<g
   id="g869"><line
     style="fill:none;stroke:#000000;stroke-width:0.87000072;stroke-miterlimit:1"
     x1="-9.442275"
     y1="298.64572"
     x2="-9.442275"
     y2="288.64069"
     id="line75" /><circle
     transform="matrix(0,-1.7400013,-1.7400013,0,592.12315,409.07838)"
     style="fill:none;stroke:#000000;stroke-width:0.5;stroke-miterlimit:1"
     cx="83.556999"
     cy="339.539"
     r="7.7779999"
     id="circle77"
     sodipodi:cx="83.556999"
     sodipodi:cy="339.539"
     sodipodi:rx="7.7779999"
     sodipodi:ry="7.7779999"
     d="m 91.334999,339.539 c 0,4.29567 -3.482329,7.778 -7.778,7.778 -4.295671,0 -7.778,-3.48233 -7.778,-7.778 0,-4.29567 3.482329,-7.778 7.778,-7.778 4.295671,0 7.778,3.48233 7.778,7.778 z" /><path
     inkscape:connector-curvature="0"
     style="fill:none;stroke:#000000;stroke-width:0.87000072;stroke-miterlimit:1"
     d="m -9.4057473,289.20968 c 0,-33.93002 14.7900135,-31.02944 14.7900135,-25.5206 0,5.51059 -15.0805908,8.70001 -15.0805908,-27.54944 l 0.14442,-6.44148 -15.6600154,0"
     id="path79" /><line
     style="fill:none;stroke:#000000;stroke-width:0.87000072;stroke-miterlimit:1"
     x1="-69.025162"
     y1="265.28467"
     x2="-81.205147"
     y2="265.28467"
     id="line81" /><line
     style="fill:none;stroke:#000000;stroke-width:0.87000072;stroke-miterlimit:1"
     x1="-62.935169"
     y1="260.06467"
     x2="-87.295189"
     y2="260.06467"
     id="line83" /><polyline
     transform="matrix(0,-1.7400013,-1.7400013,0,592.12315,409.07838)"
     style="fill:none;stroke:#000000;stroke-width:0.5;stroke-miterlimit:1"
     points="103.092,373.914 103.092,383.47      85.592,383.47 "
     id="polyline85" /><polyline
     transform="matrix(0,-1.7400013,-1.7400013,0,592.12315,409.07838)"
     style="fill:none;stroke:#000000;stroke-width:0.5;stroke-miterlimit:1"
     points="82.092,383.47 63.842,383.47      63.842,354.456 "
     id="polyline87" /><path
     sodipodi:nodetypes="cc"
     inkscape:connector-curvature="0"
     id="path889"
     d="m -58.487696,229.69817 h 34.272764"
     style="fill:#ffffff;fill-opacity:1;stroke:#000000;stroke-width:0.93333334;stroke-miterlimit:4;stroke-dasharray:none;stroke-dashoffset:0;stroke-opacity:1" /></g><g
   id="g881"
   transform="translate(0,5.6844177)"><line
     style="overflow:visible;fill:none;stroke:#000000;stroke-width:0.87000072;stroke-miterlimit:1"
     x1="128.40044"
     y1="292.9613"
     x2="128.40044"
     y2="282.95627"
     id="line75-3" /><circle
     transform="matrix(0,-1,-1,0,0,0)"
     style="overflow:visible;fill:none;stroke:#000000;stroke-width:0.87000066;stroke-miterlimit:1"
     cx="-258.00467"
     cy="-139.16756"
     r="13.53373"
     id="circle77-6" /><path
     inkscape:connector-curvature="0"
     style="overflow:visible;fill:none;stroke:#000000;stroke-width:0.87000072;stroke-miterlimit:1"
     d="m 128.43697,283.52526 c 0,-33.93002 14.79001,-31.02944 14.79001,-25.5206 0,5.51059 -15.08059,8.70001 -15.08059,-27.54944 l 0.14442,-6.44148 h -15.66002"
     id="path79-7" /><line
     style="overflow:visible;fill:none;stroke:#000000;stroke-width:0.87000072;stroke-miterlimit:1"
     x1="68.817551"
     y1="259.60025"
     x2="56.637566"
     y2="259.60025"
     id="line81-5" /><line
     style="overflow:visible;fill:none;stroke:#000000;stroke-width:0.87000072;stroke-miterlimit:1"
     x1="74.907547"
     y1="254.38025"
     x2="50.547523"
     y2="254.38025"
     id="line83-3" /><polyline
     transform="matrix(0,-1.7400013,-1.7400013,0,729.96586,403.39397)"
     style="overflow:visible;fill:none;stroke:#000000;stroke-width:0.5;stroke-miterlimit:1"
     points="103.092,373.914 103.092,383.47      85.592,383.47 "
     id="polyline85-5" /><polyline
     transform="matrix(0,-1.7400013,-1.7400013,0,729.96586,403.39397)"
     style="overflow:visible;fill:none;stroke:#000000;stroke-width:0.5;stroke-miterlimit:1"
     points="82.092,383.47 63.842,383.47      63.842,354.456 "
     id="polyline87-6" /><line
     style="overflow:visible;fill:none;stroke:#000000;stroke-width:0.87000072;stroke-miterlimit:1"
     x1="112.92139"
     y1="292.30881"
     x2="128.29254"
     y2="292.30881"
     id="line89-2" /><path
     sodipodi:nodetypes="cc"
     inkscape:connector-curvature="0"
     id="path889-9"
     d="M 79.355017,224.01375 H 113.62778"
     style="overflow:visible;fill:#ffffff;fill-opacity:1;stroke:#000000;stroke-width:0.93333334;stroke-miterlimit:4;stroke-dasharray:none;stroke-dashoffset:0;stroke-opacity:1" /><path
     inkscape:connector-curvature="0"
     id="path859"
     d="m 127.64438,233.27038 c 2.42724,0 4.85448,0 7.28172,0 0.57112,0 1.15333,-0.112 1.71335,0 0.31307,0.0626 0.54694,0.3509 0.85668,0.42834 0.27703,0.0693 0.57964,-0.0693 0.85667,0 0.30973,0.0774 0.54361,0.36572 0.85667,0.42833 2.43595,0 0.282,-0.19155 2.14169,0.42834 1.28501,0.42834 -0.85668,-0.85667 1.28501,0 0.76771,0.30709 1.31012,1.07712 2.14168,1.28501 0.41555,0.10389 0.87866,-0.13545 1.28501,0 0.30288,0.10096 0.54695,0.35091 0.85668,0.42834 0.27703,0.0693 0.58577,-0.0903 0.85667,0 0.19156,0.0639 0.23678,0.36448 0.42834,0.42834 1.85453,0.61817 -0.15744,-0.81885 1.71334,0.42833 0.16801,0.11201 0.28556,0.28556 0.42834,0.42834 0.49008,0.49008 0.50705,0.59735 1.28501,0.85667 0.13545,0.0452 0.30063,-0.0638 0.42834,0 0.1806,0.0903 0.23678,0.36449 0.42834,0.42834 0.2709,0.0903 0.60126,-0.12771 0.85667,0 0.0518,0.0259 1.61285,1.63797 1.71335,1.71335 0.25541,0.19155 0.59103,0.25124 0.85667,0.42833 0.16801,0.11201 0.28556,0.28556 0.42834,0.42834 0.14278,0.14278 0.31633,0.26033 0.42833,0.42834 0.1771,0.26564 0.20259,0.63092 0.42834,0.85667 0.10096,0.10096 0.28556,0 0.42834,0 0.14278,0.14278 0.31633,0.26033 0.42833,0.42834 1.09402,1.64102 -0.23734,0.0723 0.85668,1.71335 0.112,0.168 0.33803,0.24773 0.42833,0.42833 0.0639,0.12771 0,0.28556 0,0.42834 0.14278,0.28556 0.23678,0.60126 0.42834,0.85667 0.3598,0.47974 0.92521,0.80528 1.28501,1.28501 0.30888,0.41184 0.5478,0.87318 0.85668,1.28501 0.12115,0.16154 0.31633,0.26033 0.42833,0.42834 0.1771,0.26564 0.25124,0.59103 0.42834,0.85667 0.112,0.16801 0.28556,0.28556 0.42834,0.42834 0.42833,0.42834 0.90659,0.81199 1.28501,1.28501 0.40181,0.50226 0.65045,1.62612 0.85667,2.14169 0.4326,1.08148 1.345,1.8933 1.71335,2.99835 1.73864,5.21594 -0.17366,-0.43997 0.42833,2.57002 0.0885,0.44274 0.26981,0.86226 0.42834,1.28502 0.26998,0.71993 0.64545,1.40238 0.85668,2.14168 0.0784,0.27457 -0.056,0.57666 0,0.85667 0.0885,0.44274 0.31883,0.84699 0.42833,1.28501 0.13907,0.55629 -0.13633,1.59636 0,2.14169 0.0774,0.30973 0.32738,0.55379 0.42834,0.85667 0.0932,0.27956 0,2.0579 0,2.57002 0,0.28556 0,0.57112 0,0.85668 0,0.14278 0.0792,0.30953 0,0.42833 -0.22401,0.33602 -0.57112,0.57112 -0.85667,0.85668 -0.14278,0.14278 -0.36449,0.23678 -0.42834,0.42833 -0.0903,0.27091 0.0903,0.58577 0,0.85668 -0.0639,0.19156 -0.28556,0.28556 -0.42834,0.42833 -0.14278,0.14278 -0.28556,0.28556 -0.42834,0.42834 -0.42833,0.42834 -0.85667,0.85667 -1.28501,1.28501 -0.14277,0.14278 -0.26033,0.31633 -0.42833,0.42834 -0.26565,0.17709 -0.59103,0.25124 -0.85668,0.42834 -0.168,0.112 -0.24773,0.33803 -0.42833,0.42833 -0.12771,0.0639 -0.30954,-0.0792 -0.42834,0 -0.33601,0.22401 -0.5336,0.61437 -0.85667,0.85668 -0.25541,0.19155 -0.59103,0.25124 -0.85668,0.42833 -0.168,0.11201 -0.23244,0.37937 -0.42833,0.42834 -0.41555,0.10389 -0.865,-0.084 -1.28501,0 -0.31307,0.0626 -0.57112,0.28556 -0.85668,0.42834 -0.28556,0.14278 -0.60126,0.23678 -0.85667,0.42833 -0.32307,0.24231 -0.49547,0.67607 -0.85668,0.85668 -0.25541,0.1277 -0.57964,-0.0693 -0.85667,0 -0.30973,0.0774 -0.55379,0.32737 -0.85667,0.42833 -0.38551,0.1285 -0.89951,-0.1285 -1.28501,0 -0.72943,0.24315 -1.39576,0.67019 -2.14169,0.85668 -0.41555,0.10388 -0.85667,0 -1.28501,0 -0.71389,0.14278 -1.44166,0.22833 -2.14168,0.42833 -0.30698,0.0877 -0.54361,0.36573 -0.85668,0.42834 -0.8847,0.17694 -2.5911,-0.2089 -3.42669,0 -0.19589,0.049 -0.23245,0.37937 -0.42834,0.42834 -0.75906,0.18976 -2.20566,-0.13212 -2.99836,0 -0.44536,0.0742 -0.85667,0.28556 -1.28501,0.42833 -1.28501,0.28556 -2.54884,0.6934 -3.85503,0.85668 -1.70011,0.21251 -3.43992,-0.21252 -5.14004,0 -0.44802,0.056 -0.84698,0.31883 -1.28501,0.42834 -0.13852,0.0346 -0.28556,0 -0.42834,0 -0.28556,0 -0.57111,0 -0.85667,0 -0.57112,0 -1.14223,0 -1.71335,0"
     style="fill:none;stroke:#000000;stroke-width:1px;stroke-linecap:butt;stroke-linejoin:miter;stroke-opacity:1" /></g><text
   xml:space="preserve"
   style="font-style:normal;font-variant:normal;font-weight:normal;font-stretch:normal;font-size:13.33333302px;line-height:1.25;font-family:'Liberation Sans';-inkscape-font-specification:'Liberation Sans';font-variant-ligatures:normal;font-variant-position:normal;font-variant-caps:normal;font-variant-numeric:normal;font-variant-alternates:normal;font-feature-settings:normal;text-indent:0;text-align:start;text-decoration:none;text-decoration-line:none;text-decoration-style:solid;text-decoration-color:#000000;letter-spacing:0px;word-spacing:0px;text-transform:none;writing-mode:lr-tb;direction:ltr;text-orientation:mixed;dominant-baseline:auto;baseline-shift:baseline;text-anchor:start;white-space:normal;shape-padding:0;opacity:1;vector-effect:none;fill:#000000;fill-opacity:1;stroke:none;stroke-width:1;stroke-linecap:butt;stroke-linejoin:miter;stroke-miterlimit:4;stroke-dasharray:none;stroke-dashoffset:0;stroke-opacity:1"
   x="-75.677223"
   y="318.70633"
   id="text885"><tspan
     sodipodi:role="line"
     id="tspan883"
     x="-75.677223"
     y="318.70633">open circuit</tspan></text>
<text
   xml:space="preserve"
   style="font-style:normal;font-variant:normal;font-weight:normal;font-stretch:normal;font-size:13.33333302px;line-height:1.25;font-family:'Liberation Sans';-inkscape-font-specification:'Liberation Sans';font-variant-ligatures:normal;font-variant-position:normal;font-variant-caps:normal;font-variant-numeric:normal;font-variant-alternates:normal;font-feature-settings:normal;text-indent:0;text-align:start;text-decoration:none;text-decoration-line:none;text-decoration-style:solid;text-decoration-color:#000000;letter-spacing:0px;word-spacing:0px;text-transform:none;writing-mode:lr-tb;direction:ltr;text-orientation:mixed;dominant-baseline:auto;baseline-shift:baseline;text-anchor:start;white-space:normal;shape-padding:0;opacity:1;vector-effect:none;fill:#000000;fill-opacity:1;stroke:none;stroke-width:1;stroke-linecap:butt;stroke-linejoin:miter;stroke-miterlimit:4;stroke-dasharray:none;stroke-dashoffset:0;stroke-opacity:1"
   x="63.822189"
   y="318.70633"
   id="text889"><tspan
     sodipodi:role="line"
     id="tspan887"
     x="63.822189"
     y="318.70633">short circuit</tspan></text>
</svg>