<?xml version="1.0" encoding="UTF-8" standalone="no"?>
<!-- Generator: Adobe Illustrator 11 Build 196, SVG Export Plug-In . SVG Version: 6.0.0 Build 78)  -->

<svg
   xmlns:dc="http://purl.org/dc/elements/1.1/"
   xmlns:cc="http://creativecommons.org/ns#"
   xmlns:rdf="http://www.w3.org/1999/02/22-rdf-syntax-ns#"
   xmlns:svg="http://www.w3.org/2000/svg"
   xmlns="http://www.w3.org/2000/svg"
   xmlns:sodipodi="http://sodipodi.sourceforge.net/DTD/sodipodi-0.dtd"
   xmlns:inkscape="http://www.inkscape.org/namespaces/inkscape"
   width="147.402"
   height="390.47"
   viewBox="0 0 147.402 390.47"
   style="overflow:visible;enable-background:new 0 0 147.402 390.47"
   xml:space="preserve"
   id="svg2"
   sodipodi:version="0.32"
   sodipodi:docname="em-mea-covid-i-and-v-measurements.svg"
   version="1.1"
   inkscape:version="0.92.4 (5da689c313, 2019-01-14)"><metadata
   id="metadata79"><rdf:RDF><cc:Work
       rdf:about=""><dc:format>image/svg+xml</dc:format><dc:type
         rdf:resource="http://purl.org/dc/dcmitype/StillImage" /></cc:Work></rdf:RDF></metadata><defs
   id="defs198">
			
			
			 
			
			
				
			 
			
			
			
			
			
			
				
			 
			
			
			
			
			
			
			 
		
				
					 
				
				
				
					
				
				
				
				
				
				
				
				
				
				
				
				
			
				
					
				
				
				
				
				
					 
				
				
				
				
				
				
					
				
			




</defs><sodipodi:namedview
   inkscape:cy="125.25007"
   inkscape:cx="65.349334"
   inkscape:zoom="1.3383321"
   inkscape:window-height="996"
   inkscape:window-width="1278"
   inkscape:pageshadow="2"
   inkscape:pageopacity="0.0"
   borderopacity="1.0"
   bordercolor="#666666"
   pagecolor="#ffffff"
   id="base"
   inkscape:window-x="0"
   inkscape:window-y="0"
   inkscape:current-layer="svg2"
   showgrid="false"
   inkscape:window-maximized="0" />

	<rect
   style="fill:#dedede;fill-opacity:1;fill-rule:evenodd;stroke:none;overflow:visible"
   id="rect2343"
   width="122.371"
   height="145.24051"
   x="36.355789"
   y="205.04742" /><g
   id="g3107"
   transform="matrix(0,-1,-1,0,374.49074,350.49074)"><g
     transform="matrix(1.7400013,0,0,1.7400013,-57.626747,-217.14607)"
     id="g45">
				<g
   id="g47">
					
						<line
   style="fill:none;stroke:#000000;stroke-width:0.5;stroke-miterlimit:1"
   x1="64.353996"
   y1="290.20901"
   x2="70.103996"
   y2="290.20901"
   id="line49" />
					<g
   id="g51">
						
							<line
   style="fill:none;stroke:#000000;stroke-width:0.5;stroke-miterlimit:1"
   x1="83.527"
   y1="305.327"
   x2="83.527"
   y2="312.327"
   id="line53" />
						
							<line
   style="fill:none;stroke:#000000;stroke-width:0.5;stroke-miterlimit:1"
   x1="86.527"
   y1="301.827"
   x2="86.527"
   y2="315.827"
   id="line55" />
					</g>
					<g
   id="g57">
						<circle
   d="m 92.222,284.022 c 0,4.29567 -3.482329,7.778 -7.778,7.778 -4.29567,0 -7.778,-3.48233 -7.778,-7.778 0,-4.29567 3.48233,-7.778 7.778,-7.778 4.295671,0 7.778,3.48233 7.778,7.778 z"
   style="fill:none;stroke:#000000;stroke-width:0.5;stroke-miterlimit:1"
   cx="84.444"
   cy="284.022"
   r="7.7779999"
   id="circle59"
   sodipodi:cx="84.444"
   sodipodi:cy="284.022"
   sodipodi:rx="7.7779999"
   sodipodi:ry="7.7779999" /> 
						<path
   inkscape:connector-curvature="0"
   style="fill:none;stroke:#000000;stroke-width:0.5;stroke-miterlimit:1"
   d="m 69.777,290.188 c 19.5,0 17.833,-8.5 14.667,-8.5 -3.167,0 -5,8.667 15.833,8.667 l 3.702,-0.083 0,18.555 -17.5,0"
   id="path61" />
					</g>
					<polyline
   style="fill:none;stroke:#000000;stroke-width:0.5;stroke-miterlimit:1"
   points="82.979,308.827 64.729,308.827        64.729,290.272 "
   id="polyline63" />
				</g>
				<polyline
   style="fill:none;stroke:#000000;stroke-width:0.5;stroke-miterlimit:1"
   points="64.729,290.272 64.729,262.522       103.979,262.522 103.979,290.272 "
   id="polyline65" />
			</g><circle
     transform="matrix(1.7400013,0,0,1.7400013,-57.626747,-217.14607)"
     style="fill:#ffffff;stroke:#000000;stroke-width:0.5;stroke-miterlimit:1"
     cx="85.167"
     cy="262.647"
     r="9.7229996"
     id="circle67"
     sodipodi:cx="85.167"
     sodipodi:cy="262.647"
     sodipodi:rx="9.7229996"
     sodipodi:ry="9.7229996"
     d="m 94.889999,262.647 c 0,5.36987 -4.353135,9.723 -9.722999,9.723 -5.369865,0 -9.723,-4.35313 -9.723,-9.723 0,-5.36986 4.353135,-9.723 9.723,-9.723 5.369864,0 9.722999,4.35314 9.722999,9.723 z" /></g><g
   id="g69"
   transform="matrix(1.7400013,0,0,1.7400013,-12.251248,-197.12968)">
				<text
   id="text71"
   transform="translate(81.8315,266.2466)"><tspan
     id="tspan73"
     style="font-size:10px;font-family:Helvetica"
     y="0"
     x="0">V</tspan></text>








			</g><rect
   style="fill:#dedede;fill-opacity:1;fill-rule:evenodd;stroke:none;overflow:visible"
   id="rect2343-7"
   width="122.37101"
   height="145.24051"
   x="-98.6856"
   y="205.04742" /><line
   id="line75"
   y2="288.64069"
   x2="-9.442275"
   y1="298.64572"
   x1="-9.442275"
   style="fill:none;stroke:#000000;stroke-width:0.87000072;stroke-miterlimit:1" /><circle
   d="m 91.334999,339.539 c 0,4.29567 -3.482329,7.778 -7.778,7.778 -4.295671,0 -7.778,-3.48233 -7.778,-7.778 0,-4.29567 3.482329,-7.778 7.778,-7.778 4.295671,0 7.778,3.48233 7.778,7.778 z"
   sodipodi:ry="7.7779999"
   sodipodi:rx="7.7779999"
   sodipodi:cy="339.539"
   sodipodi:cx="83.556999"
   id="circle77"
   r="7.7779999"
   cy="339.539"
   cx="83.556999"
   style="fill:none;stroke:#000000;stroke-width:0.5;stroke-miterlimit:1"
   transform="matrix(0,-1.7400013,-1.7400013,0,592.12315,409.07838)" /><path
   id="path79"
   d="m -9.4057473,289.20968 c 0,-33.93002 14.7900135,-31.02944 14.7900135,-25.5206 0,5.51059 -15.0805908,8.70001 -15.0805908,-27.54944 l 0.14442,-6.44148 -15.6600154,0"
   style="fill:none;stroke:#000000;stroke-width:0.87000072;stroke-miterlimit:1"
   inkscape:connector-curvature="0" /><line
   id="line81"
   y2="265.28467"
   x2="-81.205147"
   y1="265.28467"
   x1="-69.025162"
   style="fill:none;stroke:#000000;stroke-width:0.87000072;stroke-miterlimit:1" /><line
   id="line83"
   y2="260.06467"
   x2="-87.295189"
   y1="260.06467"
   x1="-62.935169"
   style="fill:none;stroke:#000000;stroke-width:0.87000072;stroke-miterlimit:1" /><polyline
   id="polyline85"
   points="103.092,373.914 103.092,383.47      85.592,383.47 "
   style="fill:none;stroke:#000000;stroke-width:0.5;stroke-miterlimit:1"
   transform="matrix(0,-1.7400013,-1.7400013,0,592.12315,409.07838)" /><polyline
   id="polyline87"
   points="82.092,383.47 63.842,383.47      63.842,354.456 "
   style="fill:none;stroke:#000000;stroke-width:0.5;stroke-miterlimit:1"
   transform="matrix(0,-1.7400013,-1.7400013,0,592.12315,409.07838)" /><line
   id="line89"
   y2="297.99323"
   x2="-9.5501785"
   y1="297.99323"
   x1="-24.921322"
   style="fill:none;stroke:#000000;stroke-width:0.87000072;stroke-miterlimit:1" /><circle
   d="m 112.867,364.612 c 0,5.36986 -4.35314,9.723 -9.723,9.723 -5.369867,0 -9.723002,-4.35314 -9.723002,-9.723 0,-5.36986 4.353135,-9.723 9.723002,-9.723 5.36986,0 9.723,4.35314 9.723,9.723 z"
   sodipodi:ry="9.7229996"
   sodipodi:rx="9.7229996"
   sodipodi:cy="364.612"
   sodipodi:cx="103.144"
   id="circle91"
   r="9.7229996"
   cy="364.612"
   cx="103.144"
   style="fill:#ffffff;stroke:#000000;stroke-width:0.5;stroke-miterlimit:1"
   transform="matrix(0,-1.7400013,-1.7400013,0,592.12315,411.07838)" /><g
   id="g93"
   transform="matrix(1.7400013,0,0,1.7400013,-221.71983,-404.7646)">
				<text
   id="text95"
   transform="translate(99.8086,368.2119)"><tspan
     id="tspan97"
     style="font-size:10px;font-family:Helvetica"
     y="0"
     x="0">A</tspan></text>








			</g>
























<text
   xml:space="preserve"
   style="font-size:10px;font-style:normal;font-variant:normal;font-weight:normal;font-stretch:normal;text-indent:0;text-align:start;text-decoration:none;line-height:125%;letter-spacing:0px;word-spacing:0px;text-transform:none;direction:ltr;block-progression:tb;writing-mode:lr-tb;text-anchor:start;baseline-shift:baseline;color:#000000;fill:#000000;fill-opacity:1;fill-rule:nonzero;stroke:none;stroke-width:1px;marker:none;visibility:visible;display:inline;overflow:visible;enable-background:accumulate;font-family:FreeSans;-inkscape-font-specification:FreeSans"
   x="-89.662529"
   y="311.75766"
   id="text3121"><tspan
     sodipodi:role="line"
     x="-89.662529"
     y="311.75766"
     id="tspan3127">measuring the flow of</tspan><tspan
     sodipodi:role="line"
     x="-89.662529"
     y="324.25766"
     id="tspan3131">electricity about to drop</tspan><tspan
     sodipodi:role="line"
     x="-89.662529"
     y="336.75766"
     id="tspan3139">&quot;down&quot; through the bulb</tspan></text>



<text
   xml:space="preserve"
   style="font-size:10px;font-style:normal;font-variant:normal;font-weight:normal;font-stretch:normal;text-indent:0;text-align:start;text-decoration:none;line-height:125%;letter-spacing:0px;word-spacing:0px;text-transform:none;direction:ltr;block-progression:tb;writing-mode:lr-tb;text-anchor:start;baseline-shift:baseline;color:#000000;fill:#000000;fill-opacity:1;fill-rule:nonzero;stroke:none;stroke-width:1px;marker:none;visibility:visible;display:inline;overflow:visible;enable-background:accumulate;font-family:FreeSans;-inkscape-font-specification:FreeSans"
   x="39.414162"
   y="311.75766"
   id="text3141"><tspan
     sodipodi:role="line"
     id="tspan3143"
     x="39.414162"
     y="311.75766">measuring the difference</tspan><tspan
     sodipodi:role="line"
     x="39.414162"
     y="324.25766"
     id="tspan3145">in &quot;height&quot; between the</tspan><tspan
     sodipodi:role="line"
     x="39.414162"
     y="336.75766"
     id="tspan3147">top and bottom of the bulb</tspan></text>



<path
   style="color:#000000;fill:#dedede;stroke:none;stroke-width:0.87500000000000000;stroke-linecap:butt;stroke-linejoin:miter;stroke-miterlimit:4;stroke-opacity:1;stroke-dasharray:none;stroke-dashoffset:0;marker:none;visibility:visible;display:inline;overflow:visible;enable-background:accumulate;fill-opacity:1"
   d="m 87.639936,252.76897 -1.849223,3.56636 -1.45296,3.50031 0.198131,3.83054 1.188786,3.43427 2.047353,2.97196 1.320873,-4.29284 1.188786,-2.44361 1.188786,-2.17944 -1.122742,-1.91527 -1.452961,-2.83988 -0.660436,-2.44361 z"
   id="path3055"
   inkscape:connector-curvature="0"
   transform="translate(0,-1.0149649e-5)" /></svg>