<?xml version="1.0" encoding="UTF-8"?>
<svg xmlns="http://www.w3.org/2000/svg" xmlns:xlink="http://www.w3.org/1999/xlink" width="48pt" height="45pt" viewBox="0 0 48 45" version="1.1">
<g id="surface1">
<path style="fill:none;stroke-width:10;stroke-linecap:butt;stroke-linejoin:miter;stroke:rgb(0%,0%,0%);stroke-opacity:1;stroke-miterlimit:1;" d="M 185 295 L 15 295 L 15 25 L 175 25 L 189.179688 67.304688 L 210.820312 2.070312 L 239.804688 67.304688 L 264.179688 2.304688 L 289.804688 67.929688 L 316.679688 2.929688 L 337.304688 66.054688 L 355 25 L 475 25 L 475 295 L 275 295 " transform="matrix(0.1,0,0,-0.1,0,45)"/>
<path style="fill:none;stroke-width:10;stroke-linecap:butt;stroke-linejoin:miter;stroke:rgb(0%,0%,0%);stroke-opacity:1;stroke-miterlimit:1;" d="M 185 335 L 185 265 " transform="matrix(0.1,0,0,-0.1,0,45)"/>
<path style="fill:none;stroke-width:10;stroke-linecap:butt;stroke-linejoin:miter;stroke:rgb(0%,0%,0%);stroke-opacity:1;stroke-miterlimit:1;" d="M 215 365 L 215 225 " transform="matrix(0.1,0,0,-0.1,0,45)"/>
<path style="fill:none;stroke-width:10;stroke-linecap:butt;stroke-linejoin:miter;stroke:rgb(0%,0%,0%);stroke-opacity:1;stroke-miterlimit:1;" d="M 245 335 L 245 265 " transform="matrix(0.1,0,0,-0.1,0,45)"/>
<path style="fill:none;stroke-width:10;stroke-linecap:butt;stroke-linejoin:miter;stroke:rgb(0%,0%,0%);stroke-opacity:1;stroke-miterlimit:1;" d="M 275 365 L 275 225 " transform="matrix(0.1,0,0,-0.1,0,45)"/>
<path style="fill:none;stroke-width:10;stroke-linecap:butt;stroke-linejoin:miter;stroke:rgb(0%,0%,0%);stroke-opacity:1;stroke-miterlimit:1;" d="M 172.1875 166.484375 L 297.1875 416.484375 " transform="matrix(0.1,0,0,-0.1,0,45)"/>
<path style=" stroke:none;fill-rule:nonzero;fill:rgb(0%,0%,0%);fill-opacity:1;" d="M 31.066406 0.648438 C 30.902344 2.152344 30.917969 4.132812 31.28125 5.53125 L 29.539062 3.699219 L 27.027344 3.40625 C 28.367188 2.855469 29.960938 1.683594 31.066406 0.648438 "/>
</g>
</svg>
