<?xml version="1.0" encoding="UTF-8"?>
<svg xmlns="http://www.w3.org/2000/svg" xmlns:xlink="http://www.w3.org/1999/xlink" width="163pt" height="66pt" viewBox="0 0 163 66" version="1.1">
<g id="surface1">
<path style="fill:none;stroke-width:10;stroke-linecap:butt;stroke-linejoin:miter;stroke:rgb(0%,0%,0%);stroke-opacity:1;stroke-miterlimit:1;" d="M 5 335 L 235 335 L 245 653.75 L 260 61.25 L 282.5 443.75 L 305 248.75 L 320 563.75 L 335 181.25 L 357.5 398.75 L 380 301.25 L 417.5 376.25 L 447.5 301.25 L 500 361.25 L 522.5 293.75 L 537.5 346.25 L 565 325 L 1235 325 " transform="matrix(0.1,0,0,-0.1,0,66)"/>
<path style="fill:none;stroke-width:10;stroke-linecap:butt;stroke-linejoin:miter;stroke:rgb(0%,0%,0%);stroke-opacity:1;stroke-miterlimit:1;" d="M 1025 325 L 1245 325 L 1261.25 1.210938 L 1276.25 593.710938 L 1298.75 211.210938 L 1321.25 406.210938 L 1336.25 91.210938 L 1351.25 473.710938 L 1373.75 256.210938 L 1396.25 353.710938 L 1433.75 278.710938 L 1463.75 353.710938 L 1516.25 293.710938 L 1538.75 361.210938 L 1553.75 308.710938 L 1585 335 L 1625 335 " transform="matrix(0.1,0,0,-0.1,0,66)"/>
</g>
</svg>
