<?xml version="1.0" encoding="UTF-8"?>
<svg xmlns="http://www.w3.org/2000/svg" xmlns:xlink="http://www.w3.org/1999/xlink" width="219pt" height="31pt" viewBox="0 0 219 31" version="1.1">
<g id="surface1">
<path style=" stroke:none;fill-rule:nonzero;fill:rgb(25%,25%,25%);fill-opacity:1;" d="M 99.960938 8.203125 C 99.960938 5.75 97.980469 3.765625 95.535156 3.75 L 95.535156 3.699219 L 68.585938 3.699219 L 68.585938 3.746094 C 66.125 3.746094 64.128906 5.742188 64.128906 8.203125 C 64.128906 10.660156 66.125 12.65625 68.585938 12.65625 L 68.585938 12.703125 L 95.535156 12.703125 L 95.535156 12.65625 C 97.980469 12.640625 99.960938 10.652344 99.960938 8.203125 "/>
<path style="fill:none;stroke-width:10;stroke-linecap:butt;stroke-linejoin:miter;stroke:rgb(0%,0%,0%);stroke-opacity:1;stroke-miterlimit:4;" d="M 999.609375 227.96875 C 999.609375 252.5 979.804688 272.34375 955 275 L 685 275 C 661.25 272.539062 641.289062 252.578125 641.289062 227.96875 C 641.289062 203.398438 661.25 183.4375 685 185 L 955 185 C 979.804688 183.59375 999.609375 203.476562 999.609375 227.96875 Z " transform="matrix(0.1,0,0,-0.1,0,31)"/>
<path style="fill:none;stroke-width:10;stroke-linecap:butt;stroke-linejoin:miter;stroke:rgb(100%,100%,100%);stroke-opacity:1;stroke-miterlimit:4;" d="M 685 255 L 685 225 " transform="matrix(0.1,0,0,-0.1,0,31)"/>
<path style="fill:none;stroke-width:10;stroke-linecap:butt;stroke-linejoin:miter;stroke:rgb(100%,100%,100%);stroke-opacity:1;stroke-miterlimit:4;" d="M 715 255 L 715 225 " transform="matrix(0.1,0,0,-0.1,0,31)"/>
<path style="fill:none;stroke-width:10;stroke-linecap:butt;stroke-linejoin:miter;stroke:rgb(100%,100%,100%);stroke-opacity:1;stroke-miterlimit:4;" d="M 735 255 L 735 225 " transform="matrix(0.1,0,0,-0.1,0,31)"/>
<path style="fill:none;stroke-width:10;stroke-linecap:butt;stroke-linejoin:miter;stroke:rgb(100%,100%,100%);stroke-opacity:1;stroke-miterlimit:4;" d="M 755 255 L 755 225 " transform="matrix(0.1,0,0,-0.1,0,31)"/>
<path style="fill:none;stroke-width:10;stroke-linecap:butt;stroke-linejoin:miter;stroke:rgb(100%,100%,100%);stroke-opacity:1;stroke-miterlimit:4;" d="M 775 255 L 775 225 " transform="matrix(0.1,0,0,-0.1,0,31)"/>
<path style="fill:none;stroke-width:10;stroke-linecap:butt;stroke-linejoin:miter;stroke:rgb(100%,100%,100%);stroke-opacity:1;stroke-miterlimit:4;" d="M 795 255 L 795 225 " transform="matrix(0.1,0,0,-0.1,0,31)"/>
<path style="fill:none;stroke-width:10;stroke-linecap:butt;stroke-linejoin:miter;stroke:rgb(100%,100%,100%);stroke-opacity:1;stroke-miterlimit:4;" d="M 815 255 L 815 225 " transform="matrix(0.1,0,0,-0.1,0,31)"/>
<path style="fill:none;stroke-width:10;stroke-linecap:butt;stroke-linejoin:miter;stroke:rgb(100%,100%,100%);stroke-opacity:1;stroke-miterlimit:4;" d="M 835 255 L 835 225 " transform="matrix(0.1,0,0,-0.1,0,31)"/>
<path style="fill:none;stroke-width:10;stroke-linecap:butt;stroke-linejoin:miter;stroke:rgb(100%,100%,100%);stroke-opacity:1;stroke-miterlimit:4;" d="M 855 255 L 855 225 " transform="matrix(0.1,0,0,-0.1,0,31)"/>
<path style="fill:none;stroke-width:10;stroke-linecap:butt;stroke-linejoin:miter;stroke:rgb(100%,100%,100%);stroke-opacity:1;stroke-miterlimit:4;" d="M 875 255 L 875 225 " transform="matrix(0.1,0,0,-0.1,0,31)"/>
<path style="fill:none;stroke-width:10;stroke-linecap:butt;stroke-linejoin:miter;stroke:rgb(100%,100%,100%);stroke-opacity:1;stroke-miterlimit:4;" d="M 895 255 L 895 225 " transform="matrix(0.1,0,0,-0.1,0,31)"/>
<path style="fill:none;stroke-width:10;stroke-linecap:butt;stroke-linejoin:miter;stroke:rgb(100%,100%,100%);stroke-opacity:1;stroke-miterlimit:4;" d="M 925 255 L 925 225 " transform="matrix(0.1,0,0,-0.1,0,31)"/>
<path style="fill:none;stroke-width:10;stroke-linecap:butt;stroke-linejoin:miter;stroke:rgb(100%,100%,100%);stroke-opacity:1;stroke-miterlimit:4;" d="M 945 255 L 945 225 " transform="matrix(0.1,0,0,-0.1,0,31)"/>
<path style=" stroke:none;fill-rule:nonzero;fill:rgb(50%,50%,50%);fill-opacity:1;" d="M 80.484375 8.195312 L 78.851562 9.828125 L 78.851562 11.695312 L 82.453125 11.695312 L 82.453125 9.726562 L 80.484375 8.195312 "/>
<path style="fill:none;stroke-width:10;stroke-linecap:butt;stroke-linejoin:miter;stroke:rgb(100%,100%,100%);stroke-opacity:1;stroke-miterlimit:4;" d="M 804.84375 228.046875 L 785 215 L 785 195 L 825 195 L 825 215 Z " transform="matrix(0.1,0,0,-0.1,0,31)"/>
<path style="fill:none;stroke-width:10;stroke-linecap:butt;stroke-linejoin:miter;stroke:rgb(0%,0%,0%);stroke-opacity:1;stroke-miterlimit:4;" d="M 641.640625 227.617188 C 610.15625 224.101562 515.664062 192.617188 571.640625 241.601562 " transform="matrix(0.1,0,0,-0.1,0,31)"/>
<path style="fill:none;stroke-width:10;stroke-linecap:butt;stroke-linejoin:miter;stroke:rgb(0%,0%,0%);stroke-opacity:1;stroke-miterlimit:4;" d="M 998.632812 224.53125 C 1030.15625 228.046875 1124.648438 259.53125 1068.632812 210.546875 " transform="matrix(0.1,0,0,-0.1,0,31)"/>
<path style=" stroke:none;fill-rule:nonzero;fill:rgb(25%,25%,25%);fill-opacity:1;" d="M 151.09375 7.851562 C 151.09375 10.300781 149.113281 12.289062 146.667969 12.304688 L 146.667969 12.355469 L 119.71875 12.355469 L 119.71875 12.304688 C 117.257812 12.304688 115.261719 10.3125 115.261719 7.851562 C 115.261719 5.390625 117.257812 3.398438 119.71875 3.398438 L 119.71875 3.347656 L 146.667969 3.347656 L 146.667969 3.398438 C 149.113281 3.414062 151.09375 5.402344 151.09375 7.851562 "/>
<path style="fill:none;stroke-width:10;stroke-linecap:butt;stroke-linejoin:miter;stroke:rgb(0%,0%,0%);stroke-opacity:1;stroke-miterlimit:4;" d="M 1510.9375 231.484375 C 1510.9375 206.992188 1491.132812 187.109375 1465 185 L 1195 185 C 1172.578125 186.953125 1152.617188 206.875 1152.617188 231.484375 C 1152.617188 256.09375 1172.578125 276.015625 1195 275 L 1465 275 C 1491.132812 275.859375 1510.9375 255.976562 1510.9375 231.484375 Z " transform="matrix(0.1,0,0,-0.1,0,31)"/>
<path style="fill:none;stroke-width:10;stroke-linecap:butt;stroke-linejoin:miter;stroke:rgb(100%,100%,100%);stroke-opacity:1;stroke-miterlimit:4;" d="M 1205 205 L 1205 235 " transform="matrix(0.1,0,0,-0.1,0,31)"/>
<path style="fill:none;stroke-width:10;stroke-linecap:butt;stroke-linejoin:miter;stroke:rgb(100%,100%,100%);stroke-opacity:1;stroke-miterlimit:4;" d="M 1225 205 L 1225 235 " transform="matrix(0.1,0,0,-0.1,0,31)"/>
<path style="fill:none;stroke-width:10;stroke-linecap:butt;stroke-linejoin:miter;stroke:rgb(100%,100%,100%);stroke-opacity:1;stroke-miterlimit:4;" d="M 1245 205 L 1245 235 " transform="matrix(0.1,0,0,-0.1,0,31)"/>
<path style="fill:none;stroke-width:10;stroke-linecap:butt;stroke-linejoin:miter;stroke:rgb(100%,100%,100%);stroke-opacity:1;stroke-miterlimit:4;" d="M 1265 205 L 1265 235 " transform="matrix(0.1,0,0,-0.1,0,31)"/>
<path style="fill:none;stroke-width:10;stroke-linecap:butt;stroke-linejoin:miter;stroke:rgb(100%,100%,100%);stroke-opacity:1;stroke-miterlimit:4;" d="M 1285 205 L 1285 235 " transform="matrix(0.1,0,0,-0.1,0,31)"/>
<path style="fill:none;stroke-width:10;stroke-linecap:butt;stroke-linejoin:miter;stroke:rgb(100%,100%,100%);stroke-opacity:1;stroke-miterlimit:4;" d="M 1305 205 L 1305 235 " transform="matrix(0.1,0,0,-0.1,0,31)"/>
<path style="fill:none;stroke-width:10;stroke-linecap:butt;stroke-linejoin:miter;stroke:rgb(100%,100%,100%);stroke-opacity:1;stroke-miterlimit:4;" d="M 1325 205 L 1325 235 " transform="matrix(0.1,0,0,-0.1,0,31)"/>
<path style="fill:none;stroke-width:10;stroke-linecap:butt;stroke-linejoin:miter;stroke:rgb(100%,100%,100%);stroke-opacity:1;stroke-miterlimit:4;" d="M 1345 205 L 1345 235 " transform="matrix(0.1,0,0,-0.1,0,31)"/>
<path style="fill:none;stroke-width:10;stroke-linecap:butt;stroke-linejoin:miter;stroke:rgb(100%,100%,100%);stroke-opacity:1;stroke-miterlimit:4;" d="M 1365 205 L 1365 235 " transform="matrix(0.1,0,0,-0.1,0,31)"/>
<path style="fill:none;stroke-width:10;stroke-linecap:butt;stroke-linejoin:miter;stroke:rgb(100%,100%,100%);stroke-opacity:1;stroke-miterlimit:4;" d="M 1385 205 L 1385 235 " transform="matrix(0.1,0,0,-0.1,0,31)"/>
<path style="fill:none;stroke-width:10;stroke-linecap:butt;stroke-linejoin:miter;stroke:rgb(100%,100%,100%);stroke-opacity:1;stroke-miterlimit:4;" d="M 1415 205 L 1415 235 " transform="matrix(0.1,0,0,-0.1,0,31)"/>
<path style="fill:none;stroke-width:10;stroke-linecap:butt;stroke-linejoin:miter;stroke:rgb(100%,100%,100%);stroke-opacity:1;stroke-miterlimit:4;" d="M 1435 205 L 1435 235 " transform="matrix(0.1,0,0,-0.1,0,31)"/>
<path style="fill:none;stroke-width:10;stroke-linecap:butt;stroke-linejoin:miter;stroke:rgb(100%,100%,100%);stroke-opacity:1;stroke-miterlimit:4;" d="M 1455 205 L 1455 235 " transform="matrix(0.1,0,0,-0.1,0,31)"/>
<path style=" stroke:none;fill-rule:nonzero;fill:rgb(50%,50%,50%);fill-opacity:1;" d="M 131.617188 7.859375 L 129.984375 6.222656 L 129.984375 4.359375 L 133.585938 4.359375 L 133.585938 6.328125 L 131.617188 7.859375 "/>
<path style="fill:none;stroke-width:10;stroke-linecap:butt;stroke-linejoin:miter;stroke:rgb(100%,100%,100%);stroke-opacity:1;stroke-miterlimit:4;" d="M 1316.171875 231.40625 L 1295 245 L 1295 265 L 1335 265 L 1335 245 Z " transform="matrix(0.1,0,0,-0.1,0,31)"/>
<path style="fill:none;stroke-width:10;stroke-linecap:butt;stroke-linejoin:miter;stroke:rgb(0%,0%,0%);stroke-opacity:1;stroke-miterlimit:4;" d="M 1153.007812 231.914062 C 1121.484375 228.398438 1026.992188 196.914062 1083.007812 245.898438 " transform="matrix(0.1,0,0,-0.1,0,31)"/>
<path style="fill:none;stroke-width:10;stroke-linecap:butt;stroke-linejoin:miter;stroke:rgb(0%,0%,0%);stroke-opacity:1;stroke-miterlimit:4;" d="M 1510 234.921875 C 1541.484375 231.40625 1635.976562 199.921875 1580 248.90625 " transform="matrix(0.1,0,0,-0.1,0,31)"/>
<path style="fill-rule:nonzero;fill:rgb(100%,100%,100%);fill-opacity:1;stroke-width:10;stroke-linecap:butt;stroke-linejoin:miter;stroke:rgb(0%,0%,0%);stroke-opacity:1;stroke-miterlimit:4;" d="M 2183.828125 235.898438 C 2049.570312 242.382812 1849.414062 285.78125 1849.414062 285.78125 C 1849.414062 285.78125 1782.890625 285.78125 1775.898438 285.78125 C 1757.539062 285.78125 1742.8125 272.65625 1742.8125 272.65625 C 1739.570312 258.710938 1772.226562 241.132812 1772.226562 241.132812 C 1772.226562 241.132812 1650.9375 246.40625 1621.5625 243.789062 C 1592.148438 241.132812 1566.40625 233.28125 1581.132812 222.773438 C 1595.820312 212.265625 1695.039062 191.289062 1709.765625 191.289062 C 1724.453125 191.289062 1775.898438 191.289062 1775.898438 191.289062 C 1775.898438 191.289062 1691.25 180.664062 1698.710938 162.382812 C 1701.5625 155.429688 1717.109375 149.257812 1775.898438 151.914062 C 1775.898438 151.914062 1706.054688 141.40625 1720.78125 120.390625 C 1735.46875 99.375 1790.585938 109.882812 1790.585938 109.882812 C 1790.585938 109.882812 1735.46875 104.648438 1742.8125 86.25 C 1750.15625 67.890625 1787.578125 64.414062 1808.984375 73.125 C 1834.6875 83.632812 1908.203125 104.648438 1963.320312 109.882812 C 2018.4375 115.15625 2136.054688 136.132812 2161.757812 136.132812 " transform="matrix(0.1,0,0,-0.1,0,31)"/>
<path style="fill-rule:nonzero;fill:rgb(100%,100%,100%);fill-opacity:1;stroke-width:10;stroke-linecap:butt;stroke-linejoin:miter;stroke:rgb(0%,0%,0%);stroke-opacity:1;stroke-miterlimit:4;" d="M 9.453125 229.335938 C 137.304688 238.007812 327.96875 295.859375 327.96875 295.859375 C 327.96875 295.859375 391.289062 295.859375 397.96875 295.859375 C 415.46875 295.859375 429.453125 278.359375 429.453125 278.359375 C 432.578125 259.765625 401.484375 236.367188 401.484375 236.367188 C 401.484375 236.367188 516.953125 243.359375 544.960938 239.84375 C 572.96875 236.367188 597.460938 225.859375 583.476562 211.835938 C 569.453125 197.851562 474.960938 169.84375 460.976562 169.84375 C 446.953125 169.84375 397.96875 169.84375 397.96875 169.84375 C 397.96875 169.84375 478.59375 155.703125 471.484375 131.367188 C 468.75 122.03125 453.984375 113.867188 397.96875 117.34375 C 397.96875 117.34375 464.453125 103.359375 450.46875 75.351562 C 436.484375 47.34375 383.984375 61.367188 383.984375 61.367188 C 383.984375 61.367188 436.484375 54.335938 429.453125 29.84375 C 422.460938 5.351562 386.835938 0.703125 366.484375 12.34375 C 341.953125 26.367188 271.953125 54.335938 219.453125 61.367188 C 166.953125 68.359375 54.960938 96.367188 30.46875 96.367188 " transform="matrix(0.1,0,0,-0.1,0,31)"/>
</g>
</svg>
