<?xml version="1.0" encoding="UTF-8" standalone="no"?>
<svg
   xmlns:dc="http://purl.org/dc/elements/1.1/"
   xmlns:cc="http://creativecommons.org/ns#"
   xmlns:rdf="http://www.w3.org/1999/02/22-rdf-syntax-ns#"
   xmlns:svg="http://www.w3.org/2000/svg"
   xmlns="http://www.w3.org/2000/svg"
   xmlns:sodipodi="http://sodipodi.sourceforge.net/DTD/sodipodi-0.dtd"
   xmlns:inkscape="http://www.inkscape.org/namespaces/inkscape"
   width="595.28pt"
   height="841.89pt"
   viewBox="0 0 595.28 841.89"
   id="svg2"
   sodipodi:version="0.32"
   inkscape:version="0.46"
   sodipodi:docname="me-kin-setup.svg"
   inkscape:output_extension="org.inkscape.output.svg.inkscape">
  <metadata
     id="metadata75">
    <rdf:RDF>
      <cc:Work
         rdf:about="">
        <dc:format>image/svg+xml</dc:format>
        <dc:type
           rdf:resource="http://purl.org/dc/dcmitype/StillImage" />
      </cc:Work>
    </rdf:RDF>
  </metadata>
  <defs
     id="defs73">
    <inkscape:perspective
       sodipodi:type="inkscape:persp3d"
       inkscape:vp_x="0 : 526.18127 : 1"
       inkscape:vp_y="0 : 1000 : 0"
       inkscape:vp_z="744.10004 : 526.18127 : 1"
       inkscape:persp3d-origin="372.05002 : 350.78752 : 1"
       id="perspective77" />
  </defs>
  <sodipodi:namedview
     inkscape:window-height="996"
     inkscape:window-width="1278"
     inkscape:pageshadow="2"
     inkscape:pageopacity="0.0"
     guidetolerance="10.0"
     gridtolerance="10.0"
     objecttolerance="10.0"
     borderopacity="1.0"
     bordercolor="#666666"
     pagecolor="#ffffff"
     id="base"
     showgrid="false"
     inkscape:zoom="1.2380578"
     inkscape:cx="449.89573"
     inkscape:cy="670.70788"
     inkscape:window-x="1"
     inkscape:window-y="1"
     inkscape:current-layer="svg2" />
  <g
     transform="translate(148, 318.339)"
     style="fill:#7f7f7f; fill-rule:nonzero; stroke:#000000; stroke-width:1; stroke-linecap:butt; stroke-linejoin:miter; stroke-dasharray:none;"
     id="g4">
    <path
       d="M226.5 4.5 C226.5 4.5 226.5 0 226.5 0 C226.5 0 0 0 0 0 C0 0 0 4.5 0 4.5 C0 4.5 226.5 4.5 226.5 4.5 Z"
       id="path6" />
  </g>
  <g
     transform="translate(367.25, 305.423)"
     style="fill:#7f7f7f; fill-rule:nonzero; stroke:#000000; stroke-width:1; stroke-linecap:butt; stroke-linejoin:miter; stroke-dasharray:none;"
     id="g8">
    <path
       d="M0 0 C0 0 0 12.666 0 12.666 C0 12.666 4 12.666 4 12.666 C4 12.666 4 0 4 0 C4 0 0 0 0 0 Z"
       id="path10" />
  </g>
  <g
     transform="translate(292.594, 294.433)"
     style="fill:none; stroke:#000000; stroke-width:1; stroke-linecap:butt; stroke-linejoin:miter; stroke-dasharray:none;"
     id="g20">
    <path
       d="M0 0 C0 0 0 2 0 2 C0 2 5 2 5 2 C5 2 5 0 5 0 C5 0 0 0 0 0 Z"
       id="path22" />
  </g>
  <g
     transform="translate(277.853, 311.775)"
     style="fill:#000000; fill-rule:nonzero; stroke:none; stroke-width:1; stroke-linecap:butt; stroke-linejoin:miter; stroke-dasharray:none;"
     id="g24">
    <path
       d="M3.064 6.1279 C4.756 6.1279 6.127 4.7559 6.127 3.0635 C6.127 1.3711 4.756 0 3.064 0 C1.372 0 0 1.3711 0 3.0635 C0 4.7559 1.372 6.1279 3.064 6.1279 Z"
       id="path26" />
  </g>
  <g
     transform="translate(297.186, 311.775)"
     style="fill:#000000; fill-rule:nonzero; stroke:none; stroke-width:1; stroke-linecap:butt; stroke-linejoin:miter; stroke-dasharray:none;"
     id="g28">
    <path
       d="M3.064 6.1279 C4.756 6.1279 6.128 4.7559 6.128 3.0635 C6.128 1.3711 4.756 0 3.064 0 C1.372 0 0 1.3711 0 3.0635 C0 4.7559 1.372 6.1279 3.064 6.1279 Z"
       id="path30" />
  </g>
  <g
     transform="translate(275.583, 305.423)"
     style="fill:#7f7f7f; fill-rule:nonzero; stroke:#000000; stroke-width:1; stroke-linecap:butt; stroke-linejoin:miter; stroke-dasharray:none;"
     id="g32">
    <path
       d="M28.583 8.666 C29.366 8.666 30 8.0322 30 7.249 C30 7.249 30 1.4169 30 1.4169 C30 0.6337 29.366 0 28.583 0 C28.583 0 1.418 0 1.418 0 C0.635 0 0 0.6337 0 1.4169 C0 1.4169 0 7.249 0 7.249 C0 8.0322 0.635 8.666 1.418 8.666 C1.418 8.666 28.583 8.666 28.583 8.666 Z"
       id="path34" />
  </g>
  <g
     transform="translate(285.917, 294.173)"
     style="fill:#000000; fill-rule:nonzero; stroke:none; stroke-width:1; stroke-linecap:butt; stroke-linejoin:miter; stroke-dasharray:none;"
     id="g36">
    <path
       d="M10 14 C10 14 10 0 10 0 C10 0 0 0 0 0 C0 0 0 14 0 14 C0 14 10 14 10 14 Z"
       id="path38" />
  </g>
  <g
     transform="translate(296.902, 286.412)"
     style="fill:#ffffff; fill-rule:nonzero; stroke:#000000; stroke-width:1; stroke-linecap:butt; stroke-linejoin:miter; stroke-dasharray:none;"
     id="g40">
    <path
       d="M0.884 8.48439 C1.372 8.48439 1.768 6.58499 1.768 4.24219 C1.768 1.89939 1.372 0 0.884 0 C0.396 0 0 1.89939 0 4.24219 C0 6.58499 0.396 8.48439 0.884 8.48439 Z"
       id="path42" />
  </g>
  <g
     transform="translate(296.902, 295.677)"
     style="fill:#ffffff; fill-rule:nonzero; stroke:#000000; stroke-width:1; stroke-linecap:butt; stroke-linejoin:miter; stroke-dasharray:none;"
     id="g44">
    <path
       d="M0.884 8.4853 C1.372 8.4853 1.768 6.5859 1.768 4.2431 C1.768 1.9004 1.372 0 0.884 0 C0.396 0 0 1.9004 0 4.2431 C0 6.5859 0.396 8.4853 0.884 8.4853 Z"
       id="path46" />
  </g>
  <g
     transform="translate(350.561, 301.307)"
     style="fill:none; stroke:#000000; stroke-width:1; stroke-linecap:butt; stroke-linejoin:miter; stroke-dasharray:none;"
     id="g48">
    <path
       d="M0.692 8.5186 C0.247 7.461 0 6.2989 0 5.0791 C0 3.1905 0.59 1.4395 1.597 0 "
       id="path50" />
  </g>
  <g
     transform="translate(306.207, 278)"
     style="fill:none; stroke:#000000; stroke-width:1; stroke-linecap:butt; stroke-linejoin:miter; stroke-dasharray:none;"
     id="g52">
    <path
       d="M0.543 36.0166 C0.186 33.5244 0 30.9766 0 28.3857 C0 17.9502 3.004 8.21581 8.194 0 "
       id="path54" />
  </g>
  <g
     transform="translate(314.684, 284.305)"
     style="fill:none; stroke:#000000; stroke-width:1; stroke-linecap:butt; stroke-linejoin:miter; stroke-dasharray:none;"
     id="g56">
    <path
       d="M0.725 28.956 C0.508 27.4199 0.37 25.8574 0.314 24.2725 C0 15.4189 2.303 7.08011 6.531 0 "
       id="path58" />
  </g>
  <g
     transform="translate(323.949, 288.21)"
     style="fill:none; stroke:#000000; stroke-width:1; stroke-linecap:butt; stroke-linejoin:miter; stroke-dasharray:none;"
     id="g60">
    <path
       d="M0.721 25.3271 C0.248 23.0175 0 20.6259 0 18.1757 C0 11.5332 1.825 5.3164 5.003 0 "
       id="path62" />
  </g>
  <g
     transform="translate(332.81, 294.199)"
     style="fill:none; stroke:#000000; stroke-width:1; stroke-linecap:butt; stroke-linejoin:miter; stroke-dasharray:none;"
     id="g64">
    <path
       d="M0.891 18.0723 C0.268 15.5733 0 12.9405 0.141 10.2354 C0.333 6.5655 1.259 3.1094 2.77 0 "
       id="path66" />
  </g>
  <g
     transform="translate(341.69, 298.29)"
     style="fill:none; stroke:#000000; stroke-width:1; stroke-linecap:butt; stroke-linejoin:miter; stroke-dasharray:none;"
     id="g68">
    <path
       d="M0.8 13.3799 C0.281 11.711 0 9.9366 0 8.0957 C0 5.1797 0.705 2.4268 1.952 0 "
       id="path70" />
  </g>
  <g
     transform="matrix(0.9975879,-6.941455e-2,6.941455e-2,0.9975879,358.44089,300.22387)"
     style="fill:#bfbfbf;fill-rule:nonzero;stroke:#000000;stroke-width:1;stroke-linecap:butt;stroke-linejoin:miter;stroke-dasharray:none"
     id="g2450">
    <path
       d="M 5.193,17.6132 C 5.974,17.6679 6.651,17.0791 6.705,16.2978 C 6.705,16.2978 7.717,1.8349 7.717,1.8349 C 7.772,1.0537 7.183,0.3769 6.402,0.3222 C 6.402,0.3222 2.579,0.0546 2.579,0.0546 C 1.798,0 1.121,0.5888 1.067,1.3701 C 1.067,1.3701 0.055,15.833 0.055,15.833 C 0,16.6142 0.589,17.291 1.37,17.3457 C 1.37,17.3457 5.193,17.6132 5.193,17.6132 z"
       id="path2452" />
  </g>
  <path
     style="opacity:1;fill:#ffffff;fill-opacity:1;fill-rule:evenodd;stroke:none;stroke-width:1px;stroke-linecap:butt;stroke-linejoin:miter;marker:none;marker-start:none;marker-mid:none;marker-end:none;stroke-miterlimit:4;stroke-dasharray:none;stroke-dashoffset:0;stroke-opacity:1;visibility:visible;display:inline;overflow:visible;enable-background:accumulate"
     d="M 358.77606,308.28913 L 362.7845,308.28913 L 362.7845,298.50151 C 362.7845,298.50151 361.69483,298.50151 360.8192,298.50151 C 359.94357,298.50151 359.03874,298.63771 359.03874,300.28196 C 359.03874,301.9262 359.03874,308.26967 359.03874,308.26967"
     id="path3237" />
  <g
     id="g3239"
     transform="matrix(0.9915968,0.1293666,-0.1293666,0.9915968,4.8098841,-54.527673)">
    <path
       id="path2465"
       d="M 397.12806,313.30938 L 400.37069,313.30938 L 400.37069,305.39169 C 400.37069,305.39169 399.4892,305.39169 398.78086,305.39169 C 398.07252,305.39169 397.34056,305.50187 397.34056,306.83198 C 397.34056,308.16209 397.34056,313.29364 397.34056,313.29364"
       style="opacity:1;fill:#b8b8b8;fill-opacity:1;fill-rule:evenodd;stroke:#000000;stroke-width:1px;stroke-linecap:butt;stroke-linejoin:miter;marker:none;marker-start:none;marker-mid:none;marker-end:none;stroke-miterlimit:4;stroke-dasharray:none;stroke-dashoffset:0;stroke-opacity:1;visibility:visible;display:inline;overflow:visible;enable-background:accumulate" />
    <g
       id="g16"
       style="fill:#7f7f7f;fill-rule:nonzero;stroke:#000000;stroke-width:1;stroke-linecap:butt;stroke-linejoin:miter;stroke-dasharray:none"
       transform="matrix(0.9980279,-6.2771376e-2,6.2771376e-2,0.9980279,395.75616,306.80531)">
      <path
         id="path18"
         d="M 0.966,5.6914 C 1.517,5.7295 1.995,5.3144 2.034,4.7627 C 2.034,4.7627 2.289,1.1055 2.289,1.1055 C 2.328,0.5547 1.913,0.0762 1.361,0.0381 C 0.81,0 0.333,0.415 0.294,0.9658 C 0.294,0.9658 0.039,4.624 0.039,4.624 C 0,5.1748 0.416,5.6523 0.966,5.6914 z" />
    </g>
  </g>
  <path
     style="opacity:1;fill:none;fill-opacity:1;fill-rule:evenodd;stroke:#000000;stroke-width:1px;stroke-linecap:butt;stroke-linejoin:miter;marker:none;marker-start:none;marker-mid:none;marker-end:none;stroke-miterlimit:4;stroke-dasharray:none;stroke-dashoffset:0;stroke-opacity:1;visibility:visible;display:inline;overflow:visible;enable-background:accumulate"
     d="M 359.54814,308.30063 L 362.80365,308.30063 L 362.80365,300.16186"
     id="path3244" />
</svg>
