<?xml version="1.0" encoding="UTF-8"?>
<svg xmlns="http://www.w3.org/2000/svg" xmlns:xlink="http://www.w3.org/1999/xlink" width="158pt" height="126pt" viewBox="0 0 158 126" version="1.1">
<defs>
<clipPath id="clip1">
  <path d="M 61 64 L 85 64 L 85 87 L 61 87 Z "/>
</clipPath>
<clipPath id="clip2">
  <path d="M 73.019531 86.550781 C 79.113281 86.550781 84.050781 81.613281 84.050781 75.519531 C 84.050781 69.429688 79.113281 64.488281 73.019531 64.488281 C 66.929688 64.488281 61.988281 69.429688 61.988281 75.519531 C 61.988281 81.613281 66.929688 86.550781 73.019531 86.550781 "/>
</clipPath>
<clipPath id="clip3">
  <path d="M 61 64 L 80 64 L 80 85 L 61 85 Z "/>
</clipPath>
<clipPath id="clip4">
  <path d="M 73.019531 86.550781 C 79.113281 86.550781 84.050781 81.613281 84.050781 75.519531 C 84.050781 69.429688 79.113281 64.488281 73.019531 64.488281 C 66.929688 64.488281 61.988281 69.429688 61.988281 75.519531 C 61.988281 81.613281 66.929688 86.550781 73.019531 86.550781 "/>
</clipPath>
<clipPath id="clip5">
  <path d="M 61 64 L 80 64 L 80 84 L 61 84 Z "/>
</clipPath>
<clipPath id="clip6">
  <path d="M 73.019531 86.550781 C 79.113281 86.550781 84.050781 81.613281 84.050781 75.519531 C 84.050781 69.429688 79.113281 64.488281 73.019531 64.488281 C 66.929688 64.488281 61.988281 69.429688 61.988281 75.519531 C 61.988281 81.613281 66.929688 86.550781 73.019531 86.550781 "/>
</clipPath>
<clipPath id="clip7">
  <path d="M 61 64 L 79 64 L 79 84 L 61 84 Z "/>
</clipPath>
<clipPath id="clip8">
  <path d="M 73.019531 86.550781 C 79.113281 86.550781 84.050781 81.613281 84.050781 75.519531 C 84.050781 69.429688 79.113281 64.488281 73.019531 64.488281 C 66.929688 64.488281 61.988281 69.429688 61.988281 75.519531 C 61.988281 81.613281 66.929688 86.550781 73.019531 86.550781 "/>
</clipPath>
<clipPath id="clip9">
  <path d="M 61 64 L 79 64 L 79 83 L 61 83 Z "/>
</clipPath>
<clipPath id="clip10">
  <path d="M 73.019531 86.550781 C 79.113281 86.550781 84.050781 81.613281 84.050781 75.519531 C 84.050781 69.429688 79.113281 64.488281 73.019531 64.488281 C 66.929688 64.488281 61.988281 69.429688 61.988281 75.519531 C 61.988281 81.613281 66.929688 86.550781 73.019531 86.550781 "/>
</clipPath>
<clipPath id="clip11">
  <path d="M 61 64 L 79 64 L 79 82 L 61 82 Z "/>
</clipPath>
<clipPath id="clip12">
  <path d="M 73.019531 86.550781 C 79.113281 86.550781 84.050781 81.613281 84.050781 75.519531 C 84.050781 69.429688 79.113281 64.488281 73.019531 64.488281 C 66.929688 64.488281 61.988281 69.429688 61.988281 75.519531 C 61.988281 81.613281 66.929688 86.550781 73.019531 86.550781 "/>
</clipPath>
<clipPath id="clip13">
  <path d="M 61 64 L 78 64 L 78 81 L 61 81 Z "/>
</clipPath>
<clipPath id="clip14">
  <path d="M 73.019531 86.550781 C 79.113281 86.550781 84.050781 81.613281 84.050781 75.519531 C 84.050781 69.429688 79.113281 64.488281 73.019531 64.488281 C 66.929688 64.488281 61.988281 69.429688 61.988281 75.519531 C 61.988281 81.613281 66.929688 86.550781 73.019531 86.550781 "/>
</clipPath>
<clipPath id="clip15">
  <path d="M 61 64 L 78 64 L 78 80 L 61 80 Z "/>
</clipPath>
<clipPath id="clip16">
  <path d="M 73.019531 86.550781 C 79.113281 86.550781 84.050781 81.613281 84.050781 75.519531 C 84.050781 69.429688 79.113281 64.488281 73.019531 64.488281 C 66.929688 64.488281 61.988281 69.429688 61.988281 75.519531 C 61.988281 81.613281 66.929688 86.550781 73.019531 86.550781 "/>
</clipPath>
<clipPath id="clip17">
  <path d="M 61 64 L 77 64 L 77 80 L 61 80 Z "/>
</clipPath>
<clipPath id="clip18">
  <path d="M 73.019531 86.550781 C 79.113281 86.550781 84.050781 81.613281 84.050781 75.519531 C 84.050781 69.429688 79.113281 64.488281 73.019531 64.488281 C 66.929688 64.488281 61.988281 69.429688 61.988281 75.519531 C 61.988281 81.613281 66.929688 86.550781 73.019531 86.550781 "/>
</clipPath>
<clipPath id="clip19">
  <path d="M 61 64 L 77 64 L 77 79 L 61 79 Z "/>
</clipPath>
<clipPath id="clip20">
  <path d="M 73.019531 86.550781 C 79.113281 86.550781 84.050781 81.613281 84.050781 75.519531 C 84.050781 69.429688 79.113281 64.488281 73.019531 64.488281 C 66.929688 64.488281 61.988281 69.429688 61.988281 75.519531 C 61.988281 81.613281 66.929688 86.550781 73.019531 86.550781 "/>
</clipPath>
<clipPath id="clip21">
  <path d="M 61 64 L 77 64 L 77 78 L 61 78 Z "/>
</clipPath>
<clipPath id="clip22">
  <path d="M 73.019531 86.550781 C 79.113281 86.550781 84.050781 81.613281 84.050781 75.519531 C 84.050781 69.429688 79.113281 64.488281 73.019531 64.488281 C 66.929688 64.488281 61.988281 69.429688 61.988281 75.519531 C 61.988281 81.613281 66.929688 86.550781 73.019531 86.550781 "/>
</clipPath>
<clipPath id="clip23">
  <path d="M 61 64 L 76 64 L 76 78 L 61 78 Z "/>
</clipPath>
<clipPath id="clip24">
  <path d="M 73.019531 86.550781 C 79.113281 86.550781 84.050781 81.613281 84.050781 75.519531 C 84.050781 69.429688 79.113281 64.488281 73.019531 64.488281 C 66.929688 64.488281 61.988281 69.429688 61.988281 75.519531 C 61.988281 81.613281 66.929688 86.550781 73.019531 86.550781 "/>
</clipPath>
<clipPath id="clip25">
  <path d="M 61 64 L 76 64 L 76 77 L 61 77 Z "/>
</clipPath>
<clipPath id="clip26">
  <path d="M 73.019531 86.550781 C 79.113281 86.550781 84.050781 81.613281 84.050781 75.519531 C 84.050781 69.429688 79.113281 64.488281 73.019531 64.488281 C 66.929688 64.488281 61.988281 69.429688 61.988281 75.519531 C 61.988281 81.613281 66.929688 86.550781 73.019531 86.550781 "/>
</clipPath>
<clipPath id="clip27">
  <path d="M 61 64 L 76 64 L 76 76 L 61 76 Z "/>
</clipPath>
<clipPath id="clip28">
  <path d="M 73.019531 86.550781 C 79.113281 86.550781 84.050781 81.613281 84.050781 75.519531 C 84.050781 69.429688 79.113281 64.488281 73.019531 64.488281 C 66.929688 64.488281 61.988281 69.429688 61.988281 75.519531 C 61.988281 81.613281 66.929688 86.550781 73.019531 86.550781 "/>
</clipPath>
<clipPath id="clip29">
  <path d="M 61 64 L 75 64 L 75 75 L 61 75 Z "/>
</clipPath>
<clipPath id="clip30">
  <path d="M 73.019531 86.550781 C 79.113281 86.550781 84.050781 81.613281 84.050781 75.519531 C 84.050781 69.429688 79.113281 64.488281 73.019531 64.488281 C 66.929688 64.488281 61.988281 69.429688 61.988281 75.519531 C 61.988281 81.613281 66.929688 86.550781 73.019531 86.550781 "/>
</clipPath>
<clipPath id="clip31">
  <path d="M 61 64 L 75 64 L 75 74 L 61 74 Z "/>
</clipPath>
<clipPath id="clip32">
  <path d="M 73.019531 86.550781 C 79.113281 86.550781 84.050781 81.613281 84.050781 75.519531 C 84.050781 69.429688 79.113281 64.488281 73.019531 64.488281 C 66.929688 64.488281 61.988281 69.429688 61.988281 75.519531 C 61.988281 81.613281 66.929688 86.550781 73.019531 86.550781 "/>
</clipPath>
<clipPath id="clip33">
  <path d="M 62 64 L 75 64 L 75 74 L 62 74 Z "/>
</clipPath>
<clipPath id="clip34">
  <path d="M 73.019531 86.550781 C 79.113281 86.550781 84.050781 81.613281 84.050781 75.519531 C 84.050781 69.429688 79.113281 64.488281 73.019531 64.488281 C 66.929688 64.488281 61.988281 69.429688 61.988281 75.519531 C 61.988281 81.613281 66.929688 86.550781 73.019531 86.550781 "/>
</clipPath>
<clipPath id="clip35">
  <path d="M 62 64 L 74 64 L 74 73 L 62 73 Z "/>
</clipPath>
<clipPath id="clip36">
  <path d="M 73.019531 86.550781 C 79.113281 86.550781 84.050781 81.613281 84.050781 75.519531 C 84.050781 69.429688 79.113281 64.488281 73.019531 64.488281 C 66.929688 64.488281 61.988281 69.429688 61.988281 75.519531 C 61.988281 81.613281 66.929688 86.550781 73.019531 86.550781 "/>
</clipPath>
<clipPath id="clip37">
  <path d="M 63 64 L 74 64 L 74 73 L 63 73 Z "/>
</clipPath>
<clipPath id="clip38">
  <path d="M 73.019531 86.550781 C 79.113281 86.550781 84.050781 81.613281 84.050781 75.519531 C 84.050781 69.429688 79.113281 64.488281 73.019531 64.488281 C 66.929688 64.488281 61.988281 69.429688 61.988281 75.519531 C 61.988281 81.613281 66.929688 86.550781 73.019531 86.550781 "/>
</clipPath>
<clipPath id="clip39">
  <path d="M 63 64 L 74 64 L 74 72 L 63 72 Z "/>
</clipPath>
<clipPath id="clip40">
  <path d="M 73.019531 86.550781 C 79.113281 86.550781 84.050781 81.613281 84.050781 75.519531 C 84.050781 69.429688 79.113281 64.488281 73.019531 64.488281 C 66.929688 64.488281 61.988281 69.429688 61.988281 75.519531 C 61.988281 81.613281 66.929688 86.550781 73.019531 86.550781 "/>
</clipPath>
<clipPath id="clip41">
  <path d="M 64 64 L 74 64 L 74 72 L 64 72 Z "/>
</clipPath>
<clipPath id="clip42">
  <path d="M 73.019531 86.550781 C 79.113281 86.550781 84.050781 81.613281 84.050781 75.519531 C 84.050781 69.429688 79.113281 64.488281 73.019531 64.488281 C 66.929688 64.488281 61.988281 69.429688 61.988281 75.519531 C 61.988281 81.613281 66.929688 86.550781 73.019531 86.550781 "/>
</clipPath>
<clipPath id="clip43">
  <path d="M 64 64 L 73 64 L 73 71 L 64 71 Z "/>
</clipPath>
<clipPath id="clip44">
  <path d="M 73.019531 86.550781 C 79.113281 86.550781 84.050781 81.613281 84.050781 75.519531 C 84.050781 69.429688 79.113281 64.488281 73.019531 64.488281 C 66.929688 64.488281 61.988281 69.429688 61.988281 75.519531 C 61.988281 81.613281 66.929688 86.550781 73.019531 86.550781 "/>
</clipPath>
<clipPath id="clip45">
  <path d="M 65 64 L 73 64 L 73 71 L 65 71 Z "/>
</clipPath>
<clipPath id="clip46">
  <path d="M 73.019531 86.550781 C 79.113281 86.550781 84.050781 81.613281 84.050781 75.519531 C 84.050781 69.429688 79.113281 64.488281 73.019531 64.488281 C 66.929688 64.488281 61.988281 69.429688 61.988281 75.519531 C 61.988281 81.613281 66.929688 86.550781 73.019531 86.550781 "/>
</clipPath>
<clipPath id="clip47">
  <path d="M 65 64 L 73 64 L 73 70 L 65 70 Z "/>
</clipPath>
<clipPath id="clip48">
  <path d="M 73.019531 86.550781 C 79.113281 86.550781 84.050781 81.613281 84.050781 75.519531 C 84.050781 69.429688 79.113281 64.488281 73.019531 64.488281 C 66.929688 64.488281 61.988281 69.429688 61.988281 75.519531 C 61.988281 81.613281 66.929688 86.550781 73.019531 86.550781 "/>
</clipPath>
<clipPath id="clip49">
  <path d="M 66 64 L 73 64 L 73 70 L 66 70 Z "/>
</clipPath>
<clipPath id="clip50">
  <path d="M 73.019531 86.550781 C 79.113281 86.550781 84.050781 81.613281 84.050781 75.519531 C 84.050781 69.429688 79.113281 64.488281 73.019531 64.488281 C 66.929688 64.488281 61.988281 69.429688 61.988281 75.519531 C 61.988281 81.613281 66.929688 86.550781 73.019531 86.550781 "/>
</clipPath>
<clipPath id="clip51">
  <path d="M 66 64 L 72 64 L 72 69 L 66 69 Z "/>
</clipPath>
<clipPath id="clip52">
  <path d="M 73.019531 86.550781 C 79.113281 86.550781 84.050781 81.613281 84.050781 75.519531 C 84.050781 69.429688 79.113281 64.488281 73.019531 64.488281 C 66.929688 64.488281 61.988281 69.429688 61.988281 75.519531 C 61.988281 81.613281 66.929688 86.550781 73.019531 86.550781 "/>
</clipPath>
<clipPath id="clip53">
  <path d="M 67 64 L 72 64 L 72 69 L 67 69 Z "/>
</clipPath>
<clipPath id="clip54">
  <path d="M 73.019531 86.550781 C 79.113281 86.550781 84.050781 81.613281 84.050781 75.519531 C 84.050781 69.429688 79.113281 64.488281 73.019531 64.488281 C 66.929688 64.488281 61.988281 69.429688 61.988281 75.519531 C 61.988281 81.613281 66.929688 86.550781 73.019531 86.550781 "/>
</clipPath>
<clipPath id="clip55">
  <path d="M 67 64 L 72 64 L 72 68 L 67 68 Z "/>
</clipPath>
<clipPath id="clip56">
  <path d="M 73.019531 86.550781 C 79.113281 86.550781 84.050781 81.613281 84.050781 75.519531 C 84.050781 69.429688 79.113281 64.488281 73.019531 64.488281 C 66.929688 64.488281 61.988281 69.429688 61.988281 75.519531 C 61.988281 81.613281 66.929688 86.550781 73.019531 86.550781 "/>
</clipPath>
<clipPath id="clip57">
  <path d="M 68 64 L 72 64 L 72 68 L 68 68 Z "/>
</clipPath>
<clipPath id="clip58">
  <path d="M 73.019531 86.550781 C 79.113281 86.550781 84.050781 81.613281 84.050781 75.519531 C 84.050781 69.429688 79.113281 64.488281 73.019531 64.488281 C 66.929688 64.488281 61.988281 69.429688 61.988281 75.519531 C 61.988281 81.613281 66.929688 86.550781 73.019531 86.550781 "/>
</clipPath>
<clipPath id="clip59">
  <path d="M 68 64 L 71 64 L 71 67 L 68 67 Z "/>
</clipPath>
<clipPath id="clip60">
  <path d="M 73.019531 86.550781 C 79.113281 86.550781 84.050781 81.613281 84.050781 75.519531 C 84.050781 69.429688 79.113281 64.488281 73.019531 64.488281 C 66.929688 64.488281 61.988281 69.429688 61.988281 75.519531 C 61.988281 81.613281 66.929688 86.550781 73.019531 86.550781 "/>
</clipPath>
<clipPath id="clip61">
  <path d="M 69 64 L 71 64 L 71 67 L 69 67 Z "/>
</clipPath>
<clipPath id="clip62">
  <path d="M 73.019531 86.550781 C 79.113281 86.550781 84.050781 81.613281 84.050781 75.519531 C 84.050781 69.429688 79.113281 64.488281 73.019531 64.488281 C 66.929688 64.488281 61.988281 69.429688 61.988281 75.519531 C 61.988281 81.613281 66.929688 86.550781 73.019531 86.550781 "/>
</clipPath>
<clipPath id="clip63">
  <path d="M 69 65 L 71 65 L 71 67 L 69 67 Z "/>
</clipPath>
<clipPath id="clip64">
  <path d="M 73.019531 86.550781 C 79.113281 86.550781 84.050781 81.613281 84.050781 75.519531 C 84.050781 69.429688 79.113281 64.488281 73.019531 64.488281 C 66.929688 64.488281 61.988281 69.429688 61.988281 75.519531 C 61.988281 81.613281 66.929688 86.550781 73.019531 86.550781 "/>
</clipPath>
<clipPath id="clip65">
  <path d="M 69 65 L 71 65 L 71 66 L 69 66 Z "/>
</clipPath>
<clipPath id="clip66">
  <path d="M 73.019531 86.550781 C 79.113281 86.550781 84.050781 81.613281 84.050781 75.519531 C 84.050781 69.429688 79.113281 64.488281 73.019531 64.488281 C 66.929688 64.488281 61.988281 69.429688 61.988281 75.519531 C 61.988281 81.613281 66.929688 86.550781 73.019531 86.550781 "/>
</clipPath>
<clipPath id="clip67">
  <path d="M 70 65 L 71 65 L 71 66 L 70 66 Z "/>
</clipPath>
<clipPath id="clip68">
  <path d="M 73.019531 86.550781 C 79.113281 86.550781 84.050781 81.613281 84.050781 75.519531 C 84.050781 69.429688 79.113281 64.488281 73.019531 64.488281 C 66.929688 64.488281 61.988281 69.429688 61.988281 75.519531 C 61.988281 81.613281 66.929688 86.550781 73.019531 86.550781 "/>
</clipPath>
</defs>
<g id="surface1">
<path style=" stroke:none;fill-rule:nonzero;fill:rgb(100%,100%,100%);fill-opacity:1;" d="M 32.351562 52.808594 L 22.976562 68.683594 L 146.726562 124.933594 L 156.351562 107.808594 L 32.351562 52.808594 "/>
<path style="fill:none;stroke-width:10;stroke-linecap:butt;stroke-linejoin:miter;stroke:rgb(0%,0%,0%);stroke-opacity:1;stroke-miterlimit:4;" d="M 323.515625 731.914062 L 229.765625 573.164062 L 1467.265625 10.664062 L 1563.515625 181.914062 Z " transform="matrix(0.1,0,0,-0.1,0,126)"/>
<path style=" stroke:none;fill-rule:nonzero;fill:rgb(83.006287%,83.006287%,83.006287%);fill-opacity:1;" d="M 47.355469 66.734375 L 67.421875 21.664062 L 22.351562 1.601562 L 2.289062 46.667969 L 47.355469 66.734375 "/>
<path style="fill:none;stroke-width:10;stroke-linecap:butt;stroke-linejoin:miter;stroke:rgb(0%,0%,0%);stroke-opacity:1;stroke-miterlimit:4;" d="M 473.554688 592.65625 L 674.21875 1043.359375 L 223.515625 1243.984375 L 22.890625 793.320312 Z " transform="matrix(0.1,0,0,-0.1,0,126)"/>
<path style=" stroke:none;fill-rule:nonzero;fill:rgb(50%,50%,50%);fill-opacity:1;" d="M 67.421875 21.664062 L 47.5 67.144531 L 59.332031 84.332031 L 76 40.332031 L 67.421875 21.664062 "/>
<path style="fill:none;stroke-width:10;stroke-linecap:butt;stroke-linejoin:miter;stroke:rgb(0%,0%,0%);stroke-opacity:1;stroke-miterlimit:4;" d="M 674.21875 1043.359375 L 475 588.554688 L 593.320312 416.679688 L 760 856.679688 Z " transform="matrix(0.1,0,0,-0.1,0,126)"/>
<path style=" stroke:none;fill-rule:nonzero;fill:rgb(50%,50%,50%);fill-opacity:1;" d="M 2.289062 46.667969 L 47.5 67.144531 L 59.332031 84.332031 L 16 67 L 2.289062 46.667969 "/>
<path style="fill:none;stroke-width:10;stroke-linecap:butt;stroke-linejoin:miter;stroke:rgb(0%,0%,0%);stroke-opacity:1;stroke-miterlimit:4;" d="M 22.890625 793.320312 L 475 588.554688 L 593.320312 416.679688 L 160 590 Z " transform="matrix(0.1,0,0,-0.1,0,126)"/>
<g clip-path="url(#clip1)" clip-rule="nonzero">
<g clip-path="url(#clip2)" clip-rule="nonzero">
<path style=" stroke:none;fill-rule:nonzero;fill:rgb(43.992615%,43.992615%,43.992615%);fill-opacity:1;" d="M 73.019531 86.550781 C 79.113281 86.550781 84.050781 81.613281 84.050781 75.519531 C 84.050781 69.429688 79.113281 64.488281 73.019531 64.488281 C 66.929688 64.488281 61.988281 69.429688 61.988281 75.519531 C 61.988281 81.613281 66.929688 86.550781 73.019531 86.550781 "/>
</g>
</g>
<g clip-path="url(#clip3)" clip-rule="nonzero">
<g clip-path="url(#clip4)" clip-rule="nonzero">
<path style=" stroke:none;fill-rule:nonzero;fill:rgb(43.992615%,43.992615%,43.992615%);fill-opacity:1;" d="M 77.246094 77.84375 C 73.046875 84.253906 64.453125 86.042969 58.046875 81.84375 C 51.640625 77.648438 49.847656 69.050781 54.046875 62.644531 C 58.242188 56.238281 66.839844 54.449219 73.246094 58.644531 C 79.652344 62.84375 81.441406 71.441406 77.246094 77.84375 "/>
<path style=" stroke:none;fill-rule:nonzero;fill:rgb(43.920898%,43.920898%,43.920898%);fill-opacity:1;" d="M 77.246094 77.84375 C 73.046875 84.253906 64.453125 86.042969 58.046875 81.84375 C 51.640625 77.648438 49.847656 69.050781 54.046875 62.644531 C 58.242188 56.238281 66.839844 54.449219 73.246094 58.644531 C 79.652344 62.84375 81.441406 71.441406 77.246094 77.84375 "/>
</g>
</g>
<g clip-path="url(#clip5)" clip-rule="nonzero">
<g clip-path="url(#clip6)" clip-rule="nonzero">
<path style=" stroke:none;fill-rule:nonzero;fill:rgb(44.309998%,44.309998%,44.309998%);fill-opacity:1;" d="M 77.195312 77.757812 C 73.027344 84.121094 64.492188 85.898438 58.132812 81.730469 C 51.769531 77.5625 49.992188 69.027344 54.160156 62.664062 C 58.328125 56.304688 66.863281 54.523438 73.222656 58.691406 C 79.585938 62.859375 81.363281 71.398438 77.195312 77.757812 "/>
<path style=" stroke:none;fill-rule:nonzero;fill:rgb(44.700623%,44.700623%,44.700623%);fill-opacity:1;" d="M 77.148438 77.671875 C 73.007812 83.988281 64.53125 85.753906 58.214844 81.617188 C 51.898438 77.476562 50.132812 69 54.273438 62.683594 C 58.410156 56.367188 66.886719 54.601562 73.203125 58.738281 C 79.519531 62.878906 81.285156 71.355469 77.148438 77.671875 "/>
<path style=" stroke:none;fill-rule:nonzero;fill:rgb(45.092773%,45.092773%,45.092773%);fill-opacity:1;" d="M 77.097656 77.585938 C 72.988281 83.855469 64.574219 85.609375 58.300781 81.5 C 52.03125 77.390625 50.277344 68.976562 54.386719 62.703125 C 58.492188 56.429688 66.910156 54.679688 73.183594 58.785156 C 79.453125 62.894531 81.207031 71.3125 77.097656 77.585938 "/>
<path style=" stroke:none;fill-rule:nonzero;fill:rgb(45.483398%,45.483398%,45.483398%);fill-opacity:1;" d="M 77.046875 77.496094 C 72.96875 83.722656 64.613281 85.464844 58.386719 81.386719 C 52.160156 77.304688 50.417969 68.949219 54.496094 62.722656 C 58.578125 56.496094 66.933594 54.753906 73.160156 58.835938 C 79.386719 62.914062 81.128906 71.269531 77.046875 77.496094 "/>
<path style=" stroke:none;fill-rule:nonzero;fill:rgb(45.872498%,45.872498%,45.872498%);fill-opacity:1;" d="M 77 77.410156 C 72.949219 83.59375 64.652344 85.320312 58.472656 81.269531 C 52.289062 77.21875 50.558594 68.921875 54.609375 62.742188 C 58.660156 56.558594 66.957031 54.832031 73.140625 58.882812 C 79.320312 62.933594 81.050781 71.226562 77 77.410156 "/>
<path style=" stroke:none;fill-rule:nonzero;fill:rgb(46.263123%,46.263123%,46.263123%);fill-opacity:1;" d="M 76.949219 77.324219 C 72.929688 83.460938 64.695312 85.175781 58.554688 81.15625 C 52.417969 77.132812 50.703125 68.898438 54.722656 62.761719 C 58.746094 56.625 66.980469 54.90625 73.117188 58.929688 C 79.257812 62.949219 80.972656 71.183594 76.949219 77.324219 "/>
<path style=" stroke:none;fill-rule:nonzero;fill:rgb(46.655273%,46.655273%,46.655273%);fill-opacity:1;" d="M 76.902344 77.234375 C 72.910156 83.328125 64.734375 85.03125 58.640625 81.039062 C 52.546875 77.046875 50.84375 68.871094 54.835938 62.78125 C 58.828125 56.6875 67.003906 54.984375 73.097656 58.976562 C 79.191406 62.96875 80.894531 71.144531 76.902344 77.234375 "/>
</g>
</g>
<g clip-path="url(#clip7)" clip-rule="nonzero">
<g clip-path="url(#clip8)" clip-rule="nonzero">
<path style=" stroke:none;fill-rule:nonzero;fill:rgb(47.068787%,47.068787%,47.068787%);fill-opacity:1;" d="M 76.851562 77.148438 C 72.890625 83.195312 64.773438 84.886719 58.726562 80.925781 C 52.679688 76.964844 50.988281 68.847656 54.949219 62.800781 C 58.910156 56.75 67.027344 55.058594 73.074219 59.023438 C 79.125 62.984375 80.816406 71.101562 76.851562 77.148438 "/>
</g>
</g>
<g clip-path="url(#clip9)" clip-rule="nonzero">
<g clip-path="url(#clip10)" clip-rule="nonzero">
<path style=" stroke:none;fill-rule:nonzero;fill:rgb(47.459412%,47.459412%,47.459412%);fill-opacity:1;" d="M 76.800781 77.0625 C 72.871094 83.066406 64.816406 84.742188 58.8125 80.808594 C 52.808594 76.878906 51.128906 68.820312 55.0625 62.820312 C 58.996094 56.816406 67.050781 55.136719 73.054688 59.070312 C 79.058594 63.003906 80.734375 71.058594 76.800781 77.0625 "/>
<path style=" stroke:none;fill-rule:nonzero;fill:rgb(47.851562%,47.851562%,47.851562%);fill-opacity:1;" d="M 76.753906 76.972656 C 72.851562 82.933594 64.855469 84.597656 58.898438 80.695312 C 52.9375 76.789062 51.273438 68.796875 55.175781 62.835938 C 59.078125 56.878906 67.074219 55.214844 73.03125 59.117188 C 78.992188 63.019531 80.65625 71.015625 76.753906 76.972656 "/>
<path style=" stroke:none;fill-rule:nonzero;fill:rgb(48.242188%,48.242188%,48.242188%);fill-opacity:1;" d="M 76.703125 76.886719 C 72.832031 82.800781 64.894531 84.453125 58.980469 80.578125 C 53.066406 76.707031 51.414062 68.769531 55.289062 62.855469 C 59.164062 56.941406 67.097656 55.289062 73.011719 59.164062 C 78.925781 63.039062 80.578125 70.972656 76.703125 76.886719 "/>
<path style=" stroke:none;fill-rule:nonzero;fill:rgb(48.631287%,48.631287%,48.631287%);fill-opacity:1;" d="M 76.65625 76.800781 C 72.808594 82.667969 64.933594 84.308594 59.066406 80.464844 C 53.199219 76.621094 51.558594 68.746094 55.402344 62.875 C 59.246094 57.007812 67.121094 55.367188 72.992188 59.210938 C 78.859375 63.054688 80.5 70.929688 76.65625 76.800781 "/>
<path style=" stroke:none;fill-rule:nonzero;fill:rgb(49.021912%,49.021912%,49.021912%);fill-opacity:1;" d="M 76.605469 76.714844 C 72.789062 82.535156 64.976562 84.164062 59.152344 80.347656 C 53.328125 76.535156 51.699219 68.71875 55.515625 62.894531 C 59.332031 57.070312 67.144531 55.441406 72.96875 59.257812 C 78.792969 63.074219 80.421875 70.890625 76.605469 76.714844 "/>
<path style=" stroke:none;fill-rule:nonzero;fill:rgb(49.414062%,49.414062%,49.414062%);fill-opacity:1;" d="M 76.554688 76.625 C 72.769531 82.40625 65.015625 84.019531 59.238281 80.234375 C 53.457031 76.449219 51.84375 68.695312 55.628906 62.914062 C 59.414062 57.136719 67.167969 55.519531 72.949219 59.304688 C 78.726562 63.09375 80.34375 70.847656 76.554688 76.625 "/>
<path style=" stroke:none;fill-rule:nonzero;fill:rgb(49.804688%,49.804688%,49.804688%);fill-opacity:1;" d="M 76.507812 76.539062 C 72.75 82.273438 65.054688 83.875 59.320312 80.117188 C 53.585938 76.363281 51.984375 68.667969 55.742188 62.933594 C 59.496094 57.199219 67.191406 55.59375 72.925781 59.351562 C 78.660156 63.109375 80.265625 70.804688 76.507812 76.539062 "/>
<path style=" stroke:none;fill-rule:nonzero;fill:rgb(50.193787%,50.193787%,50.193787%);fill-opacity:1;" d="M 76.457031 76.453125 C 72.730469 82.140625 65.097656 83.730469 59.40625 80.003906 C 53.71875 76.277344 52.128906 68.640625 55.855469 62.953125 C 59.582031 57.261719 67.214844 55.671875 72.90625 59.398438 C 78.59375 63.128906 80.183594 70.761719 76.457031 76.453125 "/>
</g>
</g>
<g clip-path="url(#clip11)" clip-rule="nonzero">
<g clip-path="url(#clip12)" clip-rule="nonzero">
<path style=" stroke:none;fill-rule:nonzero;fill:rgb(50.584412%,50.584412%,50.584412%);fill-opacity:1;" d="M 76.410156 76.363281 C 72.710938 82.007812 65.136719 83.585938 59.492188 79.890625 C 53.847656 76.191406 52.269531 68.617188 55.96875 62.972656 C 59.664062 57.328125 67.238281 55.75 72.886719 59.445312 C 78.53125 63.144531 80.105469 70.71875 76.410156 76.363281 "/>
<path style=" stroke:none;fill-rule:nonzero;fill:rgb(50.976562%,50.976562%,50.976562%);fill-opacity:1;" d="M 76.359375 76.277344 C 72.691406 81.878906 65.175781 83.441406 59.578125 79.773438 C 53.976562 76.105469 52.410156 68.589844 56.082031 62.992188 C 59.75 57.390625 67.261719 55.824219 72.863281 59.492188 C 78.464844 63.164062 80.027344 70.675781 76.359375 76.277344 "/>
<path style=" stroke:none;fill-rule:nonzero;fill:rgb(51.367188%,51.367188%,51.367188%);fill-opacity:1;" d="M 76.308594 76.191406 C 72.671875 81.746094 65.21875 83.296875 59.660156 79.660156 C 54.105469 76.019531 52.554688 68.566406 56.195312 63.011719 C 59.832031 57.453125 67.285156 55.902344 72.84375 59.542969 C 78.398438 63.179688 79.949219 70.636719 76.308594 76.191406 "/>
<path style=" stroke:none;fill-rule:nonzero;fill:rgb(51.756287%,51.756287%,51.756287%);fill-opacity:1;" d="M 76.261719 76.101562 C 72.652344 81.613281 65.257812 83.152344 59.746094 79.542969 C 54.234375 75.933594 52.695312 68.539062 56.304688 63.03125 C 59.917969 57.519531 67.308594 55.976562 72.820312 59.589844 C 78.332031 63.199219 79.871094 70.59375 76.261719 76.101562 "/>
<path style=" stroke:none;fill-rule:nonzero;fill:rgb(52.146912%,52.146912%,52.146912%);fill-opacity:1;" d="M 76.210938 76.015625 C 72.632812 81.480469 65.296875 83.007812 59.832031 79.429688 C 54.367188 75.847656 52.839844 68.515625 56.417969 63.046875 C 60 57.582031 67.335938 56.054688 72.800781 59.636719 C 78.265625 63.214844 79.792969 70.550781 76.210938 76.015625 "/>
<path style=" stroke:none;fill-rule:nonzero;fill:rgb(52.539062%,52.539062%,52.539062%);fill-opacity:1;" d="M 76.164062 75.929688 C 72.613281 81.347656 65.335938 82.863281 59.917969 79.3125 C 54.496094 75.761719 52.980469 68.488281 56.53125 63.066406 C 60.082031 57.648438 67.359375 56.132812 72.777344 59.683594 C 78.199219 63.234375 79.714844 70.507812 76.164062 75.929688 "/>
<path style=" stroke:none;fill-rule:nonzero;fill:rgb(52.929688%,52.929688%,52.929688%);fill-opacity:1;" d="M 76.113281 75.84375 C 72.59375 81.21875 65.378906 82.71875 60.003906 79.199219 C 54.625 75.675781 53.121094 68.460938 56.644531 63.085938 C 60.167969 57.710938 67.382812 56.207031 72.757812 59.730469 C 78.132812 63.253906 79.636719 70.464844 76.113281 75.84375 "/>
</g>
</g>
<g clip-path="url(#clip13)" clip-rule="nonzero">
<g clip-path="url(#clip14)" clip-rule="nonzero">
<path style=" stroke:none;fill-rule:nonzero;fill:rgb(53.318787%,53.318787%,53.318787%);fill-opacity:1;" d="M 76.066406 75.753906 C 72.570312 81.085938 65.417969 82.578125 60.085938 79.082031 C 54.757812 75.589844 53.265625 68.4375 56.757812 63.105469 C 60.25 57.773438 67.40625 56.285156 72.734375 59.777344 C 78.066406 63.269531 79.558594 70.421875 76.066406 75.753906 "/>
<path style=" stroke:none;fill-rule:nonzero;fill:rgb(53.709412%,53.709412%,53.709412%);fill-opacity:1;" d="M 76.015625 75.667969 C 72.550781 80.953125 65.457031 82.429688 60.171875 78.96875 C 54.886719 75.503906 53.40625 68.410156 56.871094 63.125 C 60.335938 57.839844 67.429688 56.359375 72.714844 59.824219 C 78 63.289062 79.476562 70.382812 76.015625 75.667969 "/>
<path style=" stroke:none;fill-rule:nonzero;fill:rgb(54.101562%,54.101562%,54.101562%);fill-opacity:1;" d="M 75.964844 75.582031 C 72.53125 80.820312 65.5 82.285156 60.257812 78.851562 C 55.015625 75.417969 53.550781 68.386719 56.984375 63.144531 C 60.417969 57.902344 67.453125 56.4375 72.695312 59.871094 C 77.933594 63.304688 79.398438 70.339844 75.964844 75.582031 "/>
<path style=" stroke:none;fill-rule:nonzero;fill:rgb(54.492188%,54.492188%,54.492188%);fill-opacity:1;" d="M 75.917969 75.492188 C 72.511719 80.691406 65.539062 82.144531 60.34375 78.738281 C 55.144531 75.332031 53.691406 68.359375 57.097656 63.164062 C 60.503906 57.96875 67.476562 56.515625 72.671875 59.917969 C 77.867188 63.324219 79.320312 70.296875 75.917969 75.492188 "/>
<path style=" stroke:none;fill-rule:nonzero;fill:rgb(54.881287%,54.881287%,54.881287%);fill-opacity:1;" d="M 75.867188 75.40625 C 72.492188 80.558594 65.578125 82 60.425781 78.621094 C 55.277344 75.246094 53.835938 68.335938 57.210938 63.183594 C 60.585938 58.03125 67.5 56.589844 72.652344 59.964844 C 77.800781 63.339844 79.242188 70.253906 75.867188 75.40625 "/>
<path style=" stroke:none;fill-rule:nonzero;fill:rgb(55.271912%,55.271912%,55.271912%);fill-opacity:1;" d="M 75.820312 75.320312 C 72.472656 80.425781 65.617188 81.851562 60.511719 78.507812 C 55.40625 75.160156 53.976562 68.308594 57.324219 63.203125 C 60.667969 58.09375 67.523438 56.667969 72.628906 60.011719 C 77.738281 63.359375 79.164062 70.210938 75.820312 75.320312 "/>
<path style=" stroke:none;fill-rule:nonzero;fill:rgb(55.664062%,55.664062%,55.664062%);fill-opacity:1;" d="M 75.769531 75.230469 C 72.453125 80.292969 65.660156 81.710938 60.597656 78.394531 C 55.535156 75.078125 54.121094 68.28125 57.4375 63.21875 C 60.753906 58.160156 67.546875 56.742188 72.609375 60.058594 C 77.671875 63.375 79.085938 70.167969 75.769531 75.230469 "/>
<path style=" stroke:none;fill-rule:nonzero;fill:rgb(56.054688%,56.054688%,56.054688%);fill-opacity:1;" d="M 75.71875 75.144531 C 72.433594 80.160156 65.699219 81.566406 60.683594 78.277344 C 55.664062 74.992188 54.261719 68.257812 57.550781 63.238281 C 60.835938 58.222656 67.570312 56.820312 72.585938 60.105469 C 77.605469 63.394531 79.007812 70.128906 75.71875 75.144531 "/>
</g>
</g>
<g clip-path="url(#clip15)" clip-rule="nonzero">
<g clip-path="url(#clip16)" clip-rule="nonzero">
<path style=" stroke:none;fill-rule:nonzero;fill:rgb(56.443787%,56.443787%,56.443787%);fill-opacity:1;" d="M 75.671875 75.058594 C 72.414062 80.03125 65.738281 81.421875 60.765625 78.164062 C 55.792969 74.90625 54.40625 68.230469 57.664062 63.257812 C 60.921875 58.285156 67.59375 56.894531 72.566406 60.152344 C 77.539062 63.410156 78.929688 70.085938 75.671875 75.058594 "/>
<path style=" stroke:none;fill-rule:nonzero;fill:rgb(56.834412%,56.834412%,56.834412%);fill-opacity:1;" d="M 75.621094 74.96875 C 72.394531 79.898438 65.78125 81.277344 60.851562 78.046875 C 55.925781 74.820312 54.546875 68.207031 57.777344 63.277344 C 61.003906 58.351562 67.617188 56.972656 72.542969 60.203125 C 77.472656 63.429688 78.851562 70.042969 75.621094 74.96875 "/>
<path style=" stroke:none;fill-rule:nonzero;fill:rgb(57.226562%,57.226562%,57.226562%);fill-opacity:1;" d="M 75.574219 74.882812 C 72.371094 79.765625 65.820312 81.132812 60.9375 77.933594 C 56.054688 74.734375 54.6875 68.179688 57.886719 63.296875 C 61.085938 58.414062 67.640625 57.050781 72.523438 60.25 C 77.40625 63.449219 78.773438 70 75.574219 74.882812 "/>
<path style=" stroke:none;fill-rule:nonzero;fill:rgb(57.617188%,57.617188%,57.617188%);fill-opacity:1;" d="M 75.523438 74.796875 C 72.351562 79.632812 65.859375 80.988281 61.023438 77.816406 C 56.183594 74.648438 54.832031 68.15625 58 63.316406 C 61.171875 58.476562 67.664062 57.125 72.503906 60.296875 C 77.339844 63.464844 78.691406 69.957031 75.523438 74.796875 "/>
<path style=" stroke:none;fill-rule:nonzero;fill:rgb(58.006287%,58.006287%,58.006287%);fill-opacity:1;" d="M 75.472656 74.710938 C 72.332031 79.503906 65.902344 80.84375 61.105469 77.703125 C 56.3125 74.5625 54.972656 68.128906 58.113281 63.335938 C 61.253906 58.542969 67.6875 57.203125 72.480469 60.34375 C 77.273438 63.484375 78.613281 69.914062 75.472656 74.710938 "/>
<path style=" stroke:none;fill-rule:nonzero;fill:rgb(58.396912%,58.396912%,58.396912%);fill-opacity:1;" d="M 75.425781 74.621094 C 72.3125 79.371094 65.941406 80.699219 61.191406 77.585938 C 56.445312 74.476562 55.117188 68.101562 58.226562 63.355469 C 61.339844 58.605469 67.710938 57.277344 72.460938 60.390625 C 77.207031 63.5 78.535156 69.875 75.425781 74.621094 "/>
<path style=" stroke:none;fill-rule:nonzero;fill:rgb(58.789062%,58.789062%,58.789062%);fill-opacity:1;" d="M 75.375 74.535156 C 72.292969 79.238281 65.980469 80.554688 61.277344 77.472656 C 56.574219 74.390625 55.257812 68.078125 58.339844 63.375 C 61.421875 58.671875 67.734375 57.355469 72.4375 60.4375 C 77.140625 63.519531 78.457031 69.832031 75.375 74.535156 "/>
</g>
</g>
<g clip-path="url(#clip17)" clip-rule="nonzero">
<g clip-path="url(#clip18)" clip-rule="nonzero">
<path style=" stroke:none;fill-rule:nonzero;fill:rgb(59.179688%,59.179688%,59.179688%);fill-opacity:1;" d="M 75.328125 74.449219 C 72.273438 79.105469 66.023438 80.410156 61.363281 77.355469 C 56.703125 74.304688 55.402344 68.050781 58.453125 63.394531 C 61.507812 58.734375 67.757812 57.429688 72.417969 60.484375 C 77.078125 63.535156 78.378906 69.789062 75.328125 74.449219 "/>
</g>
</g>
<g clip-path="url(#clip19)" clip-rule="nonzero">
<g clip-path="url(#clip20)" clip-rule="nonzero">
<path style=" stroke:none;fill-rule:nonzero;fill:rgb(59.568787%,59.568787%,59.568787%);fill-opacity:1;" d="M 75.277344 74.359375 C 72.253906 78.972656 66.0625 80.265625 61.449219 77.242188 C 56.832031 74.21875 55.542969 68.027344 58.566406 63.414062 C 61.589844 58.796875 67.78125 57.507812 72.394531 60.53125 C 77.011719 63.554688 78.300781 69.746094 75.277344 74.359375 "/>
<path style=" stroke:none;fill-rule:nonzero;fill:rgb(59.959412%,59.959412%,59.959412%);fill-opacity:1;" d="M 75.226562 74.273438 C 72.234375 78.84375 66.101562 80.121094 61.53125 77.125 C 56.964844 74.132812 55.6875 68 58.679688 63.429688 C 61.671875 58.863281 67.804688 57.585938 72.375 60.578125 C 76.945312 63.570312 78.222656 69.703125 75.226562 74.273438 "/>
<path style=" stroke:none;fill-rule:nonzero;fill:rgb(60.351562%,60.351562%,60.351562%);fill-opacity:1;" d="M 75.179688 74.1875 C 72.214844 78.710938 66.144531 79.976562 61.617188 77.011719 C 57.09375 74.046875 55.828125 67.976562 58.792969 63.449219 C 61.757812 58.925781 67.828125 57.660156 72.351562 60.625 C 76.878906 63.589844 78.144531 69.660156 75.179688 74.1875 "/>
<path style=" stroke:none;fill-rule:nonzero;fill:rgb(60.742188%,60.742188%,60.742188%);fill-opacity:1;" d="M 75.128906 74.097656 C 72.195312 78.578125 66.183594 79.832031 61.703125 76.898438 C 57.222656 73.960938 55.96875 67.949219 58.90625 63.46875 C 61.839844 58.988281 67.851562 57.738281 72.332031 60.671875 C 76.8125 63.605469 78.066406 69.617188 75.128906 74.097656 "/>
<path style=" stroke:none;fill-rule:nonzero;fill:rgb(61.131287%,61.131287%,61.131287%);fill-opacity:1;" d="M 75.082031 74.011719 C 72.175781 78.445312 66.222656 79.6875 61.789062 76.78125 C 57.351562 73.875 56.113281 67.925781 59.019531 63.488281 C 61.925781 59.054688 67.875 57.8125 72.3125 60.71875 C 76.746094 63.625 77.984375 69.578125 75.082031 74.011719 "/>
<path style=" stroke:none;fill-rule:nonzero;fill:rgb(61.521912%,61.521912%,61.521912%);fill-opacity:1;" d="M 75.03125 73.925781 C 72.15625 78.316406 66.261719 79.542969 61.871094 76.664062 C 57.484375 73.789062 56.253906 67.898438 59.132812 63.507812 C 62.007812 59.117188 67.898438 57.890625 72.289062 60.765625 C 76.679688 63.644531 77.90625 69.535156 75.03125 73.925781 "/>
<path style=" stroke:none;fill-rule:nonzero;fill:rgb(61.914062%,61.914062%,61.914062%);fill-opacity:1;" d="M 74.980469 73.835938 C 72.136719 78.183594 66.304688 79.398438 61.957031 76.550781 C 57.613281 73.703125 56.398438 67.871094 59.246094 63.527344 C 62.09375 59.183594 67.921875 57.96875 72.269531 60.8125 C 76.613281 63.660156 77.828125 69.492188 74.980469 73.835938 "/>
</g>
</g>
<g clip-path="url(#clip21)" clip-rule="nonzero">
<g clip-path="url(#clip22)" clip-rule="nonzero">
<path style=" stroke:none;fill-rule:nonzero;fill:rgb(62.304688%,62.304688%,62.304688%);fill-opacity:1;" d="M 74.933594 73.75 C 72.113281 78.050781 66.34375 79.253906 62.042969 76.4375 C 57.742188 73.617188 56.539062 67.847656 59.359375 63.546875 C 62.175781 59.246094 67.945312 58.042969 72.246094 60.859375 C 76.546875 63.679688 77.75 69.449219 74.933594 73.75 "/>
<path style=" stroke:none;fill-rule:nonzero;fill:rgb(62.693787%,62.693787%,62.693787%);fill-opacity:1;" d="M 74.882812 73.664062 C 72.09375 77.917969 66.382812 79.109375 62.128906 76.320312 C 57.871094 73.53125 56.683594 67.820312 59.46875 63.566406 C 62.257812 59.308594 67.96875 58.121094 72.226562 60.90625 C 76.480469 63.695312 77.671875 69.40625 74.882812 73.664062 "/>
<path style=" stroke:none;fill-rule:nonzero;fill:rgb(63.084412%,63.084412%,63.084412%);fill-opacity:1;" d="M 74.835938 73.578125 C 72.074219 77.789062 66.425781 78.964844 62.214844 76.207031 C 58.003906 73.445312 56.824219 67.796875 59.582031 63.585938 C 62.34375 59.375 67.992188 58.195312 72.203125 60.957031 C 76.414062 63.714844 77.59375 69.363281 74.835938 73.578125 "/>
<path style=" stroke:none;fill-rule:nonzero;fill:rgb(63.476562%,63.476562%,63.476562%);fill-opacity:1;" d="M 74.785156 73.488281 C 72.054688 77.65625 66.464844 78.820312 62.296875 76.089844 C 58.132812 73.359375 56.96875 67.769531 59.695312 63.605469 C 62.425781 59.4375 68.015625 58.273438 72.183594 61.003906 C 76.347656 63.730469 77.515625 69.324219 74.785156 73.488281 "/>
<path style=" stroke:none;fill-rule:nonzero;fill:rgb(63.867188%,63.867188%,63.867188%);fill-opacity:1;" d="M 74.734375 73.402344 C 72.035156 77.523438 66.503906 78.675781 62.382812 75.976562 C 58.261719 73.277344 57.109375 67.746094 59.808594 63.621094 C 62.511719 59.5 68.039062 58.347656 72.160156 61.050781 C 76.285156 63.75 77.433594 69.28125 74.734375 73.402344 "/>
<path style=" stroke:none;fill-rule:nonzero;fill:rgb(64.256287%,64.256287%,64.256287%);fill-opacity:1;" d="M 74.6875 73.316406 C 72.015625 77.390625 66.542969 78.53125 62.46875 75.859375 C 58.390625 73.191406 57.253906 67.71875 59.921875 63.640625 C 62.59375 59.566406 68.0625 58.425781 72.140625 61.097656 C 76.21875 63.769531 77.355469 69.238281 74.6875 73.316406 "/>
<path style=" stroke:none;fill-rule:nonzero;fill:rgb(64.646912%,64.646912%,64.646912%);fill-opacity:1;" d="M 74.636719 73.226562 C 71.996094 77.261719 66.585938 78.386719 62.554688 75.746094 C 58.523438 73.105469 57.394531 67.695312 60.035156 63.660156 C 62.675781 59.628906 68.085938 58.503906 72.121094 61.144531 C 76.152344 63.785156 77.277344 69.195312 74.636719 73.226562 "/>
</g>
</g>
<g clip-path="url(#clip23)" clip-rule="nonzero">
<g clip-path="url(#clip24)" clip-rule="nonzero">
<path style=" stroke:none;fill-rule:nonzero;fill:rgb(65.429688%,65.429688%,65.429688%);fill-opacity:1;" d="M 74.589844 73.140625 C 71.976562 77.128906 66.625 78.242188 62.636719 75.628906 C 58.652344 73.019531 57.535156 67.667969 60.148438 63.679688 C 62.761719 59.695312 68.109375 58.578125 72.097656 61.191406 C 76.085938 63.804688 77.199219 69.152344 74.589844 73.140625 "/>
</g>
</g>
<g clip-path="url(#clip25)" clip-rule="nonzero">
<g clip-path="url(#clip26)" clip-rule="nonzero">
<path style=" stroke:none;fill-rule:nonzero;fill:rgb(65.818787%,65.818787%,65.818787%);fill-opacity:1;" d="M 74.539062 73.054688 C 71.957031 76.996094 66.664062 78.097656 62.722656 75.515625 C 58.78125 72.933594 57.679688 67.640625 60.261719 63.699219 C 62.84375 59.757812 68.136719 58.65625 72.078125 61.238281 C 76.019531 63.820312 77.121094 69.109375 74.539062 73.054688 "/>
<path style=" stroke:none;fill-rule:nonzero;fill:rgb(66.209412%,66.209412%,66.209412%);fill-opacity:1;" d="M 74.488281 72.964844 C 71.9375 76.863281 66.707031 77.953125 62.808594 75.398438 C 58.910156 72.847656 57.820312 67.617188 60.375 63.71875 C 62.929688 59.820312 68.15625 58.730469 72.054688 61.285156 C 75.953125 63.839844 77.042969 69.070312 74.488281 72.964844 "/>
<path style=" stroke:none;fill-rule:nonzero;fill:rgb(66.601562%,66.601562%,66.601562%);fill-opacity:1;" d="M 74.441406 72.878906 C 71.914062 76.730469 66.746094 77.808594 62.894531 75.285156 C 59.039062 72.761719 57.964844 67.589844 60.488281 63.738281 C 63.011719 59.886719 68.183594 58.808594 72.035156 61.332031 C 75.886719 63.855469 76.964844 69.027344 74.441406 72.878906 "/>
<path style=" stroke:none;fill-rule:nonzero;fill:rgb(66.992188%,66.992188%,66.992188%);fill-opacity:1;" d="M 74.390625 72.792969 C 71.894531 76.601562 66.785156 77.664062 62.976562 75.167969 C 59.171875 72.675781 58.105469 67.566406 60.601562 63.757812 C 63.09375 59.949219 68.207031 58.886719 72.011719 61.378906 C 75.820312 63.875 76.886719 68.984375 74.390625 72.792969 "/>
<path style=" stroke:none;fill-rule:nonzero;fill:rgb(67.381287%,67.381287%,67.381287%);fill-opacity:1;" d="M 74.34375 72.707031 C 71.875 76.46875 66.828125 77.519531 63.0625 75.054688 C 59.300781 72.589844 58.25 67.539062 60.714844 63.777344 C 63.179688 60.011719 68.230469 58.960938 71.992188 61.425781 C 75.753906 63.890625 76.808594 68.941406 74.34375 72.707031 "/>
<path style=" stroke:none;fill-rule:nonzero;fill:rgb(67.771912%,67.771912%,67.771912%);fill-opacity:1;" d="M 74.292969 72.617188 C 71.855469 76.335938 66.867188 77.375 63.148438 74.941406 C 59.429688 72.503906 58.390625 67.515625 60.828125 63.796875 C 63.261719 60.078125 68.253906 59.039062 71.96875 61.472656 C 75.6875 63.910156 76.726562 68.898438 74.292969 72.617188 "/>
<path style=" stroke:none;fill-rule:nonzero;fill:rgb(68.164062%,68.164062%,68.164062%);fill-opacity:1;" d="M 74.242188 72.53125 C 71.835938 76.203125 66.90625 77.230469 63.234375 74.824219 C 59.558594 72.417969 58.53125 67.488281 60.941406 63.816406 C 63.347656 60.140625 68.277344 59.113281 71.949219 61.519531 C 75.621094 63.925781 76.648438 68.855469 74.242188 72.53125 "/>
</g>
</g>
<g clip-path="url(#clip27)" clip-rule="nonzero">
<g clip-path="url(#clip28)" clip-rule="nonzero">
<path style=" stroke:none;fill-rule:nonzero;fill:rgb(68.554688%,68.554688%,68.554688%);fill-opacity:1;" d="M 74.195312 72.445312 C 71.816406 76.074219 66.949219 77.085938 63.320312 74.710938 C 59.691406 72.332031 58.675781 67.460938 61.050781 63.835938 C 63.429688 60.207031 68.300781 59.191406 71.929688 61.566406 C 75.558594 63.945312 76.570312 68.816406 74.195312 72.445312 "/>
<path style=" stroke:none;fill-rule:nonzero;fill:rgb(68.943787%,68.943787%,68.943787%);fill-opacity:1;" d="M 74.144531 72.355469 C 71.796875 75.941406 66.988281 76.941406 63.402344 74.59375 C 59.820312 72.246094 58.816406 67.4375 61.164062 63.851562 C 63.515625 60.269531 68.324219 59.265625 71.90625 61.613281 C 75.492188 63.964844 76.492188 68.773438 74.144531 72.355469 "/>
<path style=" stroke:none;fill-rule:nonzero;fill:rgb(69.334412%,69.334412%,69.334412%);fill-opacity:1;" d="M 74.09375 72.269531 C 71.777344 75.808594 67.027344 76.796875 63.488281 74.480469 C 59.949219 72.160156 58.960938 67.410156 61.277344 63.871094 C 63.597656 60.332031 68.347656 59.34375 71.886719 61.664062 C 75.425781 63.980469 76.414062 68.730469 74.09375 72.269531 "/>
<path style=" stroke:none;fill-rule:nonzero;fill:rgb(69.726562%,69.726562%,69.726562%);fill-opacity:1;" d="M 74.046875 72.183594 C 71.757812 75.675781 67.066406 76.652344 63.574219 74.363281 C 60.078125 72.074219 59.101562 67.386719 61.390625 63.890625 C 63.679688 60.398438 68.371094 59.421875 71.863281 61.710938 C 75.359375 64 76.335938 68.6875 74.046875 72.183594 "/>
<path style=" stroke:none;fill-rule:nonzero;fill:rgb(70.117188%,70.117188%,70.117188%);fill-opacity:1;" d="M 73.996094 72.09375 C 71.738281 75.542969 67.109375 76.507812 63.660156 74.25 C 60.210938 71.988281 59.246094 67.359375 61.503906 63.910156 C 63.765625 60.460938 68.394531 59.496094 71.84375 61.757812 C 75.292969 64.015625 76.257812 68.644531 73.996094 72.09375 "/>
<path style=" stroke:none;fill-rule:nonzero;fill:rgb(70.506287%,70.506287%,70.506287%);fill-opacity:1;" d="M 73.949219 72.007812 C 71.71875 75.414062 67.148438 76.363281 63.742188 74.132812 C 60.339844 71.902344 59.386719 67.335938 61.617188 63.929688 C 63.847656 60.523438 68.417969 59.574219 71.824219 61.804688 C 75.226562 64.035156 76.179688 68.601562 73.949219 72.007812 "/>
<path style=" stroke:none;fill-rule:nonzero;fill:rgb(70.896912%,70.896912%,70.896912%);fill-opacity:1;" d="M 73.898438 71.921875 C 71.699219 75.28125 67.1875 76.21875 63.828125 74.019531 C 60.46875 71.816406 59.53125 67.308594 61.730469 63.949219 C 63.933594 60.589844 68.441406 59.648438 71.800781 61.851562 C 75.160156 64.050781 76.101562 68.5625 73.898438 71.921875 "/>
<path style=" stroke:none;fill-rule:nonzero;fill:rgb(71.289062%,71.289062%,71.289062%);fill-opacity:1;" d="M 73.847656 71.832031 C 71.675781 75.148438 67.230469 76.074219 63.914062 73.902344 C 60.597656 71.730469 59.671875 67.28125 61.84375 63.96875 C 64.015625 60.652344 68.464844 59.726562 71.78125 61.898438 C 75.09375 64.070312 76.023438 68.519531 73.847656 71.832031 "/>
</g>
</g>
<g clip-path="url(#clip29)" clip-rule="nonzero">
<g clip-path="url(#clip30)" clip-rule="nonzero">
<path style=" stroke:none;fill-rule:nonzero;fill:rgb(71.679688%,71.679688%,71.679688%);fill-opacity:1;" d="M 73.800781 71.746094 C 71.65625 75.015625 67.269531 75.929688 64 73.789062 C 60.726562 71.644531 59.816406 67.257812 61.957031 63.988281 C 64.097656 60.71875 68.488281 59.800781 71.757812 61.945312 C 75.027344 64.089844 75.941406 68.476562 73.800781 71.746094 "/>
<path style=" stroke:none;fill-rule:nonzero;fill:rgb(72.068787%,72.068787%,72.068787%);fill-opacity:1;" d="M 73.75 71.660156 C 71.636719 74.886719 67.308594 75.785156 64.085938 73.671875 C 60.859375 71.558594 59.957031 67.230469 62.070312 64.007812 C 64.183594 60.78125 68.511719 59.878906 71.738281 61.992188 C 74.960938 64.105469 75.863281 68.433594 73.75 71.660156 "/>
<path style=" stroke:none;fill-rule:nonzero;fill:rgb(72.459412%,72.459412%,72.459412%);fill-opacity:1;" d="M 73.703125 71.574219 C 71.617188 74.753906 67.347656 75.640625 64.167969 73.558594 C 60.988281 71.472656 60.097656 67.207031 62.183594 64.027344 C 64.265625 60.84375 68.535156 59.957031 71.714844 62.039062 C 74.898438 64.125 75.785156 68.390625 73.703125 71.574219 "/>
<path style=" stroke:none;fill-rule:nonzero;fill:rgb(72.851562%,72.851562%,72.851562%);fill-opacity:1;" d="M 73.652344 71.484375 C 71.597656 74.621094 67.390625 75.496094 64.253906 73.445312 C 61.117188 71.390625 60.242188 67.179688 62.296875 64.042969 C 64.351562 60.910156 68.558594 60.03125 71.695312 62.085938 C 74.832031 64.140625 75.707031 68.347656 73.652344 71.484375 "/>
<path style=" stroke:none;fill-rule:nonzero;fill:rgb(73.242188%,73.242188%,73.242188%);fill-opacity:1;" d="M 73.601562 71.398438 C 71.578125 74.488281 67.429688 75.351562 64.339844 73.328125 C 61.246094 71.304688 60.382812 67.15625 62.410156 64.0625 C 64.433594 60.972656 68.582031 60.109375 71.671875 62.132812 C 74.765625 64.160156 75.628906 68.308594 73.601562 71.398438 "/>
<path style=" stroke:none;fill-rule:nonzero;fill:rgb(73.631287%,73.631287%,73.631287%);fill-opacity:1;" d="M 73.554688 71.3125 C 71.558594 74.355469 67.46875 75.207031 64.425781 73.214844 C 61.378906 71.21875 60.527344 67.128906 62.523438 64.082031 C 64.519531 61.035156 68.605469 60.183594 71.652344 62.179688 C 74.699219 64.175781 75.550781 68.265625 73.554688 71.3125 "/>
<path style=" stroke:none;fill-rule:nonzero;fill:rgb(74.021912%,74.021912%,74.021912%);fill-opacity:1;" d="M 73.503906 71.222656 C 71.539062 74.226562 67.511719 75.066406 64.507812 73.097656 C 61.507812 71.132812 60.667969 67.101562 62.636719 64.101562 C 64.601562 61.101562 68.628906 60.261719 71.632812 62.226562 C 74.632812 64.195312 75.472656 68.222656 73.503906 71.222656 "/>
<path style=" stroke:none;fill-rule:nonzero;fill:rgb(74.414062%,74.414062%,74.414062%);fill-opacity:1;" d="M 73.457031 71.136719 C 71.519531 74.09375 67.550781 74.917969 64.59375 72.984375 C 61.636719 71.046875 60.8125 67.078125 62.746094 64.121094 C 64.683594 61.164062 68.652344 60.339844 71.609375 62.273438 C 74.566406 64.210938 75.394531 68.179688 73.457031 71.136719 "/>
</g>
</g>
<g clip-path="url(#clip31)" clip-rule="nonzero">
<g clip-path="url(#clip32)" clip-rule="nonzero">
<path style=" stroke:none;fill-rule:nonzero;fill:rgb(74.804688%,74.804688%,74.804688%);fill-opacity:1;" d="M 73.40625 71.050781 C 71.5 73.960938 67.589844 74.777344 64.679688 72.867188 C 61.769531 70.960938 60.953125 67.050781 62.859375 64.140625 C 64.769531 61.226562 68.675781 60.414062 71.589844 62.324219 C 74.5 64.230469 75.3125 68.136719 73.40625 71.050781 "/>
<path style=" stroke:none;fill-rule:nonzero;fill:rgb(75.389099%,75.389099%,75.389099%);fill-opacity:1;" d="M 73.355469 70.960938 C 71.480469 73.828125 67.632812 74.632812 64.765625 72.753906 C 61.898438 70.875 61.09375 67.027344 62.972656 64.160156 C 64.851562 61.292969 68.699219 60.492188 71.566406 62.371094 C 74.433594 64.246094 75.234375 68.09375 73.355469 70.960938 "/>
</g>
</g>
<g clip-path="url(#clip33)" clip-rule="nonzero">
<g clip-path="url(#clip34)" clip-rule="nonzero">
<path style=" stroke:none;fill-rule:nonzero;fill:rgb(75.779724%,75.779724%,75.779724%);fill-opacity:1;" d="M 73.308594 70.875 C 71.460938 73.699219 67.671875 74.488281 64.847656 72.636719 C 62.027344 70.789062 61.238281 67 63.085938 64.179688 C 64.9375 61.355469 68.722656 60.566406 71.546875 62.417969 C 74.367188 64.265625 75.15625 68.054688 73.308594 70.875 "/>
<path style=" stroke:none;fill-rule:nonzero;fill:rgb(76.171875%,76.171875%,76.171875%);fill-opacity:1;" d="M 73.257812 70.789062 C 71.441406 73.566406 67.710938 74.34375 64.933594 72.523438 C 62.15625 70.703125 61.378906 66.976562 63.199219 64.199219 C 65.019531 61.421875 68.746094 60.644531 71.523438 62.464844 C 74.300781 64.28125 75.078125 68.011719 73.257812 70.789062 "/>
<path style=" stroke:none;fill-rule:nonzero;fill:rgb(76.5625%,76.5625%,76.5625%);fill-opacity:1;" d="M 73.210938 70.703125 C 71.417969 73.433594 67.753906 74.199219 65.019531 72.40625 C 62.285156 70.617188 61.523438 66.949219 63.3125 64.21875 C 65.101562 61.484375 68.769531 60.71875 71.503906 62.511719 C 74.234375 64.300781 75 67.96875 73.210938 70.703125 "/>
<path style=" stroke:none;fill-rule:nonzero;fill:rgb(76.951599%,76.951599%,76.951599%);fill-opacity:1;" d="M 73.160156 70.613281 C 71.398438 73.300781 67.792969 74.054688 65.105469 72.292969 C 62.417969 70.53125 61.664062 66.925781 63.425781 64.234375 C 65.1875 61.546875 68.792969 60.796875 71.480469 62.558594 C 74.167969 64.320312 74.921875 67.925781 73.160156 70.613281 "/>
<path style=" stroke:none;fill-rule:nonzero;fill:rgb(77.34375%,77.34375%,77.34375%);fill-opacity:1;" d="M 73.109375 70.527344 C 71.378906 73.167969 67.832031 73.910156 65.191406 72.175781 C 62.546875 70.445312 61.808594 66.898438 63.539062 64.253906 C 65.269531 61.613281 68.816406 60.875 71.460938 62.605469 C 74.105469 64.335938 74.84375 67.882812 73.109375 70.527344 "/>
</g>
</g>
<g clip-path="url(#clip35)" clip-rule="nonzero">
<g clip-path="url(#clip36)" clip-rule="nonzero">
<path style=" stroke:none;fill-rule:nonzero;fill:rgb(77.734375%,77.734375%,77.734375%);fill-opacity:1;" d="M 73.0625 70.441406 C 71.359375 73.039062 67.871094 73.765625 65.273438 72.0625 C 62.675781 70.359375 61.949219 66.871094 63.652344 64.273438 C 65.355469 61.675781 68.839844 60.949219 71.441406 62.652344 C 74.039062 64.355469 74.765625 67.839844 73.0625 70.441406 "/>
<path style=" stroke:none;fill-rule:nonzero;fill:rgb(78.125%,78.125%,78.125%);fill-opacity:1;" d="M 73.011719 70.351562 C 71.339844 72.90625 67.914062 73.621094 65.359375 71.945312 C 62.804688 70.273438 62.09375 66.847656 63.765625 64.292969 C 65.4375 61.738281 68.863281 61.027344 71.417969 62.699219 C 73.972656 64.371094 74.683594 67.796875 73.011719 70.351562 "/>
<path style=" stroke:none;fill-rule:nonzero;fill:rgb(78.514099%,78.514099%,78.514099%);fill-opacity:1;" d="M 72.964844 70.265625 C 71.320312 72.773438 67.953125 73.476562 65.445312 71.832031 C 62.9375 70.1875 62.234375 66.820312 63.878906 64.3125 C 65.523438 61.804688 68.886719 61.101562 71.398438 62.746094 C 73.90625 64.390625 74.605469 67.757812 72.964844 70.265625 "/>
</g>
</g>
<g clip-path="url(#clip37)" clip-rule="nonzero">
<g clip-path="url(#clip38)" clip-rule="nonzero">
<path style=" stroke:none;fill-rule:nonzero;fill:rgb(78.904724%,78.904724%,78.904724%);fill-opacity:1;" d="M 72.914062 70.179688 C 71.300781 72.640625 67.992188 73.332031 65.53125 71.71875 C 63.066406 70.101562 62.378906 66.796875 63.992188 64.332031 C 65.605469 61.867188 68.910156 61.179688 71.375 62.792969 C 73.839844 64.40625 74.527344 67.714844 72.914062 70.179688 "/>
<path style=" stroke:none;fill-rule:nonzero;fill:rgb(79.296875%,79.296875%,79.296875%);fill-opacity:1;" d="M 72.863281 70.089844 C 71.28125 72.511719 68.035156 73.1875 65.613281 71.601562 C 63.195312 70.015625 62.519531 66.769531 64.105469 64.351562 C 65.6875 61.933594 68.933594 61.257812 71.355469 62.839844 C 73.773438 64.425781 74.449219 67.671875 72.863281 70.089844 "/>
<path style=" stroke:none;fill-rule:nonzero;fill:rgb(79.6875%,79.6875%,79.6875%);fill-opacity:1;" d="M 72.816406 70.003906 C 71.261719 72.378906 68.074219 73.042969 65.699219 71.484375 C 63.324219 69.929688 62.660156 66.746094 64.21875 64.371094 C 65.773438 61.996094 68.960938 61.332031 71.332031 62.886719 C 73.707031 64.445312 74.371094 67.628906 72.816406 70.003906 "/>
<path style=" stroke:none;fill-rule:nonzero;fill:rgb(80.076599%,80.076599%,80.076599%);fill-opacity:1;" d="M 72.765625 69.917969 C 71.242188 72.246094 68.113281 72.898438 65.785156 71.371094 C 63.457031 69.84375 62.804688 66.71875 64.332031 64.390625 C 65.855469 62.058594 68.980469 61.410156 71.3125 62.933594 C 73.640625 64.460938 74.292969 67.585938 72.765625 69.917969 "/>
<path style=" stroke:none;fill-rule:nonzero;fill:rgb(80.46875%,80.46875%,80.46875%);fill-opacity:1;" d="M 72.71875 69.828125 C 71.21875 72.113281 68.15625 72.753906 65.871094 71.257812 C 63.585938 69.757812 62.945312 66.695312 64.445312 64.410156 C 65.941406 62.125 69.007812 61.484375 71.289062 62.980469 C 73.574219 64.480469 74.214844 67.542969 72.71875 69.828125 "/>
</g>
</g>
<g clip-path="url(#clip39)" clip-rule="nonzero">
<g clip-path="url(#clip40)" clip-rule="nonzero">
<path style=" stroke:none;fill-rule:nonzero;fill:rgb(80.859375%,80.859375%,80.859375%);fill-opacity:1;" d="M 72.667969 69.742188 C 71.199219 71.980469 68.195312 72.609375 65.957031 71.140625 C 63.714844 69.671875 63.089844 66.667969 64.554688 64.425781 C 66.023438 62.1875 69.03125 61.5625 71.269531 63.03125 C 73.507812 64.496094 74.136719 67.503906 72.667969 69.742188 "/>
<path style=" stroke:none;fill-rule:nonzero;fill:rgb(81.25%,81.25%,81.25%);fill-opacity:1;" d="M 72.617188 69.65625 C 71.179688 71.851562 68.234375 72.464844 66.039062 71.027344 C 63.84375 69.589844 63.230469 66.640625 64.667969 64.449219 C 66.105469 62.253906 69.054688 61.636719 71.25 63.078125 C 73.445312 64.515625 74.058594 67.460938 72.617188 69.65625 "/>
</g>
</g>
<g clip-path="url(#clip41)" clip-rule="nonzero">
<g clip-path="url(#clip42)" clip-rule="nonzero">
<path style=" stroke:none;fill-rule:nonzero;fill:rgb(81.639099%,81.639099%,81.639099%);fill-opacity:1;" d="M 72.570312 69.570312 C 71.160156 71.71875 68.277344 72.320312 66.125 70.910156 C 63.972656 69.503906 63.375 66.617188 64.78125 64.464844 C 66.191406 62.316406 69.078125 61.714844 71.226562 63.125 C 73.378906 64.53125 73.976562 67.417969 72.570312 69.570312 "/>
<path style=" stroke:none;fill-rule:nonzero;fill:rgb(82.029724%,82.029724%,82.029724%);fill-opacity:1;" d="M 72.519531 69.480469 C 71.140625 71.585938 68.316406 72.175781 66.210938 70.796875 C 64.105469 69.417969 63.515625 66.589844 64.894531 64.484375 C 66.273438 62.378906 69.101562 61.792969 71.207031 63.171875 C 73.3125 64.550781 73.898438 67.375 72.519531 69.480469 "/>
<path style=" stroke:none;fill-rule:nonzero;fill:rgb(82.421875%,82.421875%,82.421875%);fill-opacity:1;" d="M 72.472656 69.394531 C 71.121094 71.453125 68.355469 72.03125 66.296875 70.679688 C 64.234375 69.332031 63.660156 66.566406 65.007812 64.503906 C 66.359375 62.445312 69.125 61.867188 71.183594 63.21875 C 73.246094 64.566406 73.820312 67.332031 72.472656 69.394531 "/>
<path style=" stroke:none;fill-rule:nonzero;fill:rgb(82.8125%,82.8125%,82.8125%);fill-opacity:1;" d="M 72.421875 69.308594 C 71.101562 71.324219 68.394531 71.886719 66.378906 70.566406 C 64.363281 69.246094 63.800781 66.539062 65.121094 64.523438 C 66.441406 62.507812 69.148438 61.945312 71.164062 63.265625 C 73.179688 64.585938 73.742188 67.289062 72.421875 69.308594 "/>
<path style=" stroke:none;fill-rule:nonzero;fill:rgb(83.201599%,83.201599%,83.201599%);fill-opacity:1;" d="M 72.371094 69.21875 C 71.082031 71.191406 68.4375 71.742188 66.464844 70.449219 C 64.492188 69.160156 63.945312 66.515625 65.234375 64.542969 C 66.527344 62.570312 69.171875 62.019531 71.140625 63.3125 C 73.113281 64.601562 73.664062 67.25 72.371094 69.21875 "/>
<path style=" stroke:none;fill-rule:nonzero;fill:rgb(83.59375%,83.59375%,83.59375%);fill-opacity:1;" d="M 72.324219 69.132812 C 71.0625 71.058594 68.476562 71.597656 66.550781 70.335938 C 64.625 69.074219 64.085938 66.488281 65.347656 64.5625 C 66.609375 62.636719 69.195312 62.097656 71.121094 63.359375 C 73.046875 64.621094 73.585938 67.207031 72.324219 69.132812 "/>
</g>
</g>
<g clip-path="url(#clip43)" clip-rule="nonzero">
<g clip-path="url(#clip44)" clip-rule="nonzero">
<path style=" stroke:none;fill-rule:nonzero;fill:rgb(83.984375%,83.984375%,83.984375%);fill-opacity:1;" d="M 72.273438 69.046875 C 71.042969 70.925781 68.515625 71.453125 66.636719 70.21875 C 64.753906 68.988281 64.226562 66.464844 65.460938 64.582031 C 66.691406 62.699219 69.21875 62.171875 71.097656 63.40625 C 72.980469 64.640625 73.507812 67.164062 72.273438 69.046875 "/>
<path style=" stroke:none;fill-rule:nonzero;fill:rgb(84.375%,84.375%,84.375%);fill-opacity:1;" d="M 72.226562 68.957031 C 71.023438 70.792969 68.558594 71.308594 66.71875 70.105469 C 64.882812 68.902344 64.371094 66.4375 65.574219 64.601562 C 66.777344 62.765625 69.242188 62.25 71.078125 63.453125 C 72.914062 64.65625 73.429688 67.121094 72.226562 68.957031 "/>
</g>
</g>
<g clip-path="url(#clip45)" clip-rule="nonzero">
<g clip-path="url(#clip46)" clip-rule="nonzero">
<path style=" stroke:none;fill-rule:nonzero;fill:rgb(84.764099%,84.764099%,84.764099%);fill-opacity:1;" d="M 72.175781 68.871094 C 71.003906 70.664062 68.597656 71.164062 66.804688 69.988281 C 65.015625 68.816406 64.511719 66.410156 65.6875 64.621094 C 66.859375 62.828125 69.265625 62.328125 71.058594 63.5 C 72.847656 64.675781 73.351562 67.078125 72.175781 68.871094 "/>
<path style=" stroke:none;fill-rule:nonzero;fill:rgb(85.154724%,85.154724%,85.154724%);fill-opacity:1;" d="M 72.128906 68.785156 C 70.980469 70.53125 68.636719 71.019531 66.890625 69.875 C 65.144531 68.730469 64.65625 66.386719 65.800781 64.640625 C 66.945312 62.890625 69.289062 62.402344 71.035156 63.546875 C 72.78125 64.691406 73.273438 67.035156 72.128906 68.785156 "/>
<path style=" stroke:none;fill-rule:nonzero;fill:rgb(85.546875%,85.546875%,85.546875%);fill-opacity:1;" d="M 72.078125 68.695312 C 70.960938 70.398438 68.675781 70.875 66.976562 69.761719 C 65.273438 68.644531 64.796875 66.359375 65.914062 64.65625 C 67.027344 62.957031 69.3125 62.480469 71.015625 63.59375 C 72.71875 64.710938 73.191406 66.996094 72.078125 68.695312 "/>
<path style=" stroke:none;fill-rule:nonzero;fill:rgb(85.9375%,85.9375%,85.9375%);fill-opacity:1;" d="M 72.027344 68.609375 C 70.941406 70.265625 68.71875 70.730469 67.058594 69.644531 C 65.402344 68.558594 64.941406 66.335938 66.027344 64.675781 C 67.109375 63.019531 69.335938 62.554688 70.992188 63.640625 C 72.652344 64.726562 73.113281 66.953125 72.027344 68.609375 "/>
<path style=" stroke:none;fill-rule:nonzero;fill:rgb(86.326599%,86.326599%,86.326599%);fill-opacity:1;" d="M 71.980469 68.523438 C 70.921875 70.136719 68.757812 70.585938 67.144531 69.53125 C 65.53125 68.472656 65.082031 66.308594 66.140625 64.695312 C 67.195312 63.082031 69.359375 62.632812 70.972656 63.6875 C 72.585938 64.746094 73.035156 66.910156 71.980469 68.523438 "/>
</g>
</g>
<g clip-path="url(#clip47)" clip-rule="nonzero">
<g clip-path="url(#clip48)" clip-rule="nonzero">
<path style=" stroke:none;fill-rule:nonzero;fill:rgb(86.71875%,86.71875%,86.71875%);fill-opacity:1;" d="M 71.929688 68.433594 C 70.902344 70.003906 68.796875 70.441406 67.230469 69.414062 C 65.664062 68.386719 65.222656 66.28125 66.25 64.714844 C 67.277344 63.148438 69.382812 62.710938 70.949219 63.734375 C 72.519531 64.761719 72.957031 66.867188 71.929688 68.433594 "/>
<path style=" stroke:none;fill-rule:nonzero;fill:rgb(87.109375%,87.109375%,87.109375%);fill-opacity:1;" d="M 71.882812 68.347656 C 70.882812 69.871094 68.839844 70.296875 67.316406 69.300781 C 65.792969 68.300781 65.367188 66.257812 66.363281 64.734375 C 67.363281 63.210938 69.40625 62.785156 70.929688 63.785156 C 72.453125 64.78125 72.878906 66.824219 71.882812 68.347656 "/>
<path style=" stroke:none;fill-rule:nonzero;fill:rgb(87.5%,87.5%,87.5%);fill-opacity:1;" d="M 71.832031 68.261719 C 70.863281 69.738281 68.878906 70.152344 67.402344 69.183594 C 65.921875 68.214844 65.507812 66.230469 66.476562 64.753906 C 67.445312 63.277344 69.429688 62.863281 70.910156 63.832031 C 72.386719 64.796875 72.800781 66.78125 71.832031 68.261719 "/>
</g>
</g>
<g clip-path="url(#clip49)" clip-rule="nonzero">
<g clip-path="url(#clip50)" clip-rule="nonzero">
<path style=" stroke:none;fill-rule:nonzero;fill:rgb(87.889099%,87.889099%,87.889099%);fill-opacity:1;" d="M 71.78125 68.175781 C 70.84375 69.605469 68.917969 70.007812 67.484375 69.070312 C 66.050781 68.128906 65.652344 66.207031 66.589844 64.773438 C 67.53125 63.339844 69.453125 62.9375 70.886719 63.878906 C 72.320312 64.816406 72.722656 66.742188 71.78125 68.175781 "/>
<path style=" stroke:none;fill-rule:nonzero;fill:rgb(88.279724%,88.279724%,88.279724%);fill-opacity:1;" d="M 71.734375 68.085938 C 70.824219 69.476562 68.960938 69.863281 67.570312 68.953125 C 66.183594 68.042969 65.792969 66.179688 66.703125 64.792969 C 67.613281 63.402344 69.476562 63.015625 70.867188 63.925781 C 72.253906 64.835938 72.644531 66.699219 71.734375 68.085938 "/>
<path style=" stroke:none;fill-rule:nonzero;fill:rgb(88.671875%,88.671875%,88.671875%);fill-opacity:1;" d="M 71.683594 68 C 70.804688 69.34375 69 69.71875 67.65625 68.839844 C 66.3125 67.960938 65.9375 66.15625 66.816406 64.8125 C 67.695312 63.46875 69.5 63.09375 70.84375 63.972656 C 72.1875 64.851562 72.5625 66.65625 71.683594 68 "/>
<path style=" stroke:none;fill-rule:nonzero;fill:rgb(89.0625%,89.0625%,89.0625%);fill-opacity:1;" d="M 71.636719 67.914062 C 70.785156 69.210938 69.039062 69.574219 67.742188 68.722656 C 66.441406 67.871094 66.078125 66.128906 66.929688 64.832031 C 67.78125 63.53125 69.523438 63.167969 70.824219 64.019531 C 72.121094 64.871094 72.484375 66.613281 71.636719 67.914062 "/>
<path style=" stroke:none;fill-rule:nonzero;fill:rgb(89.451599%,89.451599%,89.451599%);fill-opacity:1;" d="M 71.585938 67.824219 C 70.765625 69.078125 69.082031 69.429688 67.824219 68.609375 C 66.570312 67.785156 66.222656 66.101562 67.042969 64.847656 C 67.863281 63.59375 69.546875 63.246094 70.800781 64.066406 C 72.054688 64.886719 72.40625 66.570312 71.585938 67.824219 "/>
</g>
</g>
<g clip-path="url(#clip51)" clip-rule="nonzero">
<g clip-path="url(#clip52)" clip-rule="nonzero">
<path style=" stroke:none;fill-rule:nonzero;fill:rgb(89.84375%,89.84375%,89.84375%);fill-opacity:1;" d="M 71.535156 67.738281 C 70.742188 68.949219 69.121094 69.285156 67.910156 68.492188 C 66.703125 67.703125 66.363281 66.078125 67.15625 64.867188 C 67.949219 63.660156 69.570312 63.320312 70.78125 64.113281 C 71.988281 64.90625 72.328125 66.53125 71.535156 67.738281 "/>
<path style=" stroke:none;fill-rule:nonzero;fill:rgb(90.234375%,90.234375%,90.234375%);fill-opacity:1;" d="M 71.488281 67.652344 C 70.722656 68.816406 69.160156 69.140625 67.996094 68.378906 C 66.832031 67.617188 66.507812 66.050781 67.269531 64.886719 C 68.03125 63.722656 69.59375 63.398438 70.761719 64.160156 C 71.925781 64.921875 72.25 66.488281 71.488281 67.652344 "/>
<path style=" stroke:none;fill-rule:nonzero;fill:rgb(90.625%,90.625%,90.625%);fill-opacity:1;" d="M 71.4375 67.566406 C 70.703125 68.683594 69.199219 68.996094 68.082031 68.265625 C 66.960938 67.53125 66.648438 66.027344 67.382812 64.90625 C 68.113281 63.785156 69.617188 63.472656 70.738281 64.207031 C 71.859375 64.941406 72.171875 66.445312 71.4375 67.566406 "/>
</g>
</g>
<g clip-path="url(#clip53)" clip-rule="nonzero">
<g clip-path="url(#clip54)" clip-rule="nonzero">
<path style=" stroke:none;fill-rule:nonzero;fill:rgb(91.014099%,91.014099%,91.014099%);fill-opacity:1;" d="M 71.390625 67.476562 C 70.683594 68.550781 69.242188 68.851562 68.164062 68.148438 C 67.089844 67.445312 66.789062 66 67.496094 64.925781 C 68.199219 63.851562 69.640625 63.550781 70.71875 64.253906 C 71.792969 64.960938 72.09375 66.402344 71.390625 67.476562 "/>
<path style=" stroke:none;fill-rule:nonzero;fill:rgb(91.404724%,91.404724%,91.404724%);fill-opacity:1;" d="M 71.339844 67.390625 C 70.664062 68.421875 69.28125 68.707031 68.25 68.035156 C 67.222656 67.359375 66.933594 65.976562 67.609375 64.945312 C 68.28125 63.914062 69.664062 63.628906 70.695312 64.300781 C 71.726562 64.976562 72.015625 66.359375 71.339844 67.390625 "/>
<path style=" stroke:none;fill-rule:nonzero;fill:rgb(91.796875%,91.796875%,91.796875%);fill-opacity:1;" d="M 71.289062 67.300781 C 70.644531 68.289062 69.320312 68.5625 68.335938 67.917969 C 67.351562 67.273438 67.074219 65.949219 67.71875 64.964844 C 68.367188 63.980469 69.6875 63.703125 70.675781 64.347656 C 71.660156 64.996094 71.933594 66.316406 71.289062 67.300781 "/>
<path style=" stroke:none;fill-rule:nonzero;fill:rgb(92.1875%,92.1875%,92.1875%);fill-opacity:1;" d="M 71.242188 67.214844 C 70.625 68.15625 69.363281 68.417969 68.421875 67.804688 C 67.480469 67.1875 67.21875 65.925781 67.835938 64.984375 C 68.449219 64.042969 69.714844 63.78125 70.652344 64.394531 C 71.59375 65.011719 71.855469 66.273438 71.242188 67.214844 "/>
<path style=" stroke:none;fill-rule:nonzero;fill:rgb(92.576599%,92.576599%,92.576599%);fill-opacity:1;" d="M 71.191406 67.128906 C 70.605469 68.023438 69.402344 68.273438 68.507812 67.6875 C 67.609375 67.101562 67.359375 65.898438 67.945312 65.003906 C 68.535156 64.105469 69.734375 63.855469 70.632812 64.445312 C 71.527344 65.03125 71.777344 66.234375 71.191406 67.128906 "/>
</g>
</g>
<g clip-path="url(#clip55)" clip-rule="nonzero">
<g clip-path="url(#clip56)" clip-rule="nonzero">
<path style=" stroke:none;fill-rule:nonzero;fill:rgb(92.96875%,92.96875%,92.96875%);fill-opacity:1;" d="M 71.144531 67.042969 C 70.585938 67.894531 69.441406 68.128906 68.589844 67.574219 C 67.738281 67.015625 67.503906 65.871094 68.058594 65.023438 C 68.617188 64.171875 69.761719 63.933594 70.609375 64.492188 C 71.460938 65.046875 71.699219 66.191406 71.144531 67.042969 "/>
<path style=" stroke:none;fill-rule:nonzero;fill:rgb(93.359375%,93.359375%,93.359375%);fill-opacity:1;" d="M 71.09375 66.953125 C 70.566406 67.761719 69.484375 67.984375 68.675781 67.457031 C 67.871094 66.929688 67.644531 65.847656 68.171875 65.039062 C 68.703125 64.234375 69.785156 64.007812 70.589844 64.539062 C 71.394531 65.066406 71.621094 66.148438 71.09375 66.953125 "/>
</g>
</g>
<g clip-path="url(#clip57)" clip-rule="nonzero">
<g clip-path="url(#clip58)" clip-rule="nonzero">
<path style=" stroke:none;fill-rule:nonzero;fill:rgb(93.75%,93.75%,93.75%);fill-opacity:1;" d="M 71.042969 66.867188 C 70.546875 67.628906 69.523438 67.839844 68.761719 67.34375 C 68 66.84375 67.785156 65.820312 68.285156 65.058594 C 68.785156 64.296875 69.808594 64.085938 70.570312 64.585938 C 71.328125 65.082031 71.542969 66.105469 71.042969 66.867188 "/>
<path style=" stroke:none;fill-rule:nonzero;fill:rgb(94.139099%,94.139099%,94.139099%);fill-opacity:1;" d="M 70.996094 66.78125 C 70.527344 67.496094 69.5625 67.699219 68.847656 67.226562 C 68.128906 66.757812 67.929688 65.796875 68.398438 65.078125 C 68.867188 64.363281 69.832031 64.164062 70.546875 64.632812 C 71.265625 65.101562 71.464844 66.0625 70.996094 66.78125 "/>
<path style=" stroke:none;fill-rule:nonzero;fill:rgb(94.529724%,94.529724%,94.529724%);fill-opacity:1;" d="M 70.945312 66.691406 C 70.503906 67.363281 69.601562 67.550781 68.929688 67.113281 C 68.261719 66.671875 68.070312 65.769531 68.511719 65.097656 C 68.953125 64.425781 69.855469 64.238281 70.527344 64.679688 C 71.199219 65.117188 71.386719 66.019531 70.945312 66.691406 "/>
<path style=" stroke:none;fill-rule:nonzero;fill:rgb(94.921875%,94.921875%,94.921875%);fill-opacity:1;" d="M 70.898438 66.605469 C 70.484375 67.234375 69.644531 67.40625 69.015625 66.996094 C 68.390625 66.585938 68.214844 65.746094 68.625 65.117188 C 69.035156 64.492188 69.878906 64.316406 70.503906 64.726562 C 71.132812 65.136719 71.308594 65.980469 70.898438 66.605469 "/>
<path style=" stroke:none;fill-rule:nonzero;fill:rgb(95.3125%,95.3125%,95.3125%);fill-opacity:1;" d="M 70.847656 66.519531 C 70.464844 67.101562 69.683594 67.265625 69.101562 66.882812 C 68.519531 66.5 68.355469 65.71875 68.738281 65.136719 C 69.117188 64.554688 69.902344 64.390625 70.484375 64.773438 C 71.066406 65.15625 71.226562 65.9375 70.847656 66.519531 "/>
</g>
</g>
<g clip-path="url(#clip59)" clip-rule="nonzero">
<g clip-path="url(#clip60)" clip-rule="nonzero">
<path style=" stroke:none;fill-rule:nonzero;fill:rgb(95.701599%,95.701599%,95.701599%);fill-opacity:1;" d="M 70.796875 66.429688 C 70.445312 66.96875 69.722656 67.117188 69.1875 66.765625 C 68.648438 66.414062 68.5 65.695312 68.851562 65.15625 C 69.203125 64.617188 69.925781 64.46875 70.460938 64.820312 C 71 65.171875 71.148438 65.894531 70.796875 66.429688 "/>
<path style=" stroke:none;fill-rule:nonzero;fill:rgb(96.09375%,96.09375%,96.09375%);fill-opacity:1;" d="M 70.75 66.34375 C 70.425781 66.835938 69.765625 66.976562 69.273438 66.652344 C 68.78125 66.328125 68.640625 65.667969 68.964844 65.175781 C 69.285156 64.683594 69.949219 64.542969 70.441406 64.867188 C 70.933594 65.191406 71.070312 65.851562 70.75 66.34375 "/>
<path style=" stroke:none;fill-rule:nonzero;fill:rgb(96.484375%,96.484375%,96.484375%);fill-opacity:1;" d="M 70.699219 66.257812 C 70.40625 66.707031 69.804688 66.832031 69.355469 66.535156 C 68.910156 66.242188 68.785156 65.640625 69.078125 65.195312 C 69.371094 64.746094 69.972656 64.621094 70.417969 64.914062 C 70.867188 65.207031 70.992188 65.808594 70.699219 66.257812 "/>
</g>
</g>
<g clip-path="url(#clip61)" clip-rule="nonzero">
<g clip-path="url(#clip62)" clip-rule="nonzero">
<path style=" stroke:none;fill-rule:nonzero;fill:rgb(96.875%,96.875%,96.875%);fill-opacity:1;" d="M 70.648438 66.171875 C 70.386719 66.574219 69.84375 66.6875 69.441406 66.421875 C 69.039062 66.15625 68.925781 65.617188 69.191406 65.214844 C 69.453125 64.808594 69.996094 64.699219 70.398438 64.960938 C 70.800781 65.226562 70.914062 65.765625 70.648438 66.171875 "/>
<path style=" stroke:none;fill-rule:nonzero;fill:rgb(97.264099%,97.264099%,97.264099%);fill-opacity:1;" d="M 70.601562 66.082031 C 70.367188 66.441406 69.886719 66.542969 69.527344 66.308594 C 69.167969 66.074219 69.070312 65.589844 69.304688 65.234375 C 69.539062 64.875 70.019531 64.773438 70.378906 65.007812 C 70.734375 65.242188 70.835938 65.726562 70.601562 66.082031 "/>
<path style=" stroke:none;fill-rule:nonzero;fill:rgb(97.654724%,97.654724%,97.654724%);fill-opacity:1;" d="M 70.550781 65.996094 C 70.347656 66.308594 69.925781 66.398438 69.613281 66.191406 C 69.296875 65.988281 69.210938 65.566406 69.414062 65.253906 C 69.621094 64.9375 70.042969 64.851562 70.355469 65.054688 C 70.667969 65.261719 70.757812 65.683594 70.550781 65.996094 "/>
</g>
</g>
<g clip-path="url(#clip63)" clip-rule="nonzero">
<g clip-path="url(#clip64)" clip-rule="nonzero">
<path style=" stroke:none;fill-rule:nonzero;fill:rgb(98.046875%,98.046875%,98.046875%);fill-opacity:1;" d="M 70.503906 65.910156 C 70.328125 66.175781 69.964844 66.253906 69.695312 66.078125 C 69.429688 65.902344 69.351562 65.539062 69.527344 65.269531 C 69.707031 65.003906 70.066406 64.925781 70.335938 65.101562 C 70.601562 65.28125 70.679688 65.640625 70.503906 65.910156 "/>
<path style=" stroke:none;fill-rule:nonzero;fill:rgb(98.4375%,98.4375%,98.4375%);fill-opacity:1;" d="M 70.453125 65.820312 C 70.304688 66.046875 70.007812 66.109375 69.78125 65.960938 C 69.558594 65.816406 69.496094 65.515625 69.640625 65.289062 C 69.789062 65.066406 70.089844 65.003906 70.3125 65.152344 C 70.535156 65.296875 70.601562 65.597656 70.453125 65.820312 "/>
</g>
</g>
<g clip-path="url(#clip65)" clip-rule="nonzero">
<g clip-path="url(#clip66)" clip-rule="nonzero">
<path style=" stroke:none;fill-rule:nonzero;fill:rgb(98.826599%,98.826599%,98.826599%);fill-opacity:1;" d="M 70.402344 65.734375 C 70.285156 65.914062 70.046875 65.964844 69.867188 65.847656 C 69.6875 65.730469 69.636719 65.488281 69.753906 65.308594 C 69.871094 65.128906 70.113281 65.082031 70.292969 65.199219 C 70.472656 65.316406 70.519531 65.554688 70.402344 65.734375 "/>
<path style=" stroke:none;fill-rule:nonzero;fill:rgb(99.21875%,99.21875%,99.21875%);fill-opacity:1;" d="M 70.355469 65.648438 C 70.265625 65.78125 70.085938 65.820312 69.953125 65.730469 C 69.816406 65.644531 69.78125 65.464844 69.867188 65.328125 C 69.957031 65.195312 70.136719 65.15625 70.269531 65.246094 C 70.40625 65.332031 70.441406 65.511719 70.355469 65.648438 "/>
<path style=" stroke:none;fill-rule:nonzero;fill:rgb(99.609375%,99.609375%,99.609375%);fill-opacity:1;" d="M 70.304688 65.558594 C 70.246094 65.648438 70.125 65.675781 70.035156 65.617188 C 69.949219 65.558594 69.921875 65.4375 69.980469 65.347656 C 70.039062 65.257812 70.160156 65.234375 70.25 65.292969 C 70.339844 65.351562 70.363281 65.46875 70.304688 65.558594 "/>
</g>
</g>
<g clip-path="url(#clip67)" clip-rule="nonzero">
<g clip-path="url(#clip68)" clip-rule="nonzero">
<path style=" stroke:none;fill-rule:nonzero;fill:rgb(100%,100%,100%);fill-opacity:1;" d="M 70.257812 65.472656 C 70.226562 65.519531 70.167969 65.53125 70.121094 65.5 C 70.078125 65.472656 70.066406 65.410156 70.09375 65.367188 C 70.125 65.324219 70.183594 65.308594 70.226562 65.339844 C 70.273438 65.367188 70.285156 65.429688 70.257812 65.472656 "/>
</g>
</g>
<path style="fill:none;stroke-width:10;stroke-linecap:butt;stroke-linejoin:miter;stroke:rgb(0%,0%,0%);stroke-opacity:1;stroke-miterlimit:4;" d="M 730.195312 394.492188 C 791.132812 394.492188 840.507812 443.867188 840.507812 504.804688 C 840.507812 565.703125 791.132812 615.117188 730.195312 615.117188 C 669.296875 615.117188 619.882812 565.703125 619.882812 504.804688 C 619.882812 443.867188 669.296875 394.492188 730.195312 394.492188 Z " transform="matrix(0.1,0,0,-0.1,0,126)"/>
<path style=" stroke:none;fill-rule:nonzero;fill:rgb(100%,100%,100%);fill-opacity:1;" d="M 10.585938 55.792969 L 22.960938 69.292969 L 146.710938 125.542969 L 136.585938 112.042969 L 10.585938 55.792969 "/>
<path style="fill:none;stroke-width:10;stroke-linecap:butt;stroke-linejoin:miter;stroke:rgb(0%,0%,0%);stroke-opacity:1;stroke-miterlimit:4;" d="M 105.859375 702.070312 L 229.609375 567.070312 L 1467.109375 4.570312 L 1365.859375 139.570312 Z " transform="matrix(0.1,0,0,-0.1,0,126)"/>
</g>
</svg>
