<?xml version="1.0" encoding="UTF-8" standalone="no"?>
<svg
   xmlns:dc="http://purl.org/dc/elements/1.1/"
   xmlns:cc="http://creativecommons.org/ns#"
   xmlns:rdf="http://www.w3.org/1999/02/22-rdf-syntax-ns#"
   xmlns:svg="http://www.w3.org/2000/svg"
   xmlns="http://www.w3.org/2000/svg"
   xmlns:sodipodi="http://sodipodi.sourceforge.net/DTD/sodipodi-0.dtd"
   xmlns:inkscape="http://www.inkscape.org/namespaces/inkscape"
   width="190pt"
   height="121pt"
   viewBox="0 0 190 121"
   id="svg2"
   sodipodi:version="0.32"
   inkscape:version="0.46"
   sodipodi:docname="me-moi-balancing.svg"
   inkscape:output_extension="org.inkscape.output.svg.inkscape">
  <metadata
     id="metadata375">
    <rdf:RDF>
      <cc:Work
         rdf:about="">
        <dc:format>image/svg+xml</dc:format>
        <dc:type
           rdf:resource="http://purl.org/dc/dcmitype/StillImage" />
      </cc:Work>
    </rdf:RDF>
  </metadata>
  <defs
     id="defs373">
    <inkscape:perspective
       sodipodi:type="inkscape:persp3d"
       inkscape:vp_x="0 : 75.625 : 1"
       inkscape:vp_y="0 : 1000 : 0"
       inkscape:vp_z="237.5 : 75.625 : 1"
       inkscape:persp3d-origin="118.75 : 50.416667 : 1"
       id="perspective377" />
  </defs>
  <sodipodi:namedview
     inkscape:window-height="996"
     inkscape:window-width="1278"
     inkscape:pageshadow="2"
     inkscape:pageopacity="0.0"
     guidetolerance="10.0"
     gridtolerance="10.0"
     objecttolerance="10.0"
     borderopacity="1.0"
     bordercolor="#666666"
     pagecolor="#ffffff"
     id="base"
     showgrid="false"
     inkscape:zoom="1.8728476"
     inkscape:cx="94.745081"
     inkscape:cy="133.40787"
     inkscape:window-x="2"
     inkscape:window-y="2"
     inkscape:current-layer="svg2" />
  <path
     style="fill:#ffffff;fill-opacity:1;stroke:#000000;stroke-width:0.69999999;stroke-miterlimit:4;stroke-dasharray:none;stroke-dashoffset:0;stroke-opacity:1"
     d="M 104.41622,-4.004533 L 104.41622,1.320383 L 106.2956,1.320383 L 106.71726,1.742039 L 106.04863,2.4106655 L 106.71123,3.0732681 L 106.04863,3.7418944 L 106.71726,4.4105207 L 106.04863,5.079147 L 106.71726,5.7477733 L 106.04863,6.4163995 L 106.71726,7.0850258 L 106.04863,7.7536521 L 106.71726,8.4222784 L 106.04863,9.0909047 L 106.71123,9.759531 L 106.04863,10.422134 L 106.71726,11.09076 L 106.04863,11.759386 L 106.71726,12.428013 L 106.04863,13.096639 L 106.71726,13.765265 L 106.04863,14.433891 L 106.71123,15.096494 L 106.04863,15.76512 L 106.71726,16.433747 L 106.04863,17.102373 L 106.71726,17.770999 L 106.04863,18.439626 L 106.71726,19.108252 L 106.04863,19.776878 L 106.71726,20.445504 L 106.04863,21.114131 L 106.71123,21.782757 L 106.04863,22.44536 L 106.6269,23.023631 L 110.56638,23.023631 L 111.14465,22.44536 L 110.48205,21.782757 L 111.14465,21.114131 L 110.47602,20.445504 L 111.14465,19.776878 L 110.47602,19.108252 L 111.14465,18.439626 L 110.47602,17.770999 L 111.14465,17.102373 L 110.47602,16.433747 L 111.14465,15.76512 L 110.48205,15.096494 L 111.14465,14.433891 L 110.47602,13.765265 L 111.14465,13.096639 L 110.47602,12.428013 L 111.14465,11.759386 L 110.47602,11.09076 L 111.14465,10.422134 L 110.48205,9.759531 L 111.14465,9.0909047 L 110.47602,8.4222784 L 111.14465,7.7536521 L 110.47602,7.0850258 L 111.14465,6.4163995 L 110.47602,5.7477733 L 111.14465,5.079147 L 110.47602,4.4105207 L 111.14465,3.7418944 L 110.48205,3.0732681 L 111.14465,2.4106655 L 110.47602,1.742039 L 110.89768,1.320383 L 112.77104,1.320383 L 112.77104,-4.004533 L 104.41622,-4.004533 z"
     id="rect2423" />
  <g
     transform="translate(0.770508, 4)"
     style="fill:#bfbfbf;fill-rule:nonzero;stroke:#000000;stroke-width:1;stroke-linecap:butt;stroke-linejoin:miter;stroke-dasharray:none;-inkscape-font-specification:Bitstream Vera Sans;font-family:Bitstream Vera Sans;font-weight:normal;font-style:normal;font-stretch:normal;font-variant:normal;font-size:8px;text-anchor:start;text-align:start;writing-mode:lr;line-height:125%"
     id="g4">
    <path
       d="M175.5 12 C175.5 12 175.5 0 175.5 0 C175.5 0 0 0 0 0 C0 0 0 12 0 12 C0 12 175.5 12 175.5 12 Z"
       id="path6"
       style="-inkscape-font-specification:Bitstream Vera Sans;font-family:Bitstream Vera Sans;font-weight:normal;font-style:normal;font-stretch:normal;font-variant:normal;font-size:8px;text-anchor:start;text-align:start;writing-mode:lr;line-height:125%" />
  </g>
  <g
     transform="translate(152.21935,2.33301)"
     style="font-size:8px;font-style:normal;font-variant:normal;font-weight:normal;font-stretch:normal;text-align:start;line-height:125%;writing-mode:lr-tb;text-anchor:start;fill:#404040;fill-rule:nonzero;stroke:none;stroke-width:1;stroke-linecap:butt;stroke-linejoin:miter;stroke-dasharray:none;font-family:Bitstream Vera Sans;-inkscape-font-specification:Bitstream Vera Sans"
     id="g8">
    <path
       d="M 24.666,15.334 C 24.666,15.334 24.666,0 24.666,0 C 24.666,0 0,0 0,0 C 0,0 0,15.334 0,15.334 C 0,15.334 24.666,15.334 24.666,15.334 z"
       id="path10"
       style="font-size:8px;font-style:normal;font-variant:normal;font-weight:normal;font-stretch:normal;text-align:start;line-height:125%;writing-mode:lr-tb;text-anchor:start;font-family:Bitstream Vera Sans;-inkscape-font-specification:Bitstream Vera Sans" />
  </g>
  <g
     transform="matrix(0,1,-1,0,173.78348,0.8195873)"
     style="font-size:8px;font-style:normal;font-variant:normal;font-weight:normal;font-stretch:normal;text-align:start;line-height:125%;writing-mode:lr-tb;text-anchor:start;fill:#000000;fill-rule:nonzero;stroke:none;stroke-width:1;stroke-linecap:butt;stroke-linejoin:miter;stroke-dasharray:none;font-family:Bitstream Vera Sans;-inkscape-font-specification:Bitstream Vera Sans"
     id="g12">
    <path
       d="M 8.761,11.4287 C 8.761,11.4287 8.761,7.42871 8.761,7.42871 C 8.761,7.42871 18.639,7.42871 18.639,7.42871 C 17.721,3.18262 13.949,0 9.428,0 C 4.221,0 0,4.22168 0,9.42872 C 0,14.6357 4.221,18.8564 9.428,18.8564 C 13.949,18.8564 17.721,15.6738 18.639,11.4287 C 18.639,11.4287 8.761,11.4287 8.761,11.4287 z"
       id="path14"
       style="font-size:8px;font-style:normal;font-variant:normal;font-weight:normal;font-stretch:normal;text-align:start;line-height:125%;writing-mode:lr-tb;text-anchor:start;font-family:Bitstream Vera Sans;-inkscape-font-specification:Bitstream Vera Sans" />
  </g>
  <g
     transform="translate(85.0107, 10.417)"
     style="fill:#404040;fill-rule:nonzero;stroke:none;stroke-width:1;stroke-linecap:butt;stroke-linejoin:miter;stroke-dasharray:none;-inkscape-font-specification:Bitstream Vera Sans;font-family:Bitstream Vera Sans;font-weight:normal;font-style:normal;font-stretch:normal;font-variant:normal;font-size:8px;text-anchor:start;text-align:start;writing-mode:lr;line-height:125%"
     id="g20">
    <path
       d="M4.3331 0 C4.3331 0 4.3331 1.333 4.3331 1.333 C4.3331 1.333 3 1.333 3 1.333 C3 1.333 3 0 3 0 C3 0 0 0 0 0 C0 0 0 20 0 20 C0 20 7.3331 20 7.3331 20 C7.3331 20 7.3331 0 7.3331 0 C7.3331 0 4.3331 0 4.3331 0 Z"
       id="path22"
       style="-inkscape-font-specification:Bitstream Vera Sans;font-family:Bitstream Vera Sans;font-weight:normal;font-style:normal;font-stretch:normal;font-variant:normal;font-size:8px;text-anchor:start;text-align:start;writing-mode:lr;line-height:125%" />
  </g>
  <g
     transform="translate(87.0273, 8.35059)"
     style="fill:#000000;fill-rule:nonzero;stroke:none;stroke-width:1;stroke-linecap:butt;stroke-linejoin:miter;stroke-dasharray:none;-inkscape-font-specification:Bitstream Vera Sans;font-family:Bitstream Vera Sans;font-weight:normal;font-style:normal;font-stretch:normal;font-variant:normal;font-size:8px;text-anchor:start;text-align:start;writing-mode:lr;line-height:125%"
     id="g24">
    <path
       d="M1.6495 3.29981 C2.5606 3.29981 3.2998 2.56051 3.2998 1.64941 C3.2998 0.73828 2.5606 0 1.6495 0 C0.7383 0 0 0.73828 0 1.64941 C0 2.56051 0.7383 3.29981 1.6495 3.29981 Z"
       id="path26"
       style="-inkscape-font-specification:Bitstream Vera Sans;font-family:Bitstream Vera Sans;font-weight:normal;font-style:normal;font-stretch:normal;font-variant:normal;font-size:8px;text-anchor:start;text-align:start;writing-mode:lr;line-height:125%" />
  </g>
  <g
     transform="translate(61.6455, 1.66699)"
     style="fill:#ffffff;fill-rule:nonzero;stroke:#000000;stroke-width:1;stroke-linecap:butt;stroke-linejoin:miter;stroke-dasharray:none;-inkscape-font-specification:Bitstream Vera Sans;font-family:Bitstream Vera Sans;font-weight:normal;font-style:normal;font-stretch:normal;font-variant:normal;font-size:8px;text-anchor:start;text-align:start;writing-mode:lr;line-height:125%"
     id="g32">
    <path
       d="M7.334 16 C7.334 16 7.334 0 7.334 0 C7.334 0 0 0 0 0 C0 0 0 16 0 16 C0 16 7.334 16 7.334 16 Z"
       id="path34"
       style="-inkscape-font-specification:Bitstream Vera Sans;font-family:Bitstream Vera Sans;font-weight:normal;font-style:normal;font-stretch:normal;font-variant:normal;font-size:8px;text-anchor:start;text-align:start;writing-mode:lr;line-height:125%" />
  </g>
  <g
     transform="translate(64.3125, 15)"
     style="fill:none;stroke:#000000;stroke-width:1;stroke-linecap:butt;stroke-linejoin:miter;stroke-dasharray:none;-inkscape-font-specification:Bitstream Vera Sans;font-family:Bitstream Vera Sans;font-weight:normal;font-style:normal;font-stretch:normal;font-variant:normal;font-size:8px;text-anchor:start;text-align:start;writing-mode:lr;line-height:125%"
     id="g36">
    <path
       d="M0 0 C0 11.333 2 10.667 2 0 "
       id="path38"
       style="-inkscape-font-specification:Bitstream Vera Sans;font-family:Bitstream Vera Sans;font-weight:normal;font-style:normal;font-stretch:normal;font-variant:normal;font-size:8px;text-anchor:start;text-align:start;writing-mode:lr;line-height:125%" />
  </g>
  <g
     id="g3274"
     transform="translate(13.669025,180.26026)">
    <g
       id="g76"
       style="font-size:8px;font-style:normal;font-variant:normal;font-weight:normal;font-stretch:normal;text-align:start;line-height:125%;writing-mode:lr-tb;text-anchor:start;fill:#000000;fill-rule:nonzero;stroke:#000000;stroke-width:1;stroke-linecap:butt;stroke-linejoin:miter;stroke-dasharray:none;font-family:Bitstream Vera Sans;-inkscape-font-specification:Bitstream Vera Sans"
       transform="translate(48.236818,-79.346464)">
      <path
         style="font-size:8px;font-style:normal;font-variant:normal;font-weight:normal;font-stretch:normal;text-align:start;line-height:125%;writing-mode:lr-tb;text-anchor:start;font-family:Bitstream Vera Sans;-inkscape-font-specification:Bitstream Vera Sans"
         id="path78"
         d="M 3.7334,0 C 3.7334,0 1.8672,0 1.8672,0 C 1.8672,0 0,2.3994 0,2.3994 C 0,2.3994 0,11.3344 0,11.3344 C 0,11.3344 6,11.3344 6,11.3344 C 6,11.3344 6,2.3994 6,2.3994 C 6,2.3994 3.7334,0 3.7334,0 z" />
    </g>
    <g
       id="g80"
       style="font-size:8px;font-style:normal;font-variant:normal;font-weight:normal;font-stretch:normal;text-align:start;line-height:125%;writing-mode:lr-tb;text-anchor:start;fill:none;stroke:#000000;stroke-width:1;stroke-linecap:butt;stroke-linejoin:miter;stroke-dasharray:none;font-family:Bitstream Vera Sans;-inkscape-font-specification:Bitstream Vera Sans"
       transform="translate(49.820818,-84.530064)">
      <path
         style="font-size:8px;font-style:normal;font-variant:normal;font-weight:normal;font-stretch:normal;text-align:start;line-height:125%;writing-mode:lr-tb;text-anchor:start;font-family:Bitstream Vera Sans;-inkscape-font-specification:Bitstream Vera Sans"
         id="path82"
         d="M 0,1.083 C 2.166,0 1.75,2.417 1.166,2.833 C 0.583,3.25 1.083,4.833 1.083,4.833" />
    </g>
  </g>
  <text
     xml:space="preserve"
     style="font-size:8px;font-style:normal;font-variant:normal;font-weight:normal;font-stretch:normal;text-align:start;line-height:125%;writing-mode:lr-tb;text-anchor:start;fill:#000000;fill-opacity:1;stroke:none;stroke-width:1px;stroke-linecap:butt;stroke-linejoin:miter;stroke-opacity:1;font-family:Bitstream Vera Sans;-inkscape-font-specification:Bitstream Vera Sans"
     x="0.23429927"
     y="42.902786"
     id="text2750"
     sodipodi:linespacing="125%"><tspan
       sodipodi:role="line"
       id="tspan2752"
       x="0.23429927"
       y="42.902786">(a) initial, balanced configuration</tspan></text>
  <text
     xml:space="preserve"
     style="font-size:8px;font-style:normal;font-variant:normal;font-weight:normal;font-stretch:normal;text-align:start;line-height:125%;writing-mode:lr-tb;text-anchor:start;fill:#000000;fill-opacity:1;stroke:none;stroke-width:1px;stroke-linecap:butt;stroke-linejoin:miter;stroke-opacity:1;font-family:Bitstream Vera Sans;-inkscape-font-specification:Bitstream Vera Sans"
     x="0.2342988"
     y="119.99866"
     id="text2754"
     sodipodi:linespacing="125%"><tspan
       sodipodi:role="line"
       x="0.2342988"
       y="119.99866"
       id="tspan2762">(b) final setup, unbalanced by the added weight</tspan></text>
  <path
     style="fill:#ffffff;fill-opacity:1;stroke:#000000;stroke-width:0.69999999;stroke-miterlimit:4;stroke-dasharray:none;stroke-dashoffset:0;stroke-opacity:1"
     d="M 45.644314,24.048966 L 45.644314,18.72405 L 43.764932,18.72405 L 43.343276,18.302394 L 44.011902,17.633767 L 43.349299,16.971165 L 44.011902,16.302538 L 43.343276,15.633912 L 44.011902,14.965286 L 43.343276,14.296659 L 44.011902,13.628033 L 43.343276,12.959407 L 44.011902,12.290781 L 43.343276,11.622154 L 44.011902,10.953528 L 43.349299,10.284902 L 44.011902,9.622299 L 43.343276,8.953672 L 44.011902,8.285046 L 43.343276,7.61642 L 44.011902,6.947794 L 43.343276,6.279167 L 44.011902,5.610541 L 43.349299,4.947938 L 44.011902,4.279312 L 43.343276,3.610686 L 44.011902,2.94206 L 43.343276,2.273433 L 44.011902,1.604807 L 43.343276,0.93618102 L 44.011902,0.26755402 L 43.343276,-0.40107198 L 44.011902,-1.069698 L 43.349299,-1.738324 L 44.011902,-2.400928 L 43.43363,-2.979199 L 39.494157,-2.979199 L 38.915885,-2.400928 L 39.578488,-1.738324 L 38.915885,-1.069698 L 39.584512,-0.40107198 L 38.915885,0.26755402 L 39.584512,0.93618102 L 38.915885,1.604807 L 39.584512,2.273433 L 38.915885,2.94206 L 39.584512,3.610686 L 38.915885,4.279312 L 39.578488,4.947938 L 38.915885,5.610541 L 39.584512,6.279167 L 38.915885,6.947794 L 39.584512,7.61642 L 38.915885,8.285046 L 39.584512,8.953672 L 38.915885,9.622299 L 39.578488,10.284902 L 38.915885,10.953528 L 39.584512,11.622154 L 38.915885,12.290781 L 39.584512,12.959407 L 38.915885,13.628033 L 39.584512,14.296659 L 38.915885,14.965286 L 39.584512,15.633912 L 38.915885,16.302538 L 39.578488,16.971165 L 38.915885,17.633767 L 39.584512,18.302394 L 39.162855,18.72405 L 37.289497,18.72405 L 37.289497,24.048966 L 45.644314,24.048966 z"
     id="path3234" />
  <rect
     style="fill:#ffffff;fill-opacity:1;stroke:#000000;stroke-width:0.875;stroke-miterlimit:4;stroke-dasharray:none;stroke-dashoffset:0;stroke-opacity:1"
     id="rect3236"
     width="9.5042439"
     height="4.9123058"
     x="36.842293"
     y="7.5898108" />
  <path
     style="fill:#ffffff;fill-opacity:1;stroke:#000000;stroke-width:0.69999999;stroke-miterlimit:4;stroke-dasharray:none;stroke-dashoffset:0;stroke-opacity:1"
     d="M 103.83263,70.218829 L 103.83263,75.543745 L 105.71201,75.543745 L 106.13367,75.965401 L 105.46504,76.634027 L 106.12764,77.29663 L 105.46504,77.965256 L 106.13367,78.633882 L 105.46504,79.302509 L 106.13367,79.971135 L 105.46504,80.639761 L 106.13367,81.308388 L 105.46504,81.977014 L 106.13367,82.64564 L 105.46504,83.314266 L 106.12764,83.982893 L 105.46504,84.645496 L 106.13367,85.314122 L 105.46504,85.982748 L 106.13367,86.651375 L 105.46504,87.320001 L 106.13367,87.988627 L 105.46504,88.657253 L 106.12764,89.319856 L 105.46504,89.988482 L 106.13367,90.657109 L 105.46504,91.325735 L 106.13367,91.994361 L 105.46504,92.662988 L 106.13367,93.331614 L 105.46504,94.00024 L 106.13367,94.668866 L 105.46504,95.337493 L 106.12764,96.006119 L 105.46504,96.668722 L 106.04331,97.246993 L 109.98279,97.246993 L 110.56106,96.668722 L 109.89846,96.006119 L 110.56106,95.337493 L 109.89243,94.668866 L 110.56106,94.00024 L 109.89243,93.331614 L 110.56106,92.662988 L 109.89243,91.994361 L 110.56106,91.325735 L 109.89243,90.657109 L 110.56106,89.988482 L 109.89846,89.319856 L 110.56106,88.657253 L 109.89243,87.988627 L 110.56106,87.320001 L 109.89243,86.651375 L 110.56106,85.982748 L 109.89243,85.314122 L 110.56106,84.645496 L 109.89846,83.982893 L 110.56106,83.314266 L 109.89243,82.64564 L 110.56106,81.977014 L 109.89243,81.308388 L 110.56106,80.639761 L 109.89243,79.971135 L 110.56106,79.302509 L 109.89243,78.633882 L 110.56106,77.965256 L 109.89846,77.29663 L 110.56106,76.634027 L 109.89243,75.965401 L 110.31409,75.543745 L 112.18745,75.543745 L 112.18745,70.218829 L 103.83263,70.218829 z"
     id="path3240" />
  <g
     transform="translate(0.1869253,78.223362)"
     style="font-size:8px;font-style:normal;font-variant:normal;font-weight:normal;font-stretch:normal;text-align:start;line-height:125%;writing-mode:lr-tb;text-anchor:start;fill:#bfbfbf;fill-rule:nonzero;stroke:#000000;stroke-width:1;stroke-linecap:butt;stroke-linejoin:miter;stroke-dasharray:none;font-family:Bitstream Vera Sans;-inkscape-font-specification:Bitstream Vera Sans"
     id="g3242">
    <path
       d="M 175.5,12 C 175.5,12 175.5,0 175.5,0 C 175.5,0 0,0 0,0 C 0,0 0,12 0,12 C 0,12 175.5,12 175.5,12 z"
       id="path3244"
       style="font-size:8px;font-style:normal;font-variant:normal;font-weight:normal;font-stretch:normal;text-align:start;line-height:125%;writing-mode:lr-tb;text-anchor:start;font-family:Bitstream Vera Sans;-inkscape-font-specification:Bitstream Vera Sans" />
  </g>
  <g
     transform="translate(151.63576,76.556372)"
     style="font-size:8px;font-style:normal;font-variant:normal;font-weight:normal;font-stretch:normal;text-align:start;line-height:125%;writing-mode:lr-tb;text-anchor:start;fill:#404040;fill-rule:nonzero;stroke:none;stroke-width:1;stroke-linecap:butt;stroke-linejoin:miter;stroke-dasharray:none;font-family:Bitstream Vera Sans;-inkscape-font-specification:Bitstream Vera Sans"
     id="g3246">
    <path
       d="M 24.666,15.334 C 24.666,15.334 24.666,0 24.666,0 C 24.666,0 0,0 0,0 C 0,0 0,15.334 0,15.334 C 0,15.334 24.666,15.334 24.666,15.334 z"
       id="path3248"
       style="font-size:8px;font-style:normal;font-variant:normal;font-weight:normal;font-stretch:normal;text-align:start;line-height:125%;writing-mode:lr-tb;text-anchor:start;font-family:Bitstream Vera Sans;-inkscape-font-specification:Bitstream Vera Sans" />
  </g>
  <g
     transform="matrix(0,1,-1,0,173.19989,75.042949)"
     style="font-size:8px;font-style:normal;font-variant:normal;font-weight:normal;font-stretch:normal;text-align:start;line-height:125%;writing-mode:lr-tb;text-anchor:start;fill:#000000;fill-rule:nonzero;stroke:none;stroke-width:1;stroke-linecap:butt;stroke-linejoin:miter;stroke-dasharray:none;font-family:Bitstream Vera Sans;-inkscape-font-specification:Bitstream Vera Sans"
     id="g3250">
    <path
       d="M 8.761,11.4287 C 8.761,11.4287 8.761,7.42871 8.761,7.42871 C 8.761,7.42871 18.639,7.42871 18.639,7.42871 C 17.721,3.18262 13.949,0 9.428,0 C 4.221,0 0,4.22168 0,9.42872 C 0,14.6357 4.221,18.8564 9.428,18.8564 C 13.949,18.8564 17.721,15.6738 18.639,11.4287 C 18.639,11.4287 8.761,11.4287 8.761,11.4287 z"
       id="path3252"
       style="font-size:8px;font-style:normal;font-variant:normal;font-weight:normal;font-stretch:normal;text-align:start;line-height:125%;writing-mode:lr-tb;text-anchor:start;font-family:Bitstream Vera Sans;-inkscape-font-specification:Bitstream Vera Sans" />
  </g>
  <g
     transform="translate(84.427113,84.640362)"
     style="font-size:8px;font-style:normal;font-variant:normal;font-weight:normal;font-stretch:normal;text-align:start;line-height:125%;writing-mode:lr-tb;text-anchor:start;fill:#404040;fill-rule:nonzero;stroke:none;stroke-width:1;stroke-linecap:butt;stroke-linejoin:miter;stroke-dasharray:none;font-family:Bitstream Vera Sans;-inkscape-font-specification:Bitstream Vera Sans"
     id="g3254">
    <path
       d="M 4.3331,0 C 4.3331,0 4.3331,1.333 4.3331,1.333 C 4.3331,1.333 3,1.333 3,1.333 C 3,1.333 3,0 3,0 C 3,0 0,0 0,0 C 0,0 0,20 0,20 C 0,20 7.3331,20 7.3331,20 C 7.3331,20 7.3331,0 7.3331,0 C 7.3331,0 4.3331,0 4.3331,0 z"
       id="path3256"
       style="font-size:8px;font-style:normal;font-variant:normal;font-weight:normal;font-stretch:normal;text-align:start;line-height:125%;writing-mode:lr-tb;text-anchor:start;font-family:Bitstream Vera Sans;-inkscape-font-specification:Bitstream Vera Sans" />
  </g>
  <g
     transform="translate(86.443713,82.573952)"
     style="font-size:8px;font-style:normal;font-variant:normal;font-weight:normal;font-stretch:normal;text-align:start;line-height:125%;writing-mode:lr-tb;text-anchor:start;fill:#000000;fill-rule:nonzero;stroke:none;stroke-width:1;stroke-linecap:butt;stroke-linejoin:miter;stroke-dasharray:none;font-family:Bitstream Vera Sans;-inkscape-font-specification:Bitstream Vera Sans"
     id="g3258">
    <path
       d="M 1.6495,3.29981 C 2.5606,3.29981 3.2998,2.56051 3.2998,1.64941 C 3.2998,0.73828 2.5606,0 1.6495,0 C 0.7383,0 0,0.73828 0,1.64941 C 0,2.56051 0.7383,3.29981 1.6495,3.29981 z"
       id="path3260"
       style="font-size:8px;font-style:normal;font-variant:normal;font-weight:normal;font-stretch:normal;text-align:start;line-height:125%;writing-mode:lr-tb;text-anchor:start;font-family:Bitstream Vera Sans;-inkscape-font-specification:Bitstream Vera Sans" />
  </g>
  <g
     transform="translate(61.061913,75.890352)"
     style="font-size:8px;font-style:normal;font-variant:normal;font-weight:normal;font-stretch:normal;text-align:start;line-height:125%;writing-mode:lr-tb;text-anchor:start;fill:#ffffff;fill-rule:nonzero;stroke:#000000;stroke-width:1;stroke-linecap:butt;stroke-linejoin:miter;stroke-dasharray:none;font-family:Bitstream Vera Sans;-inkscape-font-specification:Bitstream Vera Sans"
     id="g3262">
    <path
       d="M 7.334,16 C 7.334,16 7.334,0 7.334,0 C 7.334,0 0,0 0,0 C 0,0 0,16 0,16 C 0,16 7.334,16 7.334,16 z"
       id="path3264"
       style="font-size:8px;font-style:normal;font-variant:normal;font-weight:normal;font-stretch:normal;text-align:start;line-height:125%;writing-mode:lr-tb;text-anchor:start;font-family:Bitstream Vera Sans;-inkscape-font-specification:Bitstream Vera Sans" />
  </g>
  <g
     transform="translate(63.728913,89.223362)"
     style="font-size:8px;font-style:normal;font-variant:normal;font-weight:normal;font-stretch:normal;text-align:start;line-height:125%;writing-mode:lr-tb;text-anchor:start;fill:none;stroke:#000000;stroke-width:1;stroke-linecap:butt;stroke-linejoin:miter;stroke-dasharray:none;font-family:Bitstream Vera Sans;-inkscape-font-specification:Bitstream Vera Sans"
     id="g3266">
    <path
       d="M 0,0 C 0,11.333 2,10.667 2,0"
       id="path3268"
       style="font-size:8px;font-style:normal;font-variant:normal;font-weight:normal;font-stretch:normal;text-align:start;line-height:125%;writing-mode:lr-tb;text-anchor:start;font-family:Bitstream Vera Sans;-inkscape-font-specification:Bitstream Vera Sans" />
  </g>
  <path
     style="fill:#ffffff;fill-opacity:1;stroke:#000000;stroke-width:0.69999999;stroke-miterlimit:4;stroke-dasharray:none;stroke-dashoffset:0;stroke-opacity:1"
     d="M 45.060733,98.272328 L 45.060733,92.947412 L 43.181349,92.947412 L 42.759693,92.525756 L 43.428319,91.857129 L 42.765716,91.194527 L 43.428319,90.5259 L 42.759693,89.857274 L 43.428319,89.188648 L 42.759693,88.520021 L 43.428319,87.851395 L 42.759693,87.182769 L 43.428319,86.514143 L 42.759693,85.845516 L 43.428319,85.17689 L 42.765716,84.508264 L 43.428319,83.845661 L 42.759693,83.177034 L 43.428319,82.508408 L 42.759693,81.839782 L 43.428319,81.171156 L 42.759693,80.502529 L 43.428319,79.833903 L 42.765716,79.1713 L 43.428319,78.502674 L 42.759693,77.834048 L 43.428319,77.165422 L 42.759693,76.496795 L 43.428319,75.828169 L 42.759693,75.159543 L 43.428319,74.490916 L 42.759693,73.82229 L 43.428319,73.153664 L 42.765716,72.485038 L 43.428319,71.822434 L 42.850047,71.244163 L 38.910574,71.244163 L 38.332302,71.822434 L 38.994905,72.485038 L 38.332302,73.153664 L 39.000929,73.82229 L 38.332302,74.490916 L 39.000929,75.159543 L 38.332302,75.828169 L 39.000929,76.496795 L 38.332302,77.165422 L 39.000929,77.834048 L 38.332302,78.502674 L 38.994905,79.1713 L 38.332302,79.833903 L 39.000929,80.502529 L 38.332302,81.171156 L 39.000929,81.839782 L 38.332302,82.508408 L 39.000929,83.177034 L 38.332302,83.845661 L 38.994905,84.508264 L 38.332302,85.17689 L 39.000929,85.845516 L 38.332302,86.514143 L 39.000929,87.182769 L 38.332302,87.851395 L 39.000929,88.520021 L 38.332302,89.188648 L 39.000929,89.857274 L 38.332302,90.5259 L 38.994905,91.194527 L 38.332302,91.857129 L 39.000929,92.525756 L 38.579272,92.947412 L 36.705914,92.947412 L 36.705914,98.272328 L 45.060733,98.272328 z"
     id="path3270" />
  <rect
     style="fill:#ffffff;fill-opacity:1;stroke:#000000;stroke-width:0.875;stroke-miterlimit:4;stroke-dasharray:none;stroke-dashoffset:0;stroke-opacity:1"
     id="rect3272"
     width="9.5042439"
     height="4.9123058"
     x="36.258713"
     y="81.813171" />
</svg>
