<?xml version="1.0" encoding="UTF-8" standalone="no"?>
<!-- Created with Inkscape (http://www.inkscape.org/) -->
<svg
   xmlns:dc="http://purl.org/dc/elements/1.1/"
   xmlns:cc="http://creativecommons.org/ns#"
   xmlns:rdf="http://www.w3.org/1999/02/22-rdf-syntax-ns#"
   xmlns:svg="http://www.w3.org/2000/svg"
   xmlns="http://www.w3.org/2000/svg"
   xmlns:sodipodi="http://sodipodi.sourceforge.net/DTD/sodipodi-0.dtd"
   xmlns:inkscape="http://www.inkscape.org/namespaces/inkscape"
   width="744.09448819"
   height="1052.3622047"
   id="svg2"
   sodipodi:version="0.32"
   inkscape:version="0.46"
   sodipodi:docname="me-t3d-setup.svg"
   inkscape:output_extension="org.inkscape.output.svg.inkscape">
  <defs
     id="defs4">
    <inkscape:perspective
       sodipodi:type="inkscape:persp3d"
       inkscape:vp_x="0 : 526.18109 : 1"
       inkscape:vp_y="0 : 1000 : 0"
       inkscape:vp_z="744.09448 : 526.18109 : 1"
       inkscape:persp3d-origin="372.04724 : 350.78739 : 1"
       id="perspective10" />
  </defs>
  <sodipodi:namedview
     id="base"
     pagecolor="#ffffff"
     bordercolor="#666666"
     borderopacity="1.0"
     gridtolerance="10000"
     guidetolerance="10"
     objecttolerance="10"
     inkscape:pageopacity="0.0"
     inkscape:pageshadow="2"
     inkscape:zoom="2.3944114"
     inkscape:cx="116.0942"
     inkscape:cy="1047.1543"
     inkscape:document-units="px"
     inkscape:current-layer="layer1"
     showgrid="false"
     inkscape:window-width="1278"
     inkscape:window-height="996"
     inkscape:window-x="1"
     inkscape:window-y="1" />
  <metadata
     id="metadata7">
    <rdf:RDF>
      <cc:Work
         rdf:about="">
        <dc:format>image/svg+xml</dc:format>
        <dc:type
           rdf:resource="http://purl.org/dc/dcmitype/StillImage" />
      </cc:Work>
    </rdf:RDF>
  </metadata>
  <g
     inkscape:label="Layer 1"
     inkscape:groupmode="layer"
     id="layer1">
    <path
       style="fill:none;fill-rule:evenodd;stroke:#000000;stroke-width:1px;stroke-linecap:butt;stroke-linejoin:miter;stroke-opacity:1"
       d="M 66.5632,235.2989 L 209.11938,117.70391 L 211.33816,121.58677 L 215.22101,120.47738 L 220.21325,123.25085 L 225.20549,123.25085 L 227.42426,126.57901 L 231.86181,126.02431 L 236.29936,129.90717 L 249.612,127.1337 L 250.72138,129.90717 L 264.03402,132.68063 L 264.58872,137.11818 L 270.69035,136.00879 L 277.90136,137.11818 C 277.90136,137.11818 282.33891,133.23533 284.55768,137.11818 C 286.77645,141.00103 286.77645,141.00103 286.77645,141.00103 C 286.77645,141.00103 292.87808,137.11818 294.54216,139.33695 C 296.20624,141.55573 299.5344,143.21981 301.75317,143.21981 C 303.97195,143.21981 311.18296,142.66511 311.18296,142.66511 L 315.62051,148.21205 C 315.62051,148.21205 324.4956,144.32919 325.05029,147.65735 C 325.60499,150.98551 326.15968,150.98551 326.15968,150.98551 L 335.58947,149.87613 L 341.1364,155.97775 C 341.1364,155.97775 352.78496,152.64959 353.33965,155.97775 C 353.89435,159.30591 354.44904,159.30591 354.44904,159.30591 L 359.99597,167.07162 L 366.65229,163.18877 L 376.08208,165.96223 L 379.96493,170.39978 L 255.71362,280.22906 L 251.83077,280.22906 L 251.27608,275.79151 L 247.94792,275.79151 L 240.7369,276.9009 L 236.29936,275.23682 L 227.42426,274.12743 L 214.66632,275.23682 L 213.55693,268.02581 L 206.90061,268.5805 L 200.24429,268.5805 L 191.92389,268.5805 L 191.3692,265.80703 L 168.07208,265.80703 L 163.63453,261.36949 L 153.65005,255.26786 L 138.67333,257.48663 L 138.67333,253.04909 L 132.01701,253.04909 L 126.47008,251.38501 L 126.47008,248.61154 L 118.70437,251.38501 L 115.37621,250.27562 L 110.93866,250.27562 L 106.50112,249.16623 L 97.071333,249.16623 L 95.407253,249.16623 L 92.633783,240.84583 L 82.094614,240.29114 L 77.102374,240.29114 L 69.89136,240.84583 L 66.5632,235.2989 z"
       id="path3197" />
    <path
       style="fill:none;fill-rule:evenodd;stroke:#000000;stroke-width:1px;stroke-linecap:butt;stroke-linejoin:miter;stroke-opacity:1"
       d="M 43.537244,253.0027 L 268.28356,302.03113 L 381.63728,200.83645"
       id="path2383" />
    <path
       style="fill:none;fill-rule:evenodd;stroke:#000000;stroke-width:1px;stroke-linecap:butt;stroke-linejoin:miter;stroke-opacity:1"
       d="M 43.145016,265.94621 L 269.06801,315.75909 L 380.06837,214.95664"
       id="path2385" />
    <path
       style="fill:#ffffff;fill-opacity:1;stroke:#000000;stroke-width:1;stroke-miterlimit:4;stroke-dasharray:none;stroke-dashoffset:0;stroke-opacity:1"
       d="M 230.71875 134.75 C 194.4534 134.75 165.03125 145.44916 165.03125 158.65625 C 165.03124 171.86333 194.4534 182.59375 230.71875 182.59375 C 266.9841 182.59375 296.43749 171.86333 296.4375 158.65625 C 296.4375 145.44917 266.98409 134.75 230.71875 134.75 z M 230.71875 138.59375 C 262.90827 138.59375 289.03125 147.57871 289.03125 158.65625 C 289.03125 169.73379 262.90827 178.75 230.71875 178.75 C 198.52923 178.75001 172.40625 169.73379 172.40625 158.65625 C 172.40626 147.57871 198.52923 138.59375 230.71875 138.59375 z "
       id="path2393" />
    <rect
       style="fill:#ffffff;fill-opacity:1;stroke:#000000;stroke-width:1;stroke-miterlimit:4;stroke-dasharray:none;stroke-dashoffset:0;stroke-opacity:1"
       id="rect2397"
       width="3.8828533"
       height="238.51813"
       x="62.680347"
       y="38.382763"
       ry="1.9414266" />
    <rect
       style="fill:#ffffff;fill-opacity:1;stroke:#000000;stroke-width:0.83042938;stroke-miterlimit:4;stroke-dasharray:none;stroke-dashoffset:0;stroke-opacity:1"
       id="rect3191"
       width="6.4666028"
       height="29.563774"
       x="244.98793"
       y="92.782341"
       transform="matrix(0.9995244,3.0837885e-2,-1.4335377e-2,0.9998972,0,0)" />
    <rect
       style="fill:#ffffff;fill-opacity:1;stroke:#000000;stroke-width:1;stroke-miterlimit:4;stroke-dasharray:none;stroke-dashoffset:0;stroke-opacity:1"
       id="rect3173"
       width="3.8828533"
       height="238.51813"
       x="248.22527"
       y="79.430077"
       ry="1.9414266" />
    <rect
       style="fill:#ffffff;fill-opacity:1;stroke:#000000;stroke-width:1;stroke-miterlimit:4;stroke-dasharray:none;stroke-dashoffset:0;stroke-opacity:1"
       id="rect3175"
       width="3.8828533"
       height="238.51813"
       x="370.25781"
       y="-3.7739263"
       ry="1.9414266" />
    <path
       style="fill:none;fill-rule:evenodd;stroke:#000000;stroke-width:1px;stroke-linecap:butt;stroke-linejoin:miter;stroke-opacity:1"
       d="M 89.860321,56.687643 L 91.524401,67.78151 L 108.1652,77.76599 L 105.94643,67.226817 L 89.860321,56.687643 z"
       id="path3177" />
    <path
       style="fill:none;fill-rule:evenodd;stroke:#000000;stroke-width:1px;stroke-linecap:butt;stroke-linejoin:miter;stroke-opacity:1"
       d="M 63.23504,61.12519 L 89.305627,61.12519"
       id="path3179" />
    <path
       style="fill:none;fill-rule:evenodd;stroke:#000000;stroke-width:1px;stroke-linecap:butt;stroke-linejoin:miter;stroke-opacity:1"
       d="M 107.61051,71.10967 L 205.79122,137.67287"
       id="path3181"
       sodipodi:nodetypes="cc" />
    <path
       style="fill:none;fill-rule:evenodd;stroke:#000000;stroke-width:1px;stroke-linecap:butt;stroke-linejoin:miter;stroke-opacity:1"
       d="M 357.7772,10.648096 L 344.46456,31.17175 L 352.23027,36.16399 L 365.54291,14.53095 L 357.7772,10.648096 z"
       id="path3183" />
    <path
       style="fill:none;fill-rule:evenodd;stroke:#000000;stroke-width:1px;stroke-linecap:butt;stroke-linejoin:miter;stroke-opacity:1"
       d="M 348.34742,33.945217 L 277.90137,142.66511"
       id="path3185"
       sodipodi:nodetypes="cc" />
    <path
       style="fill:none;fill-rule:evenodd;stroke:#000000;stroke-width:1px;stroke-linecap:butt;stroke-linejoin:miter;stroke-opacity:1"
       d="M 361.66006,12.86687 L 370.53515,12.86687"
       id="path3187" />
    <path
       style="fill:none;fill-rule:evenodd;stroke:#000000;stroke-width:1px;stroke-linecap:butt;stroke-linejoin:miter;stroke-opacity:1"
       d="M 245.17445,128.79778 L 242.95568,177.0561"
       id="path3193" />
    <path
       style="fill:none;fill-rule:evenodd;stroke:#000000;stroke-width:1px;stroke-linecap:butt;stroke-linejoin:miter;stroke-opacity:1"
       d="M 75.438294,245.83807 L 75.438294,245.83807 z"
       id="path3205" />
    <g
       id="g4188"
       transform="translate(-18.484065,77.198155)">
      <g
         transform="translate(-273.33543,-211.63272)"
         id="g3957">
        <rect
           style="fill:#ffffff;fill-opacity:1;stroke:#000000;stroke-width:1;stroke-miterlimit:4;stroke-dasharray:none;stroke-dashoffset:0;stroke-opacity:1"
           id="rect3959"
           width="3.6522801"
           height="12.174267"
           x="469.52087"
           y="194.88797" />
        <rect
           style="fill:#ffffff;fill-opacity:1;stroke:#000000;stroke-width:1;stroke-miterlimit:4;stroke-dasharray:none;stroke-dashoffset:0;stroke-opacity:1"
           id="rect3961"
           width="3.6522801"
           height="12.174267"
           x="498.94205"
           y="216.39584" />
        <rect
           style="fill:#ffffff;fill-opacity:1;stroke:#000000;stroke-width:1;stroke-miterlimit:4;stroke-dasharray:none;stroke-dashoffset:0;stroke-opacity:1"
           id="rect3963"
           width="3.6522801"
           height="12.174267"
           x="521.26154"
           y="194.07635" />
        <path
           style="fill:#ffffff;fill-opacity:1;fill-rule:evenodd;stroke:#000000;stroke-width:1;stroke-linecap:butt;stroke-linejoin:miter;stroke-miterlimit:4;stroke-dasharray:none;stroke-opacity:1"
           d="M 465.86862,192.45312 L 495.89848,227.7585 L 528.769,194.48217 L 465.86862,192.45312 z"
           id="path3965" />
      </g>
      <rect
         ry="1.3480959"
         y="-166.92062"
         x="229.87984"
         height="165.62321"
         width="4.0335407"
         id="rect4091"
         style="fill:#ffffff;fill-opacity:1;stroke:#000000;stroke-width:0.84931272;stroke-miterlimit:4;stroke-dasharray:none;stroke-dashoffset:0;stroke-opacity:1" />
      <path
         id="path4177"
         d="M 244.98625,-32.687864 L 244.98625,1.9372965 L 248.71594,6.2945765 L 252.46356,1.9372965 L 252.46356,-32.687864 L 248.71594,-32.383034 L 244.98625,-32.687864 z"
         style="fill:#ffffff;fill-opacity:1;fill-rule:evenodd;stroke:#000000;stroke-width:1;stroke-linecap:butt;stroke-linejoin:miter;stroke-miterlimit:4;stroke-dasharray:none;stroke-opacity:1" />
      <path
         id="path4182"
         d="M 248.99123,-33.304828 L 248.99123,-158.88774"
         style="fill:none;fill-rule:evenodd;stroke:#000000;stroke-width:1px;stroke-linecap:butt;stroke-linejoin:miter;stroke-opacity:1" />
      <path
         id="path4186"
         d="M 234.31271,-159.97504 L 248.99123,-159.97504"
         style="fill:none;fill-rule:evenodd;stroke:#000000;stroke-width:1px;stroke-linecap:butt;stroke-linejoin:miter;stroke-opacity:1" />
    </g>
  </g>
</svg>
