<?xml version="1.0" encoding="UTF-8" standalone="no"?>
<!-- Created with Inkscape (http://www.inkscape.org/) -->

<svg
   xmlns:dc="http://purl.org/dc/elements/1.1/"
   xmlns:cc="http://creativecommons.org/ns#"
   xmlns:rdf="http://www.w3.org/1999/02/22-rdf-syntax-ns#"
   xmlns:svg="http://www.w3.org/2000/svg"
   xmlns="http://www.w3.org/2000/svg"
   xmlns:sodipodi="http://sodipodi.sourceforge.net/DTD/sodipodi-0.dtd"
   xmlns:inkscape="http://www.inkscape.org/namespaces/inkscape"
   width="744.09448819"
   height="1052.3622047"
   id="svg2"
   version="1.1"
   sodipodi:docname="me-vec-knots.svg">
  <defs
     id="defs4" />
  <sodipodi:namedview
     id="base"
     pagecolor="#ffffff"
     bordercolor="#666666"
     borderopacity="1.0"
     inkscape:pageopacity="0.0"
     inkscape:pageshadow="2"
     inkscape:zoom="1.3438401"
     inkscape:cx="194.91782"
     inkscape:cy="711.16757"
     inkscape:document-units="px"
     inkscape:current-layer="layer1"
     showgrid="false"
     inkscape:window-width="1280"
     inkscape:window-height="996"
     inkscape:window-x="0"
     inkscape:window-y="0"
     inkscape:window-maximized="1" />
  <metadata
     id="metadata7">
    <rdf:RDF>
      <cc:Work
         rdf:about="">
        <dc:format>image/svg+xml</dc:format>
        <dc:type
           rdf:resource="http://purl.org/dc/dcmitype/StillImage" />
        <dc:title></dc:title>
      </cc:Work>
    </rdf:RDF>
  </metadata>
  <g
     inkscape:label="Layer 1"
     inkscape:groupmode="layer"
     id="layer1">
    <g
       id="g4205"
       transform="translate(-0.08827973,0)">
      <g
         transform="translate(-0.88278198,0)"
         id="g3971">
        <rect
           style="fill:#dedede;fill-opacity:1;stroke:none"
           id="rect2985-4"
           width="253.99753"
           height="105.71428"
           x="61.209934"
           y="63.758232" />
        <path
           style="color:#000000;fill:none;stroke:#000000;stroke-width:2.5;stroke-linecap:butt;stroke-linejoin:miter;stroke-miterlimit:4;stroke-opacity:1;stroke-dasharray:none;stroke-dashoffset:0;marker:none;visibility:visible;display:inline;overflow:visible;enable-background:accumulate"
           d="m 142.06989,107.75867 c -5.74282,-16.978784 7.74032,-24.219734 13.73283,-16.729094 5.99251,7.49063 4.49438,12.734084 -3.995,16.978774 -8.48939,4.2447 -23.72035,-0.49937 -28.71411,7.49064 -4.99376,7.99001 11.98502,3.99501 20.47441,2.49688 8.48938,-1.49813 25.46816,1.24844 23.97003,-10.48689 -1.49813,-11.735334 -7.49063,-32.9588 -17.97753,-27.71536 -10.48689,5.243446 -14.48189,7.490636 -15.48064,13.732836 -0.99876,6.24219 0.74906,12.734084 0.74906,12.734084"
           id="path3759"
           inkscape:connector-curvature="0" />
        <path
           style="color:#000000;fill:none;stroke:#000000;stroke-width:2.5;stroke-linecap:butt;stroke-linejoin:miter;stroke-miterlimit:4;stroke-opacity:1;stroke-dasharray:none;stroke-dashoffset:0;marker:none;visibility:visible;display:inline;overflow:visible;enable-background:accumulate"
           d="m 136.07738,111.50398 1.24844,4.74407"
           id="path3761"
           inkscape:connector-curvature="0" />
        <path
           style="color:#000000;fill:none;stroke:#000000;stroke-width:2.5;stroke-linecap:butt;stroke-linejoin:miter;stroke-miterlimit:4;stroke-opacity:1;stroke-dasharray:none;stroke-dashoffset:0;marker:none;visibility:visible;display:inline;overflow:visible;enable-background:accumulate"
           d="m 142.31958,111.50398 1.49812,3.74532"
           id="path3763"
           inkscape:connector-curvature="0" />
        <path
           style="color:#000000;fill:none;stroke:#000000;stroke-width:2.5;stroke-linecap:butt;stroke-linejoin:miter;stroke-miterlimit:4;stroke-opacity:1;stroke-dasharray:none;stroke-dashoffset:0;marker:none;visibility:visible;display:inline;overflow:visible;enable-background:accumulate"
           d="m 138.82395,121.4915 c 0,0 1.49812,3.24594 2.99625,11.98502 1.49813,8.73907 0.99875,13.98252 0.99875,13.98252"
           id="path3765"
           inkscape:connector-curvature="0" />
        <path
           style="color:#000000;fill:none;stroke:#000000;stroke-width:2.5;stroke-linecap:butt;stroke-linejoin:miter;stroke-miterlimit:4;stroke-opacity:1;stroke-dasharray:none;stroke-dashoffset:0;marker:none;visibility:visible;display:inline;overflow:visible;enable-background:accumulate"
           d="m 144.56677,120.74244 c 3.49563,6.99126 2.99625,24.7191 2.99625,24.7191"
           id="path3767"
           inkscape:connector-curvature="0" />
        <path
           style="color:#000000;fill:none;stroke:#000000;stroke-width:2.5;stroke-linecap:butt;stroke-linejoin:miter;stroke-miterlimit:4;stroke-opacity:1;stroke-dasharray:none;stroke-dashoffset:0;marker:none;visibility:visible;display:inline;overflow:visible;enable-background:accumulate"
           d="m 233.30634,117.23946 c 8.48939,-15.23096 11.48565,-23.720354 13.48315,-26.466924 1.9975,-2.74656 5.74282,-13.982522 9.98751,-5.24344 4.2447,8.73908 6.2422,11.98502 -0.24968,19.725344 -6.49189,7.74033 -19.72535,16.4794 -19.72535,16.4794"
           id="path3769"
           inkscape:connector-curvature="0" />
        <path
           style="color:#000000;fill:none;stroke:#000000;stroke-width:2.5;stroke-linecap:butt;stroke-linejoin:miter;stroke-miterlimit:4;stroke-opacity:1;stroke-dasharray:none;stroke-dashoffset:0;marker:none;visibility:visible;display:inline;overflow:visible;enable-background:accumulate"
           d="m 237.30135,129.72386 c -2.74657,-6.2422 -3.74532,-6.49189 -5.99251,-10.23721 -2.24719,-3.74532 -5.24345,-7.24095 -2.49688,-8.48939 2.74657,-1.24844 4.24469,0 4.24469,0"
           id="path3771"
           inkscape:connector-curvature="0" />
        <path
           style="color:#000000;fill:none;stroke:#000000;stroke-width:2.5;stroke-linecap:butt;stroke-linejoin:miter;stroke-miterlimit:4;stroke-opacity:1;stroke-dasharray:none;stroke-dashoffset:0;marker:none;visibility:visible;display:inline;overflow:visible;enable-background:accumulate"
           d="m 231.80822,131.47167 c -3.99501,-8.48939 -6.49189,-8.2397 -7.49064,-14.73158 -0.99875,-6.49189 -5.99251,-12.73409 -0.49938,-13.98253 5.49314,-1.24844 9.48814,1.99751 9.48814,1.99751"
           id="path3773"
           inkscape:connector-curvature="0" />
        <path
           style="color:#000000;fill:none;stroke:#000000;stroke-width:2.5;stroke-linecap:butt;stroke-linejoin:miter;stroke-miterlimit:4;stroke-opacity:1;stroke-dasharray:none;stroke-dashoffset:0;marker:none;visibility:visible;display:inline;overflow:visible;enable-background:accumulate"
           d="m 237.80072,113.24445 2.2472,2.2472"
           id="path3775"
           inkscape:connector-curvature="0" />
        <path
           style="color:#000000;fill:none;stroke:#000000;stroke-width:2.5;stroke-linecap:butt;stroke-linejoin:miter;stroke-miterlimit:4;stroke-opacity:1;stroke-dasharray:none;stroke-dashoffset:0;marker:none;visibility:visible;display:inline;overflow:visible;enable-background:accumulate"
           d="m 239.29885,108.75007 4.49438,4.2447"
           id="path3777"
           inkscape:connector-curvature="0" />
        <path
           style="color:#000000;fill:none;stroke:#000000;stroke-width:2.5;stroke-linecap:butt;stroke-linejoin:miter;stroke-miterlimit:4;stroke-opacity:1;stroke-dasharray:none;stroke-dashoffset:0;marker:none;visibility:visible;display:inline;overflow:visible;enable-background:accumulate"
           d="m 243.04417,121.23447 c 1.9975,5.99251 2.24719,8.48939 -0.74906,10.73658 -5.48495,4.11372 -10.48689,6.24219 -14.4819,3.995 -3.99501,-2.24719 -3.49563,-9.98751 -3.49563,-9.98751"
           id="path3779"
           inkscape:connector-curvature="0"
           sodipodi:nodetypes="cssc" />
        <path
           style="color:#000000;fill:none;stroke:#000000;stroke-width:2.5;stroke-linecap:butt;stroke-linejoin:miter;stroke-miterlimit:4;stroke-opacity:1;stroke-dasharray:none;stroke-dashoffset:0;marker:none;visibility:visible;display:inline;overflow:visible;enable-background:accumulate"
           d="m 247.03918,117.73883 c 1.9975,3.24595 5.74282,8.48939 1.9975,13.73284 -4.42343,6.19281 -12.73408,6.99126 -17.47815,7.24095 -4.74407,0.24969 -6.2422,-2.74657 -6.2422,-2.74657 l 0.74906,0.24969"
           id="path3781"
           inkscape:connector-curvature="0"
           sodipodi:nodetypes="csscc" />
        <path
           style="color:#000000;fill:none;stroke:#000000;stroke-width:2.5;stroke-linecap:butt;stroke-linejoin:miter;stroke-miterlimit:4;stroke-opacity:1;stroke-dasharray:none;stroke-dashoffset:0;marker:none;visibility:visible;display:inline;overflow:visible;enable-background:accumulate"
           d="m 227.31383,133.21949 0.49938,-2.74657"
           id="path3783"
           inkscape:connector-curvature="0" />
        <path
           style="color:#000000;fill:none;stroke:#000000;stroke-width:2.5;stroke-linecap:butt;stroke-linejoin:miter;stroke-miterlimit:4;stroke-opacity:1;stroke-dasharray:none;stroke-dashoffset:0;marker:none;visibility:visible;display:inline;overflow:visible;enable-background:accumulate"
           d="m 231.30884,126.97729 0.99875,-1.24844"
           id="path3785"
           inkscape:connector-curvature="0" />
        <path
           style="color:#000000;fill:none;stroke:#000000;stroke-width:2.5;stroke-linecap:butt;stroke-linejoin:miter;stroke-miterlimit:4;stroke-opacity:1;stroke-dasharray:none;stroke-dashoffset:0;marker:none;visibility:visible;display:inline;overflow:visible;enable-background:accumulate"
           d="m 229.31134,122.23322 0.74906,-1.49813"
           id="path3787"
           inkscape:connector-curvature="0" />
        <path
           style="color:#000000;fill:none;stroke:#000000;stroke-width:2.5;stroke-linecap:butt;stroke-linejoin:miter;stroke-miterlimit:4;stroke-opacity:1;stroke-dasharray:none;stroke-dashoffset:0;marker:none;visibility:visible;display:inline;overflow:visible;enable-background:accumulate"
           d="m 235.30385,139.71137 c 2.99625,7.74033 2.74656,11.73533 2.74656,11.73533"
           id="path3789"
           inkscape:connector-curvature="0" />
        <path
           style="color:#000000;fill:none;stroke:#000000;stroke-width:2.5;stroke-linecap:butt;stroke-linejoin:miter;stroke-miterlimit:4;stroke-opacity:1;stroke-dasharray:none;stroke-dashoffset:0;marker:none;visibility:visible;display:inline;overflow:visible;enable-background:accumulate"
           d="m 238.79948,139.212 c 3.74531,6.74157 2.74656,12.98377 2.74656,12.98377"
           id="path3791"
           inkscape:connector-curvature="0" />
        <text
           xml:space="preserve"
           style="font-size:10px;font-style:normal;font-variant:normal;font-weight:normal;font-stretch:normal;text-indent:0;text-align:start;text-decoration:none;line-height:125%;letter-spacing:0px;word-spacing:0px;text-transform:none;direction:ltr;block-progression:tb;writing-mode:lr-tb;text-anchor:start;baseline-shift:baseline;color:#000000;fill:#000000;fill-opacity:1;fill-rule:nonzero;stroke:none;stroke-width:1.24999988px;marker:none;visibility:visible;display:inline;overflow:visible;enable-background:accumulate;font-family:Liberation Sans;-inkscape-font-specification:Liberation Sans"
           x="144.77591"
           y="161.1075"
           id="text3811"
           sodipodi:linespacing="125%"><tspan
             sodipodi:role="line"
             id="tspan3813"
             x="144.77591"
             y="161.1075">overhand on a bight</tspan></text>
      </g>
    </g>
    <g
       id="g4179"
       transform="translate(-0.08827972,-1.0593262)">
      <g
         transform="translate(0.88278198,0)"
         id="g3946">
        <rect
           style="fill:#dedede;fill-opacity:1;stroke:none"
           id="rect2985-4-0"
           width="253.99753"
           height="105.71428"
           x="59.44437"
           y="178.16653" />
        <path
           style="color:#000000;fill:none;stroke:#000000;stroke-width:2.5;stroke-linecap:butt;stroke-linejoin:miter;stroke-miterlimit:4;stroke-opacity:1;stroke-dasharray:none;stroke-dashoffset:0;marker:none;visibility:visible;display:inline;overflow:visible;enable-background:accumulate"
           d="m 92.740395,230.91096 0.557333,29.74876"
           id="path3815"
           inkscape:connector-curvature="0"
           sodipodi:nodetypes="cc" />
        <path
           style="color:#000000;fill:none;stroke:#000000;stroke-width:2.5;stroke-linecap:butt;stroke-linejoin:miter;stroke-miterlimit:4;stroke-opacity:1;stroke-dasharray:none;stroke-dashoffset:0;marker:none;visibility:visible;display:inline;overflow:visible;enable-background:accumulate"
           d="m 93.560608,224.75933 c 0,-19.27508 -11.072923,-29.9379 -14.353782,-25.42671 -3.28087,4.51118 -6.561736,9.43249 -4.511194,13.12347 2.05054,3.69096 10.252698,12.30324 14.763896,13.94366 4.511189,1.64045 21.325622,11.89315 21.325622,11.89315"
           id="path3817"
           inkscape:connector-curvature="0" />
        <path
           style="color:#000000;fill:none;stroke:#000000;stroke-width:2.5;stroke-linecap:butt;stroke-linejoin:miter;stroke-miterlimit:4;stroke-opacity:1;stroke-dasharray:none;stroke-dashoffset:0;marker:none;visibility:visible;display:inline;overflow:visible;enable-background:accumulate"
           d="m 159.74303,218.75544 c -4.45867,-17.83468 -12.26135,-24.52268 -19.50669,-18.94935 -7.24534,5.57334 -18.39202,17.83469 -13.37601,22.85069 5.016,5.01601 7.24534,7.80268 11.70401,8.36001 4.45868,0.55734 8.36001,-1.672 8.36001,-1.672"
           id="path3819"
           inkscape:connector-curvature="0" />
        <path
           style="color:#000000;fill:none;stroke:#000000;stroke-width:2.5;stroke-linecap:butt;stroke-linejoin:miter;stroke-miterlimit:4;stroke-opacity:1;stroke-dasharray:none;stroke-dashoffset:0;marker:none;visibility:visible;display:inline;overflow:visible;enable-background:accumulate"
           d="m 138.56434,227.11545 c 3.90134,-2.78667 4.45868,-6.13067 8.91734,-3.344 4.45868,2.78667 6.68801,6.13067 9.47468,5.57334 2.78667,-0.55733 3.344,-2.78667 3.344,-2.78667"
           id="path3821"
           inkscape:connector-curvature="0" />
        <path
           style="color:#000000;fill:none;stroke:#000000;stroke-width:2.5;stroke-linecap:butt;stroke-linejoin:miter;stroke-miterlimit:4;stroke-opacity:1;stroke-dasharray:none;stroke-dashoffset:0;marker:none;visibility:visible;display:inline;overflow:visible;enable-background:accumulate"
           d="m 152.49769,223.21413 c 3.90134,-1.67201 7.24534,-2.78668 11.14667,-1.67201 3.90134,1.11466 9.47469,8.36 9.47469,8.36"
           id="path3823"
           inkscape:connector-curvature="0" />
        <path
           style="color:#000000;fill:none;stroke:#000000;stroke-width:2.5;stroke-linecap:butt;stroke-linejoin:miter;stroke-miterlimit:4;stroke-opacity:1;stroke-dasharray:none;stroke-dashoffset:0;marker:none;visibility:visible;display:inline;overflow:visible;enable-background:accumulate"
           d="m 138.00702,234.3608 0,24.52269"
           id="path3825"
           inkscape:connector-curvature="0" />
        <path
           style="color:#000000;fill:none;stroke:#000000;stroke-width:2.5;stroke-linecap:butt;stroke-linejoin:miter;stroke-miterlimit:4;stroke-opacity:1;stroke-dasharray:none;stroke-dashoffset:0;marker:none;visibility:visible;display:inline;overflow:visible;enable-background:accumulate"
           d="m 219.22257,215.86547 c -0.78166,-18.36693 -7.08024,-26.48722 -15.29825,-22.48449 -8.21798,4.00274 -21.60236,13.77245 -17.69732,19.69457 3.90501,5.92211 5.52851,9.10011 9.78406,10.54255 4.25555,1.44245 8.52547,0.0431 8.52547,0.0431"
           id="path3819-8"
           inkscape:connector-curvature="0" />
        <path
           style="color:#000000;fill:none;stroke:#000000;stroke-width:2.5;stroke-linecap:butt;stroke-linejoin:miter;stroke-miterlimit:4;stroke-opacity:1;stroke-dasharray:none;stroke-dashoffset:0;marker:none;visibility:visible;display:inline;overflow:visible;enable-background:accumulate"
           d="m 196.79549,219.79645 c 4.38196,-1.94535 5.60028,-5.10899 9.40759,-1.48274 3.80732,3.62624 5.31875,7.35019 8.16058,7.36454 2.84182,0.0144 3.83602,-2.05739 3.83602,-2.05739"
           id="path3821-7"
           inkscape:connector-curvature="0" />
        <path
           style="color:#000000;fill:none;stroke:#000000;stroke-width:2.5;stroke-linecap:butt;stroke-linejoin:miter;stroke-miterlimit:4;stroke-opacity:1;stroke-dasharray:none;stroke-dashoffset:0;marker:none;visibility:visible;display:inline;overflow:visible;enable-background:accumulate"
           d="m 213.80442,220.42745 c 2.22933,-1.11467 10.58935,-2.78667 13.37602,1.672 2.78667,4.45867 6.688,8.91734 -1.11466,14.49068 -7.80269,5.57333 -24.52271,20.62136 -24.52271,20.62136"
           id="path3856"
           inkscape:connector-curvature="0" />
        <path
           style="color:#000000;fill:none;stroke:#000000;stroke-width:2.5;stroke-linecap:butt;stroke-linejoin:miter;stroke-miterlimit:4;stroke-opacity:1;stroke-dasharray:none;stroke-dashoffset:0;marker:none;visibility:visible;display:inline;overflow:visible;enable-background:accumulate"
           d="m 193.18307,225.44345 c 1.11466,5.01601 2.78666,12.26135 6.688,15.04801 3.90135,2.78668 7.24534,5.57334 7.24534,5.57334"
           id="path3858"
           inkscape:connector-curvature="0" />
        <path
           style="color:#000000;fill:none;stroke:#000000;stroke-width:2.5;stroke-linecap:butt;stroke-linejoin:miter;stroke-miterlimit:4;stroke-opacity:1;stroke-dasharray:none;stroke-dashoffset:0;marker:none;visibility:visible;display:inline;overflow:visible;enable-background:accumulate"
           d="m 213.24709,251.08081 7.24534,7.80268"
           id="path3860"
           inkscape:connector-curvature="0" />
        <path
           style="color:#000000;fill:none;stroke:#000000;stroke-width:2.5;stroke-linecap:butt;stroke-linejoin:miter;stroke-miterlimit:4;stroke-opacity:1;stroke-dasharray:none;stroke-dashoffset:0;marker:none;visibility:visible;display:inline;overflow:visible;enable-background:accumulate"
           d="m 284.01011,216.79126 c -0.78166,-18.36693 -7.08025,-26.48722 -15.29824,-22.48449 -8.21797,4.00273 -21.60236,13.77246 -17.69734,19.69457 3.90501,5.92211 5.52852,9.10011 9.78408,10.54256 4.25556,1.44244 8.52545,0.0431 8.52545,0.0431"
           id="path3819-8-8"
           inkscape:connector-curvature="0" />
        <path
           style="color:#000000;fill:none;stroke:#000000;stroke-width:2.5;stroke-linecap:butt;stroke-linejoin:miter;stroke-miterlimit:4;stroke-opacity:1;stroke-dasharray:none;stroke-dashoffset:0;marker:none;visibility:visible;display:inline;overflow:visible;enable-background:accumulate"
           d="m 261.58302,220.72223 c 4.38199,-1.94534 5.60029,-5.10898 9.4076,-1.48274 3.80732,3.62626 5.31876,7.3502 8.16057,7.36457 2.84182,0.0143 3.83603,-2.0574 3.83603,-2.0574"
           id="path3821-7-1"
           inkscape:connector-curvature="0" />
        <path
           style="color:#000000;fill:none;stroke:#000000;stroke-width:2.5;stroke-linecap:butt;stroke-linejoin:miter;stroke-miterlimit:4;stroke-opacity:1;stroke-dasharray:none;stroke-dashoffset:0;marker:none;visibility:visible;display:inline;overflow:visible;enable-background:accumulate"
           d="m 280.12717,221.54212 c 5.016,-0.55734 10.58933,-7.80269 14.49067,4.45867 3.90134,12.26134 0.55733,22.85068 -3.344,22.85068 -3.90134,0 -15.04801,-4.45867 -15.04801,-4.45867"
           id="path3892"
           inkscape:connector-curvature="0" />
        <path
           style="color:#000000;fill:none;stroke:#000000;stroke-width:2.5;stroke-linecap:butt;stroke-linejoin:miter;stroke-miterlimit:4;stroke-opacity:1;stroke-dasharray:none;stroke-dashoffset:0;marker:none;visibility:visible;display:inline;overflow:visible;enable-background:accumulate"
           d="m 285.7005,242.72081 c -3.34401,-3.34401 -8.91734,-4.45868 -10.58934,-2.78667 -1.672,1.672 -6.68801,5.57333 -10.58936,7.80266 -3.90133,2.22935 -11.14668,-2.78666 -11.14668,-2.78666"
           id="path3894"
           inkscape:connector-curvature="0" />
        <path
           style="color:#000000;fill:none;stroke:#000000;stroke-width:2.5;stroke-linecap:butt;stroke-linejoin:miter;stroke-miterlimit:4;stroke-opacity:1;stroke-dasharray:none;stroke-dashoffset:0;marker:none;visibility:visible;display:inline;overflow:visible;enable-background:accumulate"
           d="m 264.5218,243.27814 c -4.45867,-2.22934 -8.91734,-3.90134 -11.14668,-2.22934 -2.22932,1.67201 -8.91733,10.58934 -8.91733,10.58934 l -2.22934,8.91735"
           id="path3896"
           inkscape:connector-curvature="0" />
        <path
           style="color:#000000;fill:none;stroke:#000000;stroke-width:2.5;stroke-linecap:butt;stroke-linejoin:miter;stroke-miterlimit:4;stroke-opacity:1;stroke-dasharray:none;stroke-dashoffset:0;marker:none;visibility:visible;display:inline;overflow:visible;enable-background:accumulate"
           d="m 250.58846,242.16346 c -0.55734,-7.80266 2.22934,-17.83468 2.22934,-17.83468"
           id="path3898"
           inkscape:connector-curvature="0" />
        <path
           style="color:#000000;fill:none;stroke:#000000;stroke-width:2.5;stroke-linecap:butt;stroke-linejoin:miter;stroke-miterlimit:4;stroke-opacity:1;stroke-dasharray:none;stroke-dashoffset:0;marker:none;visibility:visible;display:inline;overflow:visible;enable-background:accumulate"
           d="m 292.94584,251.08081 c 2.78667,3.90133 2.78667,10.58935 2.78667,10.58935"
           id="path3900"
           inkscape:connector-curvature="0" />
        <text
           xml:space="preserve"
           style="font-size:10px;font-style:normal;font-variant:normal;font-weight:normal;font-stretch:normal;text-indent:0;text-align:start;text-decoration:none;line-height:125%;letter-spacing:0px;word-spacing:0px;text-transform:none;direction:ltr;block-progression:tb;writing-mode:lr-tb;text-anchor:start;baseline-shift:baseline;color:#000000;fill:#000000;fill-opacity:1;fill-rule:nonzero;stroke:none;stroke-width:1.24999988px;marker:none;visibility:visible;display:inline;overflow:visible;enable-background:accumulate;font-family:Liberation Sans;-inkscape-font-specification:Liberation Sans"
           x="158.90041"
           y="271.98465"
           id="text3920"
           sodipodi:linespacing="125%"><tspan
             sodipodi:role="line"
             id="tspan3922"
             x="158.90041"
             y="271.98465">square knot</tspan></text>
        <path
           style="color:#000000;fill:#ffffff;fill-opacity:1;stroke:#000000;stroke-width:1;stroke-linecap:butt;stroke-linejoin:miter;stroke-miterlimit:4;stroke-opacity:1;stroke-dasharray:none;stroke-dashoffset:0;marker:none;visibility:visible;display:inline;overflow:visible;enable-background:accumulate"
           d="m 86.159328,234.55479 15.536932,8.47469 0,-4.23734 4.23734,9.18091 -7.768464,0 1.412448,-1.41245 -15.536928,-7.76846 z"
           id="path3926"
           inkscape:connector-curvature="0" />
        <path
           style="color:#000000;fill:#ffffff;fill-opacity:1;stroke:#000000;stroke-width:1;stroke-linecap:butt;stroke-linejoin:miter;stroke-miterlimit:4;stroke-opacity:1;stroke-dasharray:none;stroke-dashoffset:0;marker:none;visibility:visible;display:inline;overflow:visible;enable-background:accumulate"
           d="m 234.86379,234.94176 -12.7624,12.26123 -1.11399,-4.08829 -1.67465,9.97195 7.49521,-2.04232 -1.7341,-0.99143 12.94807,-11.57984 z"
           id="path3926-0"
           inkscape:connector-curvature="0" />
      </g>
    </g>
    <g
       id="g4153"
       transform="translate(0.08827973,0)">
      <rect
         y="290.45615"
         x="60.150593"
         height="105.71428"
         width="253.99753"
         id="rect2985-4-0-3"
         style="fill:#dedede;fill-opacity:1;stroke:none" />
      <path
         sodipodi:nodetypes="cc"
         inkscape:connector-curvature="0"
         id="path3815-9"
         d="m 93.446617,343.20058 0.557333,29.74876"
         style="color:#000000;fill:none;stroke:#000000;stroke-width:2.5;stroke-linecap:butt;stroke-linejoin:miter;stroke-miterlimit:4;stroke-opacity:1;stroke-dasharray:none;stroke-dashoffset:0;marker:none;visibility:visible;display:inline;overflow:visible;enable-background:accumulate" />
      <path
         inkscape:connector-curvature="0"
         id="path3817-2"
         d="m 94.26683,337.04895 c 0,-19.27508 -11.072923,-29.9379 -14.353782,-25.42671 -3.28087,4.51118 -6.561736,9.43249 -4.511194,13.12347 2.05054,3.69096 10.252698,12.30324 14.763896,13.94366 4.511189,1.64045 21.32562,11.89315 21.32562,11.89315"
         style="color:#000000;fill:none;stroke:#000000;stroke-width:2.5;stroke-linecap:butt;stroke-linejoin:miter;stroke-miterlimit:4;stroke-opacity:1;stroke-dasharray:none;stroke-dashoffset:0;marker:none;visibility:visible;display:inline;overflow:visible;enable-background:accumulate" />
      <path
         inkscape:connector-curvature="0"
         id="path3819-1"
         d="m 160.44925,331.04506 c -4.45867,-17.83468 -12.26135,-24.52268 -19.50669,-18.94935 -7.24534,5.57334 -18.39202,17.83469 -13.37601,22.85069 5.016,5.01601 7.24534,7.80268 11.70401,8.36001 4.45868,0.55734 8.36001,-1.672 8.36001,-1.672"
         style="color:#000000;fill:none;stroke:#000000;stroke-width:2.5;stroke-linecap:butt;stroke-linejoin:miter;stroke-miterlimit:4;stroke-opacity:1;stroke-dasharray:none;stroke-dashoffset:0;marker:none;visibility:visible;display:inline;overflow:visible;enable-background:accumulate" />
      <path
         inkscape:connector-curvature="0"
         id="path3821-8"
         d="m 139.27056,339.40507 c 3.90134,-2.78667 4.45868,-6.13067 8.91734,-3.344 4.45868,2.78667 6.68801,6.13067 9.47468,5.57334 2.78667,-0.55733 3.344,-2.78667 3.344,-2.78667"
         style="color:#000000;fill:none;stroke:#000000;stroke-width:2.5;stroke-linecap:butt;stroke-linejoin:miter;stroke-miterlimit:4;stroke-opacity:1;stroke-dasharray:none;stroke-dashoffset:0;marker:none;visibility:visible;display:inline;overflow:visible;enable-background:accumulate" />
      <path
         inkscape:connector-curvature="0"
         id="path3823-3"
         d="m 153.20391,335.50375 c 3.90134,-1.67201 7.24534,-2.78668 11.14667,-1.67201 3.90134,1.11466 9.47469,8.36 9.47469,8.36"
         style="color:#000000;fill:none;stroke:#000000;stroke-width:2.5;stroke-linecap:butt;stroke-linejoin:miter;stroke-miterlimit:4;stroke-opacity:1;stroke-dasharray:none;stroke-dashoffset:0;marker:none;visibility:visible;display:inline;overflow:visible;enable-background:accumulate" />
      <path
         inkscape:connector-curvature="0"
         id="path3825-9"
         d="m 138.71324,346.65042 0,24.52269"
         style="color:#000000;fill:none;stroke:#000000;stroke-width:2.5;stroke-linecap:butt;stroke-linejoin:miter;stroke-miterlimit:4;stroke-opacity:1;stroke-dasharray:none;stroke-dashoffset:0;marker:none;visibility:visible;display:inline;overflow:visible;enable-background:accumulate" />
      <path
         inkscape:connector-curvature="0"
         id="path3819-8-6"
         d="m 219.92879,328.15509 c -0.78166,-18.36693 -7.08024,-26.48722 -15.29825,-22.48449 -8.21798,4.00274 -21.60236,13.77245 -17.69732,19.69457 3.90501,5.92211 5.52851,9.10011 9.78406,10.54255 4.25555,1.44245 8.52547,0.0431 8.52547,0.0431"
         style="color:#000000;fill:none;stroke:#000000;stroke-width:2.5;stroke-linecap:butt;stroke-linejoin:miter;stroke-miterlimit:4;stroke-opacity:1;stroke-dasharray:none;stroke-dashoffset:0;marker:none;visibility:visible;display:inline;overflow:visible;enable-background:accumulate" />
      <path
         inkscape:connector-curvature="0"
         id="path3821-7-5"
         d="m 197.50171,332.08607 c 4.38196,-1.94535 5.60028,-5.10899 9.40759,-1.48274 3.80732,3.62624 5.31875,7.35019 8.16058,7.36454 2.84182,0.0144 3.83602,-2.05739 3.83602,-2.05739"
         style="color:#000000;fill:none;stroke:#000000;stroke-width:2.5;stroke-linecap:butt;stroke-linejoin:miter;stroke-miterlimit:4;stroke-opacity:1;stroke-dasharray:none;stroke-dashoffset:0;marker:none;visibility:visible;display:inline;overflow:visible;enable-background:accumulate" />
      <path
         sodipodi:nodetypes="cssc"
         inkscape:connector-curvature="0"
         id="path3856-8"
         d="m 214.51064,332.71707 c 2.22933,-1.11467 10.58935,-2.78667 13.37602,1.672 2.78667,4.45867 6.688,8.91734 -1.11466,14.49068 -7.80269,5.57333 -12.24446,8.34311 -12.24446,8.34311"
         style="color:#000000;fill:none;stroke:#000000;stroke-width:2.5;stroke-linecap:butt;stroke-linejoin:miter;stroke-miterlimit:4;stroke-opacity:1;stroke-dasharray:none;stroke-dashoffset:0;marker:none;visibility:visible;display:inline;overflow:visible;enable-background:accumulate" />
      <path
         sodipodi:nodetypes="csc"
         inkscape:connector-curvature="0"
         id="path3858-5"
         d="m 193.88929,337.73307 c 1.11466,5.01601 2.78666,12.26135 6.688,15.04801 3.90135,2.78668 21.75599,19.33986 21.75599,19.33986"
         style="color:#000000;fill:none;stroke:#000000;stroke-width:2.5;stroke-linecap:butt;stroke-linejoin:miter;stroke-miterlimit:4;stroke-opacity:1;stroke-dasharray:none;stroke-dashoffset:0;marker:none;visibility:visible;display:inline;overflow:visible;enable-background:accumulate" />
      <path
         inkscape:connector-curvature="0"
         id="path3819-8-8-4"
         d="m 284.71633,329.08088 c -0.78166,-18.36693 -7.08025,-26.48722 -15.29824,-22.48449 -8.21797,4.00273 -21.60236,13.77246 -17.69734,19.69457 3.90501,5.92211 5.52852,9.10011 9.78408,10.54256 4.25556,1.44244 8.52545,0.0431 8.52545,0.0431"
         style="color:#000000;fill:none;stroke:#000000;stroke-width:2.5;stroke-linecap:butt;stroke-linejoin:miter;stroke-miterlimit:4;stroke-opacity:1;stroke-dasharray:none;stroke-dashoffset:0;marker:none;visibility:visible;display:inline;overflow:visible;enable-background:accumulate" />
      <path
         inkscape:connector-curvature="0"
         id="path3821-7-1-6"
         d="m 262.28924,333.01185 c 4.38199,-1.94534 5.60029,-5.10898 9.4076,-1.48274 3.80732,3.62626 5.31876,7.3502 8.16057,7.36457 2.84182,0.0143 3.83603,-2.0574 3.83603,-2.0574"
         style="color:#000000;fill:none;stroke:#000000;stroke-width:2.5;stroke-linecap:butt;stroke-linejoin:miter;stroke-miterlimit:4;stroke-opacity:1;stroke-dasharray:none;stroke-dashoffset:0;marker:none;visibility:visible;display:inline;overflow:visible;enable-background:accumulate" />
      <g
         transform="matrix(-1,0,0,1,539.3734,0)"
         id="g4142">
        <path
           style="color:#000000;fill:none;stroke:#000000;stroke-width:2.5;stroke-linecap:butt;stroke-linejoin:miter;stroke-miterlimit:4;stroke-opacity:1;stroke-dasharray:none;stroke-dashoffset:0;marker:none;visibility:visible;display:inline;overflow:visible;enable-background:accumulate"
           d="m 286.40672,355.01043 c -3.34401,-3.34401 -8.91734,-4.45868 -10.58934,-2.78667 -1.672,1.672 -6.68801,5.57333 -10.58936,7.80266 -3.90133,2.22935 -11.14668,-2.78666 -11.14668,-2.78666"
           id="path3894-9"
           inkscape:connector-curvature="0" />
        <path
           style="color:#000000;fill:none;stroke:#000000;stroke-width:2.5;stroke-linecap:butt;stroke-linejoin:miter;stroke-miterlimit:4;stroke-opacity:1;stroke-dasharray:none;stroke-dashoffset:0;marker:none;visibility:visible;display:inline;overflow:visible;enable-background:accumulate"
           d="m 265.22802,355.56776 c -4.45867,-2.22934 -8.91734,-3.90134 -11.14668,-2.22934 -2.22932,1.67201 -8.91733,10.58934 -8.91733,10.58934 l -2.22934,8.91735"
           id="path3896-6"
           inkscape:connector-curvature="0" />
        <path
           style="color:#000000;fill:none;stroke:#000000;stroke-width:2.5;stroke-linecap:butt;stroke-linejoin:miter;stroke-miterlimit:4;stroke-opacity:1;stroke-dasharray:none;stroke-dashoffset:0;marker:none;visibility:visible;display:inline;overflow:visible;enable-background:accumulate"
           d="m 293.65206,363.37043 c 2.78667,3.90133 2.78667,10.58935 2.78667,10.58935"
           id="path3900-6"
           inkscape:connector-curvature="0" />
      </g>
      <text
         sodipodi:linespacing="125%"
         id="text3920-7"
         y="384.27426"
         x="159.60663"
         style="font-size:10px;font-style:normal;font-variant:normal;font-weight:normal;font-stretch:normal;text-indent:0;text-align:start;text-decoration:none;line-height:125%;letter-spacing:0px;word-spacing:0px;text-transform:none;direction:ltr;block-progression:tb;writing-mode:lr-tb;text-anchor:start;baseline-shift:baseline;color:#000000;fill:#000000;fill-opacity:1;fill-rule:nonzero;stroke:none;stroke-width:1.24999988px;marker:none;visibility:visible;display:inline;overflow:visible;enable-background:accumulate;font-family:Liberation Sans;-inkscape-font-specification:Liberation Sans"
         xml:space="preserve"><tspan
           y="384.27426"
           x="159.60663"
           id="tspan3922-1"
           sodipodi:role="line">granny knot - bad</tspan></text>
      <path
         inkscape:connector-curvature="0"
         id="path3926-8"
         d="m 86.86555,346.84441 15.53693,8.47469 0,-4.23734 4.23734,9.18091 -7.768462,0 1.412452,-1.41245 -15.536932,-7.76846 z"
         style="color:#000000;fill:#ffffff;fill-opacity:1;stroke:#000000;stroke-width:1;stroke-linecap:butt;stroke-linejoin:miter;stroke-miterlimit:4;stroke-opacity:1;stroke-dasharray:none;stroke-dashoffset:0;marker:none;visibility:visible;display:inline;overflow:visible;enable-background:accumulate" />
      <path
         inkscape:connector-curvature="0"
         id="path4122"
         d="m 206.49778,362.1759 -8.55756,6.69723"
         style="color:#000000;fill:none;stroke:#000000;stroke-width:2.5;stroke-linecap:butt;stroke-linejoin:miter;stroke-miterlimit:4;stroke-opacity:1;stroke-dasharray:none;stroke-dashoffset:0;marker:none;visibility:visible;display:inline;overflow:visible;enable-background:accumulate" />
      <path
         inkscape:connector-curvature="0"
         id="path3926-8-1"
         d="m 197.82263,358.63839 12.8479,12.17161 1.08535,-4.09598 1.74438,9.95999 -7.50931,-1.98982 1.72712,-1.00354 -13.0288,-11.48895 z"
         style="color:#000000;fill:#ffffff;fill-opacity:1;stroke:#000000;stroke-width:1;stroke-linecap:butt;stroke-linejoin:miter;stroke-miterlimit:4;stroke-opacity:1;stroke-dasharray:none;stroke-dashoffset:0;marker:none;visibility:visible;display:inline;overflow:visible;enable-background:accumulate" />
      <path
         inkscape:connector-curvature="0"
         id="path4147"
         d="m 254.86663,336.87527 c -3.34861,7.81343 -8.92963,8.1855 -6.32516,15.25479 2.60448,7.0693 6.69723,9.67377 9.67377,10.04584 2.97655,0.37207 7.0693,-1.48827 7.0693,-1.48827"
         style="color:#000000;fill:none;stroke:#000000;stroke-width:2.5;stroke-linecap:butt;stroke-linejoin:miter;stroke-miterlimit:4;stroke-opacity:1;stroke-dasharray:none;stroke-dashoffset:0;marker:none;visibility:visible;display:inline;overflow:visible;enable-background:accumulate" />
      <path
         inkscape:connector-curvature="0"
         id="path4151"
         d="m 279.05106,333.52666 c 5.58102,-0.37207 8.55756,-4.46482 11.16204,1.48827 2.60448,5.95309 4.09275,5.58102 2.97654,10.04584 -1.1162,4.46482 -3.34861,7.06929 -3.34861,7.06929"
         style="color:#000000;fill:none;stroke:#000000;stroke-width:2.5;stroke-linecap:butt;stroke-linejoin:miter;stroke-miterlimit:4;stroke-opacity:1;stroke-dasharray:none;stroke-dashoffset:0;marker:none;visibility:visible;display:inline;overflow:visible;enable-background:accumulate" />
    </g>
  </g>
</svg>
