<?xml version="1.0" encoding="UTF-8"?>
<svg xmlns="http://www.w3.org/2000/svg" xmlns:xlink="http://www.w3.org/1999/xlink" width="219pt" height="127pt" viewBox="0 0 219 127" version="1.1">
<g id="surface1">
<path style="fill:none;stroke-width:10;stroke-linecap:butt;stroke-linejoin:miter;stroke:rgb(0%,0%,0%);stroke-opacity:1;stroke-miterlimit:4;" d="M 16.679688 10 L 996.679688 1236.679688 " transform="matrix(0.1,0,0,-0.1,0,127)"/>
<path style=" stroke:none;fill-rule:nonzero;fill:rgb(0%,0%,0%);fill-opacity:1;" d="M 102.304688 0.0351562 C 101.640625 2.046875 101.085938 4.761719 101.171875 6.785156 L 99.324219 3.769531 L 95.96875 2.632812 C 97.964844 2.269531 100.488281 1.128906 102.304688 0.0351562 "/>
<path style="fill:none;stroke-width:10;stroke-linecap:butt;stroke-linejoin:miter;stroke:rgb(0%,0%,0%);stroke-opacity:1;stroke-miterlimit:4;" d="M 853.945312 358.320312 L 43.945312 268.320312 " transform="matrix(0.1,0,0,-0.1,0,127)"/>
<path style=" stroke:none;fill-rule:nonzero;fill:rgb(0%,0%,0%);fill-opacity:1;" d="M 0.199219 100.632812 C 2.09375 99.679688 4.40625 98.15625 5.777344 96.664062 L 4.949219 100.101562 L 6.511719 103.277344 C 4.847656 102.125 2.257812 101.144531 0.199219 100.632812 "/>
<path style="fill:none;stroke-width:10;stroke-linecap:butt;stroke-linejoin:miter;stroke:rgb(0%,0%,0%);stroke-opacity:1;stroke-miterlimit:4;" d="M 1557.109375 837.695312 L 1646.25 287.5 " transform="matrix(0.1,0,0,-0.1,0,127)"/>
<path style=" stroke:none;fill-rule:nonzero;fill:rgb(0%,0%,0%);fill-opacity:1;" d="M 165.40625 102.398438 C 164.3125 100.582031 162.621094 98.390625 161.027344 97.132812 L 164.523438 97.703125 L 167.570312 95.90625 C 166.546875 97.652344 165.761719 100.308594 165.40625 102.398438 "/>
<path style="fill:none;stroke-width:10;stroke-linecap:butt;stroke-linejoin:miter;stroke:rgb(0%,0%,0%);stroke-opacity:1;stroke-miterlimit:4;" d="M 1348.4375 740.195312 L 2144.375 631.875 " transform="matrix(0.1,0,0,-0.1,0,127)"/>
<path style=" stroke:none;fill-rule:nonzero;fill:rgb(0%,0%,0%);fill-opacity:1;" d="M 218.613281 64.433594 C 216.535156 64.871094 213.910156 65.753906 212.203125 66.84375 L 213.886719 63.730469 L 213.183594 60.261719 C 214.5 61.804688 216.753906 63.410156 218.613281 64.433594 "/>
</g>
</svg>
