<?xml version="1.0" encoding="UTF-8" standalone="no"?>
<!-- Created with Inkscape (http://www.inkscape.org/) -->
<svg
   xmlns:dc="http://purl.org/dc/elements/1.1/"
   xmlns:cc="http://creativecommons.org/ns#"
   xmlns:rdf="http://www.w3.org/1999/02/22-rdf-syntax-ns#"
   xmlns:svg="http://www.w3.org/2000/svg"
   xmlns="http://www.w3.org/2000/svg"
   xmlns:sodipodi="http://sodipodi.sourceforge.net/DTD/sodipodi-0.dtd"
   xmlns:inkscape="http://www.inkscape.org/namespaces/inkscape"
   width="744.09448819"
   height="1052.3622047"
   id="svg2"
   sodipodi:version="0.32"
   sodipodi:docname="vw-sta-prelab.svg"
   inkscape:output_extension="org.inkscape.output.svg.inkscape">
  <defs
     id="defs4"><inkscape:perspective
   sodipodi:type="inkscape:persp3d"
   inkscape:vp_x="0 : 526.18109 : 1"
   inkscape:vp_y="0 : 1000 : 0"
   inkscape:vp_z="744.09448 : 526.18109 : 1"
   inkscape:persp3d-origin="372.04724 : 350.78739 : 1"
   id="perspective10" />

		
		 
	
			
			
			
			
			
			
			
			
			
			
			
			
			
			
			
		
				
				
			
				
				
			
				
				
			
				
				
			
				
				
			
				
				
			
				
				
			
				
				
			
				
				
			</defs>
  <sodipodi:namedview
     id="base"
     pagecolor="#ffffff"
     bordercolor="#666666"
     borderopacity="1.0"
     gridtolerance="10000"
     guidetolerance="10"
     objecttolerance="10"
     inkscape:pageopacity="0.0"
     inkscape:pageshadow="2"
     inkscape:zoom="0.92505531"
     inkscape:cx="194.11777"
     inkscape:cy="391.66052"
     inkscape:document-units="px"
     inkscape:current-layer="layer1"
     showgrid="false"
     inkscape:window-width="1278"
     inkscape:window-height="996"
     inkscape:window-x="0"
     inkscape:window-y="0" />
  <metadata
     id="metadata7">
    <rdf:RDF>
      <cc:Work
         rdf:about="">
        <dc:format>image/svg+xml</dc:format>
        <dc:type
           rdf:resource="http://purl.org/dc/dcmitype/StillImage" />
      </cc:Work>
    </rdf:RDF>
  </metadata>
  <g
     inkscape:label="Layer 1"
     inkscape:groupmode="layer"
     id="layer1">
    <g
       id="g4072"
       transform="matrix(1.3194622,0,0,1,15.774645,61.44873)">
      <path
         style="fill:none;stroke:#000000;stroke-width:0.625;stroke-miterlimit:4;stroke-dasharray:none"
         d="M 73.690321,386.66717 C 94.432735,361.38193 101.56371,355.01639 108.01913,349.37845 C 114.47453,343.73853 118.57797,342.46622 121.28026,341.19192 C 124.00754,339.9196 130.46296,338.10059 135.21694,338.2815 C 139.97093,338.46241 145.07522,339.192 148.82835,341.19192 C 152.55647,343.19183 158.33635,346.28514 162.41475,349.74226 C 166.49318,353.19738 170.22131,356.1078 176.00115,362.65623 C 181.78099,369.20467 180.42986,366.29425 196.39325,386.66717"
         id="path2584" />
      <path
         style="fill:none;stroke:#000000;stroke-width:2.5;stroke-miterlimit:4;stroke-dasharray:none"
         d="M 73.690321,386.66369 C 94.432735,374.02488 101.56371,370.84308 108.01913,368.02496 C 114.47453,365.20585 118.57797,364.56988 121.28026,363.93292 C 124.00754,363.29696 130.46296,362.38773 135.21694,362.47815 C 139.97093,362.56858 145.07522,362.93327 148.82835,363.93292 C 152.55647,364.93258 158.33635,366.47877 162.41475,368.2068 C 166.49318,369.93385 170.22131,371.38862 176.00115,374.66185 C 181.78099,377.93507 180.42986,376.4803 196.39325,386.66369"
         id="path2823" />
      <path
         style="fill:none;stroke:#000000;stroke-width:0.625;stroke-miterlimit:4;stroke-dasharray:none"
         d="M 73.690321,386.6602 C 94.432735,386.66002 101.56371,386.65998 108.01913,386.65994 C 114.47453,386.6599 118.57797,386.65989 121.28026,386.65988 C 124.00754,386.65987 130.46296,386.65986 135.21694,386.65986 C 139.97093,386.65986 145.07522,386.65986 148.82835,386.65988 C 152.55647,386.65989 158.33635,386.65991 162.41475,386.65994 C 166.49318,386.65996 170.22131,386.65998 176.00115,386.66003 C 181.78099,386.66008 180.42986,386.66006 196.39325,386.6602"
         id="path2843" />
      <path
         style="fill:none;stroke:#000000;stroke-width:0.625;stroke-miterlimit:4;stroke-dasharray:none"
         d="M 73.690321,386.65673 C 94.432735,399.29553 101.56371,402.47734 108.01913,405.29546 C 114.47452,408.11457 118.57796,408.75054 121.28025,409.38749 C 124.00753,410.02346 130.46295,410.93268 135.21693,410.84226 C 139.97092,410.75183 145.07521,410.38714 148.82834,409.38749 C 152.55646,408.38784 158.33635,406.84164 162.41475,405.11361 C 166.49318,403.38656 170.22131,401.9318 176.00115,398.65857 C 181.78099,395.38535 180.42986,396.84011 196.39325,386.65673"
         id="path3647" />
      <path
         style="fill:none;stroke:#000000;stroke-width:0.625;stroke-miterlimit:4;stroke-dasharray:none"
         d="M 73.690321,386.65325 C 94.432735,411.93849 101.56371,418.30403 108.01913,423.94197 C 114.47453,429.58189 118.57797,430.8542 121.28026,432.1285 C 124.00754,433.40082 130.46296,435.21983 135.21694,435.03892 C 139.97093,434.85801 145.07522,434.12842 148.82835,432.1285 C 152.55647,430.12859 158.33635,427.03528 162.41475,423.57816 C 166.49318,420.12304 170.22131,417.21262 176.00115,410.66419 C 181.78099,404.11575 180.42986,407.02617 196.39325,386.65325"
         id="path3667" />
    </g>
    <g
       id="g4060"
       transform="translate(0,0.3717346)">
      <path
         style="fill:none;stroke:#000000;stroke-width:0.625;stroke-miterlimit:4;stroke-dasharray:none"
         d="M 113.81607,565.91176 C 127.57198,540.5599 132.30108,534.17759 136.58218,528.5248 C 140.86325,522.87001 143.58456,521.59435 145.37666,520.31669 C 147.18533,519.04102 151.46642,517.21722 154.61916,517.39861 C 157.77189,517.57999 161.15694,518.3115 163.64594,520.31669 C 166.11835,522.32188 169.95143,525.42334 172.65613,528.88956 C 175.36086,532.35379 177.83327,535.27187 181.66633,541.83756 C 185.49939,548.40325 184.60335,545.48517 195.18992,565.91176"
         id="path3740" />
      <path
         style="fill:none;stroke:#000000;stroke-width:0.625;stroke-miterlimit:4;stroke-dasharray:none"
         d="M 195.37246,565.8998 C 209.12834,591.24966 213.85747,597.63396 218.15515,603.28675 C 222.43622,608.93955 225.14094,610.21721 226.94963,611.49287 C 228.7583,612.76854 233.03939,614.59433 236.19213,614.41095 C 239.34486,614.22957 242.72991,613.49806 245.20232,611.49287 C 247.67473,609.48768 251.5244,606.38622 254.2291,602.92199 C 256.93383,599.45577 259.40624,596.53769 263.2393,589.972 C 267.07236,583.40631 266.17632,586.32439 276.76289,565.8978"
         id="path3742" />
      <path
         style="fill:none;stroke:#000000;stroke-width:2.5;stroke-miterlimit:4;stroke-dasharray:none"
         d="M 113.81607,565.90827 C 127.57198,553.23617 132.30108,550.04598 136.58218,547.22043 C 140.86325,544.39389 143.58456,543.75625 145.37666,543.11762 C 147.18533,542.47998 151.46642,541.56836 154.61916,541.65902 C 157.77189,541.74968 161.15694,542.11533 163.64594,543.11762 C 166.11835,544.11991 169.95143,545.67017 172.65613,547.40276 C 175.36086,549.13436 177.83327,550.59295 181.66633,553.87481 C 185.49939,557.15666 184.60335,555.69805 195.18992,565.90827"
         id="path3756" />
      <path
         style="fill:none;stroke:#000000;stroke-width:2.5;stroke-miterlimit:4;stroke-dasharray:none"
         d="M 195.37246,565.90229 C 209.12834,578.57339 213.85747,581.76458 218.15515,584.59012 C 222.43622,587.41567 225.14094,588.0543 226.94963,588.69194 C 228.7583,589.32958 233.03939,590.24221 236.19213,590.15054 C 239.34486,590.05987 242.72991,589.69423 245.20232,588.69194 C 247.67473,587.68965 251.5244,586.13938 254.2291,584.4078 C 256.93383,582.67521 259.40624,581.21661 263.2393,577.93475 C 267.07236,574.6529 266.17632,576.1115 276.76289,565.90129"
         id="path3758" />
      <path
         style="fill:none;stroke:#000000;stroke-width:0.625;stroke-miterlimit:4;stroke-dasharray:none"
         d="M 113.81607,565.90477 C 127.57198,565.90459 132.30108,565.90455 136.58218,565.90451 C 140.86325,565.90447 143.58456,565.90446 145.37666,565.90445 C 147.18533,565.90444 151.46642,565.90443 154.61916,565.90443 C 157.77189,565.90443 161.15694,565.90443 163.64594,565.90445 C 166.11835,565.90446 169.95143,565.90448 172.65613,565.90451 C 175.36086,565.90453 177.83327,565.90455 181.66633,565.9046 C 185.49939,565.90465 184.60335,565.90463 195.18992,565.90477"
         id="path3770" />
      <path
         style="fill:none;stroke:#000000;stroke-width:0.625;stroke-miterlimit:4;stroke-dasharray:none"
         d="M 195.37246,565.90477 C 209.12834,565.90495 213.85747,565.905 218.15515,565.90504 C 222.43622,565.90508 225.14094,565.90509 226.94963,565.90509 C 228.7583,565.9051 233.03939,565.90512 236.19213,565.90512 C 239.34486,565.90511 242.72991,565.90511 245.20232,565.90509 C 247.67473,565.90508 251.5244,565.90506 254.2291,565.90503 C 256.93383,565.90501 259.40624,565.90499 263.2393,565.90494 C 267.07236,565.9049 266.17632,565.90492 276.76289,565.90477"
         id="path3772" />
      <path
         style="fill:none;stroke:#000000;stroke-width:0.625;stroke-miterlimit:4;stroke-dasharray:none"
         d="M 113.81607,565.90125 C 127.57198,578.57335 132.30108,581.76354 136.58218,584.58909 C 140.86325,587.41563 143.58456,588.05327 145.37666,588.6919 C 147.18533,589.32954 151.46642,590.24116 154.61916,590.1505 C 157.77189,590.05983 161.15694,589.69418 163.64594,588.6919 C 166.11835,587.68961 169.95143,586.13934 172.65613,584.40676 C 175.36086,582.67516 177.83327,581.21657 181.66633,577.93471 C 185.49939,574.65286 184.60335,576.11146 195.18992,565.90125"
         id="path3786" />
      <path
         style="fill:none;stroke:#000000;stroke-width:0.625;stroke-miterlimit:4;stroke-dasharray:none"
         d="M 195.37246,565.90722 C 209.12834,553.23613 213.85747,550.04494 218.15515,547.21939 C 222.43622,544.39385 225.14094,543.75521 226.94963,543.11758 C 228.7583,542.47994 233.03939,541.56731 236.19213,541.65898 C 239.34486,541.74964 242.72991,542.11529 245.20232,543.11758 C 247.67473,544.11987 251.5244,545.67013 254.2291,547.40172 C 256.93383,549.13431 259.40624,550.59291 263.2393,553.87477 C 267.07236,557.15662 266.17632,555.69801 276.76289,565.90823"
         id="path3788" />
      <path
         style="fill:none;stroke:#000000;stroke-width:0.625;stroke-miterlimit:4;stroke-dasharray:none"
         d="M 113.81607,565.89783 C 127.57198,591.24969 132.30108,597.632 136.58218,603.28479 C 140.86325,608.93958 143.58456,610.21524 145.37666,611.4929 C 147.18533,612.76857 151.46642,614.59237 154.61916,614.41098 C 157.77189,614.2296 161.15694,613.49809 163.64594,611.4929 C 166.11835,609.48771 169.95143,606.38625 172.65613,602.92003 C 175.36086,599.4558 177.83327,596.53772 181.66633,589.97203 C 185.49939,583.40634 184.60335,586.32442 195.18992,565.89783"
         id="path3802" />
      <path
         style="fill:none;stroke:#000000;stroke-width:0.625;stroke-miterlimit:4;stroke-dasharray:none"
         d="M 195.37246,565.90979 C 209.12834,540.55993 213.85747,534.17563 218.15515,528.52284 C 222.43622,522.87004 225.14094,521.59238 226.94963,520.31672 C 228.7583,519.04105 233.03939,517.21526 236.19213,517.39864 C 239.34486,517.58002 242.72991,518.31153 245.20232,520.31672 C 247.67473,522.32191 251.5244,525.42337 254.2291,528.8876 C 256.93383,532.35382 259.40624,535.2719 263.2393,541.83759 C 267.07236,548.40328 266.17632,545.4852 276.76289,565.91179"
         id="path3804" />
    </g>
    <g
       id="g4043"
       transform="matrix(1.2969433,0,0,1,6.4352582,-27.39791)">
      <path
         style="fill:none;stroke:#000000;stroke-width:0.625;stroke-miterlimit:4;stroke-dasharray:none"
         d="M 85.15228,711.849 C 92.01074,686.411 94.36859,680.007 96.50307,674.335 C 98.63754,668.661 99.99434,667.381 100.88785,666.099 C 101.78962,664.819 103.9241,662.989 105.496,663.171 C 107.0679,663.353 108.75563,664.087 109.9966,666.099 C 111.2293,668.111 113.14041,671.223 114.48893,674.701 C 115.83746,678.177 117.07016,681.105 118.98126,687.693 C 120.89236,694.281 120.44561,691.353 125.72389,711.849"
         id="path3816" />
      <path
         style="fill:none;stroke:#000000;stroke-width:0.625;stroke-miterlimit:4;stroke-dasharray:none"
         d="M 125.8149,711.837 C 132.67335,737.273 135.03121,743.679 137.17396,749.351 C 139.30843,755.023 140.65696,756.305 141.55874,757.585 C 142.46051,758.865 144.59499,760.697 146.16689,760.513 C 147.73879,760.331 149.42652,759.597 150.65922,757.585 C 151.89192,755.573 153.8113,752.461 155.15982,748.985 C 156.50835,745.507 157.74105,742.579 159.65215,735.991 C 161.56325,729.403 161.1165,732.331 166.39478,711.835"
         id="path3818" />
      <path
         style="fill:none;stroke:#000000;stroke-width:0.625;stroke-miterlimit:4;stroke-dasharray:none"
         d="M 165.84876,711.849 C 172.70721,686.413 175.06506,680.009 177.20781,674.335 C 179.34229,668.661 180.69082,667.381 181.59259,666.099 C 182.49437,664.817 184.62885,662.987 186.20075,663.171 C 187.77265,663.353 189.46865,664.087 190.70135,666.099 C 191.93405,668.111 193.84515,671.223 195.19368,674.701 C 196.54221,678.177 197.77491,681.105 199.68601,687.693 C 201.59711,694.281 201.15036,691.353 206.42864,711.849"
         id="path3820" />
      <path
         style="fill:none;stroke:#000000;stroke-width:2.5;stroke-miterlimit:4;stroke-dasharray:none"
         d="M 85.15228,711.8455 C 92.01074,699.13033 94.36859,695.92931 96.50307,693.09416 C 98.63754,690.25802 99.99434,689.61821 100.88785,688.9774 C 101.78962,688.3376 103.9241,687.42287 105.496,687.51384 C 107.0679,687.60482 108.75563,687.97171 109.9966,688.9774 C 111.2293,689.9831 113.14041,691.53863 114.48893,693.2771 C 115.83746,695.01458 117.07016,696.47814 118.98126,699.77115 C 120.89236,703.06415 120.44561,701.60059 125.72389,711.8455"
         id="path3832" />
      <path
         style="fill:none;stroke:#000000;stroke-width:2.5;stroke-miterlimit:4;stroke-dasharray:none"
         d="M 125.8149,711.8395 C 132.67335,724.55366 135.03121,727.75569 137.17396,730.59083 C 139.30843,733.42598 140.65696,734.06678 141.55874,734.70659 C 142.46051,735.3464 144.59499,736.26212 146.16689,736.17015 C 147.73879,736.07917 149.42652,735.71229 150.65922,734.70659 C 151.89192,733.7009 153.8113,732.14536 155.15982,730.40789 C 156.50835,728.66942 157.74105,727.20586 159.65215,723.91285 C 161.56325,720.61985 161.1165,722.0834 166.39478,711.8385"
         id="path3834" />
      <path
         style="fill:none;stroke:#000000;stroke-width:2.5;stroke-miterlimit:4;stroke-dasharray:none"
         d="M 165.84876,711.8455 C 172.70721,699.13134 175.06506,695.9303 177.20781,693.09416 C 179.34229,690.25802 180.69082,689.61821 181.59259,688.9774 C 182.49437,688.3366 184.62885,687.42188 186.20075,687.51384 C 187.77265,687.60482 189.46865,687.97171 190.70135,688.9774 C 191.93405,689.9831 193.84515,691.53863 195.19368,693.2771 C 196.54221,695.01458 197.77491,696.47814 199.68601,699.77115 C 201.59711,703.06415 201.15036,701.60059 206.42864,711.8455"
         id="path3836" />
      <path
         style="fill:none;stroke:#000000;stroke-width:0.625;stroke-miterlimit:4;stroke-dasharray:none"
         d="M 85.15228,711.84199 C 92.01074,711.84181 94.36859,711.84177 96.50307,711.84173 C 98.63754,711.84169 99.99434,711.84168 100.88785,711.84167 C 101.78962,711.84166 103.9241,711.84165 105.496,711.84165 C 107.0679,711.84165 108.75563,711.84165 109.9966,711.84167 C 111.2293,711.84168 113.14041,711.8417 114.48893,711.84173 C 115.83746,711.84175 117.07016,711.84177 118.98126,711.84182 C 120.89236,711.84187 120.44561,711.84185 125.72389,711.84199"
         id="path3846" />
      <path
         style="fill:none;stroke:#000000;stroke-width:0.625;stroke-miterlimit:4;stroke-dasharray:none"
         d="M 125.8149,711.84199 C 132.67335,711.84217 135.03121,711.84222 137.17396,711.84226 C 139.30843,711.8423 140.65696,711.84231 141.55874,711.84231 C 142.46051,711.84232 144.59499,711.84234 146.16689,711.84234 C 147.73879,711.84233 149.42652,711.84233 150.65922,711.84231 C 151.89192,711.8423 153.8113,711.84228 155.15982,711.84225 C 156.50835,711.84223 157.74105,711.84221 159.65215,711.84216 C 161.56325,711.84212 161.1165,711.84214 166.39478,711.84199"
         id="path3848" />
      <path
         style="fill:none;stroke:#000000;stroke-width:0.625;stroke-miterlimit:4;stroke-dasharray:none"
         d="M 165.84876,711.84199 C 172.70721,711.84181 175.06506,711.84177 177.20781,711.84173 C 179.34229,711.84169 180.69082,711.84168 181.59259,711.84167 C 182.49437,711.84166 184.62885,711.84165 186.20075,711.84165 C 187.77265,711.84165 189.46865,711.84165 190.70135,711.84167 C 191.93405,711.84168 193.84515,711.8417 195.19368,711.84173 C 196.54221,711.84175 197.77491,711.84177 199.68601,711.84182 C 201.59711,711.84187 201.15036,711.84185 206.42864,711.84199"
         id="path3850" />
      <path
         style="fill:none;stroke:#000000;stroke-width:0.625;stroke-miterlimit:4;stroke-dasharray:none"
         d="M 85.15228,711.83854 C 92.01074,724.5537 94.36859,727.75473 96.50307,730.58988 C 98.637537,733.42602 99.994337,734.06583 100.88785,734.70663 C 101.78962,735.34644 103.9241,736.26116 105.496,736.17019 C 107.0679,736.07921 108.75563,735.71232 109.9966,734.70663 C 111.2293,733.70094 113.14041,732.1454 114.48893,730.40693 C 115.83746,728.66945 117.07016,727.2059 118.98126,723.91289 C 120.89236,720.61989 120.44561,722.08344 125.72389,711.83854"
         id="path3862" />
      <path
         style="fill:none;stroke:#000000;stroke-width:0.625;stroke-miterlimit:4;stroke-dasharray:none"
         d="M 125.8149,711.84453 C 132.67335,699.13038 135.03121,695.92835 137.17396,693.0932 C 139.30843,690.25806 140.65696,689.61725 141.55874,688.97745 C 142.46051,688.33764 144.59499,687.42191 146.16689,687.51389 C 147.73879,687.60486 149.42652,687.97175 150.65922,688.97745 C 151.89192,689.98314 153.8113,691.53867 155.15982,693.27615 C 156.50835,695.01462 157.74105,696.47818 159.65215,699.77119 C 161.56325,703.06419 161.1165,701.60063 166.39478,711.84554"
         id="path3864" />
      <path
         style="fill:none;stroke:#000000;stroke-width:0.625;stroke-miterlimit:4;stroke-dasharray:none"
         d="M 165.84876,711.83854 C 172.70721,724.5527 175.06506,727.75373 177.20781,730.58988 C 179.34229,733.42602 180.69082,734.06583 181.59259,734.70663 C 182.49437,735.34743 184.62885,736.26216 186.20075,736.17019 C 187.77265,736.07921 189.46865,735.71232 190.70135,734.70663 C 191.93405,733.70094 193.84515,732.1454 195.19368,730.40693 C 196.54221,728.66945 197.77491,727.2059 199.68601,723.91289 C 201.59711,720.61989 201.15036,722.08344 206.42864,711.83854"
         id="path3866" />
      <path
         style="fill:none;stroke:#000000;stroke-width:0.625;stroke-miterlimit:4;stroke-dasharray:none"
         d="M 85.15228,711.83501 C 92.01074,737.27301 94.36859,743.67701 96.50307,749.34901 C 98.63754,755.02301 99.99434,756.30301 100.88785,757.58501 C 101.78962,758.86501 103.9241,760.69501 105.496,760.51301 C 107.0679,760.33101 108.75563,759.59701 109.9966,757.58501 C 111.2293,755.57301 113.14041,752.46101 114.48893,748.98301 C 115.83746,745.50701 117.07016,742.57901 118.98126,735.99101 C 120.89236,729.40301 120.44561,732.33101 125.72389,711.83501"
         id="path3878" />
      <path
         style="fill:none;stroke:#000000;stroke-width:0.625;stroke-miterlimit:4;stroke-dasharray:none"
         d="M 125.8149,711.84701 C 132.67335,686.41101 135.03121,680.00501 137.17396,674.33301 C 139.30843,668.66101 140.65696,667.37901 141.55874,666.09901 C 142.46051,664.81901 144.59499,662.98701 146.16689,663.17101 C 147.73879,663.35301 149.42652,664.08701 150.65922,666.09901 C 151.89192,668.11101 153.8113,671.22301 155.15982,674.69901 C 156.50835,678.17701 157.74105,681.10501 159.65215,687.69301 C 161.56325,694.28101 161.1165,691.35301 166.39478,711.84901"
         id="path3880" />
      <path
         style="fill:none;stroke:#000000;stroke-width:0.625;stroke-miterlimit:4;stroke-dasharray:none"
         d="M 165.84876,711.83501 C 172.70721,737.27101 175.06506,743.67501 177.20781,749.34901 C 179.34229,755.02301 180.69082,756.30301 181.59259,757.58501 C 182.49437,758.86701 184.62885,760.69701 186.20075,760.51301 C 187.77265,760.33101 189.46865,759.59701 190.70135,757.58501 C 191.93405,755.57301 193.84515,752.46101 195.19368,748.98301 C 196.54221,745.50701 197.77491,742.57901 199.68601,735.99101 C 201.59711,729.40301 201.15036,732.33101 206.42864,711.83501"
         id="path3882" />
    </g>
  </g>
</svg>
